<svg version="1" xmlns="http://www.w3.org/2000/svg" width="346.667" height="346.667" viewBox="0 0 260.000000 260.000000"><path d="M0 130v130h260V0H0v130zm54 0v63H28V67h26v63zm46-62.6c0 .2 3.6 18.3 8 40.2 4.4 21.8 8 39.9 8 40.2 0 2.2 2.2-5 12-38.8 6.1-21.2 11.3-39.3 11.6-40.3.5-1.6 1.8-1.7 12.2-1.5l11.6.3 11.1 37.5c6.1 20.6 11.5 39.1 12.1 41 .9 3.1 1.8-.5 8.3-33 4-20.1 7.7-38.6 8.3-41.3l1-4.7H232l-.5 2.2c-.3 1.3-6.6 28.6-14 60.8-7.4 32.2-13.7 59.5-14 60.8-.5 2.1-.9 2.2-12.9 2.2h-12.3l-12.8-41.8c-7-22.9-13-42-13.4-42.4-.3-.4-6.5 18.4-13.6 41.7l-13 42.5h-12.2c-10.7 0-12.2-.2-12.7-1.8-.3-.9-6.6-28.5-14.1-61.2S72.7 69.7 72.4 68.7c-.5-1.6.6-1.7 13.5-1.7 7.8 0 14.1.2 14.1.4z"/></svg>