<?xml version="1.0" encoding="UTF-8" standalone="no"?>
<svg width="180px" height="120px" viewBox="0 0 180 120" version="1.1" xmlns="http://www.w3.org/2000/svg" xmlns:xlink="http://www.w3.org/1999/xlink">
    <!-- Generator: Sketch 43.2 (39069) - http://www.bohemiancoding.com/sketch -->
    <title>imagewall-system-icon-wall</title>
    <desc>Created with Sketch.</desc>
    <defs></defs>
    <g id="Page-1" stroke="none" stroke-width="1" fill="none" fill-rule="evenodd">
        <g id="imagewall-system-icon-wall">
            <g id="Group" transform="translate(14.000000, 10.000000)">
                <polyline id="Stroke-41" stroke="#000000" stroke-width="0.5" stroke-linejoin="round" points="0.3911 81.2461 0.3911 84.2461 3.3911 84.2461"></polyline>
                <path d="M9.1553,84.2461 L144.6203,84.2461" id="Stroke-42" stroke="#000000" stroke-width="0.5" stroke-linejoin="round" stroke-dasharray="5.764,5.764"></path>
                <polyline id="Stroke-43" stroke="#000000" stroke-width="0.5" stroke-linejoin="round" points="147.5024 84.2461 150.5024 84.2461 150.5024 81.2461"></polyline>
                <path d="M150.5024,75.2432 L150.5024,6.2092" id="Stroke-44" stroke="#000000" stroke-width="0.5" stroke-linejoin="round" stroke-dasharray="6.003,6.003"></path>
                <polyline id="Stroke-45" stroke="#000000" stroke-width="0.5" stroke-linejoin="round" points="150.5024 3.208 150.5024 0.208 147.5024 0.208"></polyline>
                <path d="M141.7383,0.208 L6.2733,0.208" id="Stroke-46" stroke="#000000" stroke-width="0.5" stroke-linejoin="round" stroke-dasharray="5.764,5.764"></path>
                <polyline id="Stroke-47" stroke="#000000" stroke-width="0.5" stroke-linejoin="round" points="3.3911 0.208 0.3911 0.208 0.3911 3.208"></polyline>
                <path d="M0.3911,9.2109 L0.3911,78.2449" id="Stroke-48" stroke="#000000" stroke-width="0.5" stroke-linejoin="round" stroke-dasharray="6.003,6.003"></path>
                <path d="M16.7109,69.8745 L134.1829,69.8745 C135.2869,69.8745 136.1829,68.9785 136.1829,67.8745 L136.1829,16.4765 C136.1829,15.3725 135.2869,14.4765 134.1829,14.4765 L16.7109,14.4765 C15.6069,14.4765 14.7109,15.3725 14.7109,16.4765 L14.7109,67.8745 C14.7109,68.9785 15.6069,69.8745 16.7109,69.8745" id="Fill-101" fill="#FFFFFF"></path>
                <path d="M18.5166,62.7881 C18.5166,64.6271 20.0076,66.1181 21.8466,66.1181 C23.6856,66.1181 25.1766,64.6271 25.1766,62.7881 C25.1766,60.9491 23.6856,59.4581 21.8466,59.4581 C20.0076,59.4581 18.5166,60.9491 18.5166,62.7881 Z M18.6486,55.9341 C18.6486,57.7001 20.0806,59.1321 21.8466,59.1321 C23.6126,59.1321 25.0446,57.7001 25.0446,55.9341 C25.0446,54.1671 23.6126,52.7361 21.8466,52.7361 C20.0806,52.7361 18.6486,54.1671 18.6486,55.9341 Z M18.7806,49.0801 C18.7806,50.7731 20.1536,52.1461 21.8466,52.1461 C23.5396,52.1461 24.9126,50.7731 24.9126,49.0801 C24.9126,47.3871 23.5396,46.0141 21.8466,46.0141 C20.1536,46.0141 18.7806,47.3871 18.7806,49.0801 Z M18.9126,42.2261 C18.9126,43.8461 20.2256,45.1601 21.8466,45.1601 C23.4666,45.1601 24.7806,43.8461 24.7806,42.2261 C24.7806,40.6051 23.4666,39.2911 21.8466,39.2911 C20.2256,39.2911 18.9126,40.6051 18.9126,42.2261 Z M19.0446,35.3711 C19.0446,36.9191 20.2986,38.1741 21.8466,38.1741 C23.3936,38.1741 24.6486,36.9191 24.6486,35.3711 C24.6486,33.8241 23.3936,32.5691 21.8466,32.5691 C20.2986,32.5691 19.0446,33.8241 19.0446,35.3711 Z M19.1766,28.5171 C19.1766,29.9931 20.3716,31.1881 21.8466,31.1881 C23.3216,31.1881 24.5166,29.9931 24.5166,28.5171 C24.5166,27.0431 23.3216,25.8471 21.8466,25.8471 C20.3716,25.8471 19.1766,27.0431 19.1766,28.5171 Z M19.3086,21.6631 C19.3086,23.0651 20.4446,24.2021 21.8466,24.2021 C23.2486,24.2021 24.3846,23.0651 24.3846,21.6631 C24.3846,20.2621 23.2486,19.1251 21.8466,19.1251 C20.4446,19.1251 19.3086,20.2621 19.3086,21.6631 Z M26.9206,62.7881 C26.9206,64.5391 28.3406,65.9591 30.0926,65.9591 C31.8436,65.9591 33.2636,64.5391 33.2636,62.7881 C33.2636,61.0371 31.8436,59.6171 30.0926,59.6171 C28.3406,59.6171 26.9206,61.0371 26.9206,62.7881 Z M27.0526,55.9341 C27.0526,57.6121 28.4136,58.9731 30.0926,58.9731 C31.7706,58.9731 33.1316,57.6121 33.1316,55.9341 C33.1316,54.2551 31.7706,52.8941 30.0926,52.8941 C28.4136,52.8941 27.0526,54.2551 27.0526,55.9341 Z M27.1846,49.0801 C27.1846,50.6851 28.4866,51.9871 30.0926,51.9871 C31.6976,51.9871 32.9996,50.6851 32.9996,49.0801 C32.9996,47.4741 31.6976,46.1721 30.0926,46.1721 C28.4866,46.1721 27.1846,47.4741 27.1846,49.0801 Z M27.3166,42.2261 C27.3166,43.7591 28.5596,45.0011 30.0926,45.0011 C31.6246,45.0011 32.8676,43.7591 32.8676,42.2261 C32.8676,40.6931 31.6246,39.4501 30.0926,39.4501 C28.5596,39.4501 27.3166,40.6931 27.3166,42.2261 Z M27.4486,35.3711 C27.4486,36.8311 28.6326,38.0151 30.0926,38.0151 C31.5526,38.0151 32.7356,36.8311 32.7356,35.3711 C32.7356,33.9121 31.5526,32.7281 30.0926,32.7281 C28.6326,32.7281 27.4486,33.9121 27.4486,35.3711 Z M27.5806,28.5171 C27.5806,29.9051 28.7046,31.0291 30.0926,31.0291 C31.4796,31.0291 32.6036,29.9051 32.6036,28.5171 C32.6036,27.1301 31.4796,26.0061 30.0926,26.0061 C28.7046,26.0061 27.5806,27.1301 27.5806,28.5171 Z M27.7126,21.6631 C27.7126,22.9781 28.7776,24.0431 30.0926,24.0431 C31.4066,24.0431 32.4726,22.9781 32.4726,21.6631 C32.4726,20.3501 31.4066,19.2841 30.0926,19.2841 C28.7776,19.2841 27.7126,20.3501 27.7126,21.6631 Z M35.3256,62.7881 C35.3256,64.4521 36.6746,65.8001 38.3376,65.8001 C40.0016,65.8001 41.3506,64.4521 41.3506,62.7881 C41.3506,61.1241 40.0016,59.7751 38.3376,59.7751 C36.6746,59.7751 35.3256,61.1241 35.3256,62.7881 Z M35.4576,55.9341 C35.4576,57.5251 36.7466,58.8141 38.3376,58.8141 C39.9286,58.8141 41.2186,57.5251 41.2186,55.9341 C41.2186,54.3431 39.9286,53.0531 38.3376,53.0531 C36.7466,53.0531 35.4576,54.3431 35.4576,55.9341 Z M35.5896,49.0801 C35.5896,50.5981 36.8196,51.8291 38.3376,51.8291 C39.8556,51.8291 41.0866,50.5981 41.0866,49.0801 C41.0866,47.5621 39.8556,46.3311 38.3376,46.3311 C36.8196,46.3311 35.5896,47.5621 35.5896,49.0801 Z M35.7216,42.2261 C35.7216,43.6711 36.8926,44.8431 38.3376,44.8431 C39.7836,44.8431 40.9546,43.6711 40.9546,42.2261 C40.9546,40.7811 39.7836,39.6091 38.3376,39.6091 C36.8926,39.6091 35.7216,40.7811 35.7216,42.2261 Z M35.8526,35.3711 C35.8526,36.7441 36.9656,37.8561 38.3376,37.8561 C39.7106,37.8561 40.8226,36.7441 40.8226,35.3711 C40.8226,33.9991 39.7106,32.8871 38.3376,32.8871 C36.9656,32.8871 35.8526,33.9991 35.8526,35.3711 Z M35.9846,28.5171 C35.9846,29.8171 37.0386,30.8711 38.3376,30.8711 C39.6376,30.8711 40.6906,29.8171 40.6906,28.5171 C40.6906,27.2181 39.6376,26.1641 38.3376,26.1641 C37.0386,26.1641 35.9846,27.2181 35.9846,28.5171 Z M36.1166,21.6631 C36.1166,22.8901 37.1116,23.8851 38.3376,23.8851 C39.5646,23.8851 40.5586,22.8901 40.5586,21.6631 C40.5586,20.4371 39.5646,19.4421 38.3376,19.4421 C37.1116,19.4421 36.1166,20.4371 36.1166,21.6631 Z M43.7296,62.7881 C43.7296,64.3641 45.0076,65.6421 46.5836,65.6421 C48.1596,65.6421 49.4376,64.3641 49.4376,62.7881 C49.4376,61.2121 48.1596,59.9341 46.5836,59.9341 C45.0076,59.9341 43.7296,61.2121 43.7296,62.7881 Z M43.8616,55.9341 C43.8616,57.4371 45.0806,58.6561 46.5836,58.6561 C48.0866,58.6561 49.3056,57.4371 49.3056,55.9341 C49.3056,54.4311 48.0866,53.2121 46.5836,53.2121 C45.0806,53.2121 43.8616,54.4311 43.8616,55.9341 Z M43.9936,49.0801 C43.9936,50.5101 45.1536,51.6701 46.5836,51.6701 C48.0146,51.6701 49.1736,50.5101 49.1736,49.0801 C49.1736,47.6491 48.0146,46.4901 46.5836,46.4901 C45.1536,46.4901 43.9936,47.6491 43.9936,49.0801 Z M44.1256,42.2261 C44.1256,43.5831 45.2256,44.6841 46.5836,44.6841 C47.9416,44.6841 49.0416,43.5831 49.0416,42.2261 C49.0416,40.8681 47.9416,39.7671 46.5836,39.7671 C45.2256,39.7671 44.1256,40.8681 44.1256,42.2261 Z M44.2576,35.3711 C44.2576,36.6571 45.2986,37.6981 46.5836,37.6981 C47.8686,37.6981 48.9096,36.6571 48.9096,35.3711 C48.9096,34.0871 47.8686,33.0451 46.5836,33.0451 C45.2986,33.0451 44.2576,34.0871 44.2576,35.3711 Z M44.3896,28.5171 C44.3896,29.7291 45.3716,30.7121 46.5836,30.7121 C47.7956,30.7121 48.7776,29.7291 48.7776,28.5171 C48.7776,27.3061 47.7956,26.3231 46.5836,26.3231 C45.3716,26.3231 44.3896,27.3061 44.3896,28.5171 Z M44.5206,21.6631 C44.5206,22.8031 45.4446,23.7261 46.5836,23.7261 C47.7226,23.7261 48.6456,22.8031 48.6456,21.6631 C48.6456,20.5241 47.7226,19.6011 46.5836,19.6011 C45.4446,19.6011 44.5206,20.5241 44.5206,21.6631 Z M52.1346,62.7881 C52.1346,64.2761 53.3406,65.4831 54.8296,65.4831 C56.3176,65.4831 57.5246,64.2761 57.5246,62.7881 C57.5246,61.2991 56.3176,60.0931 54.8296,60.0931 C53.3406,60.0931 52.1346,61.2991 52.1346,62.7881 Z M52.2666,55.9341 C52.2666,57.3501 53.4136,58.4971 54.8296,58.4971 C56.2456,58.4971 57.3926,57.3501 57.3926,55.9341 C57.3926,54.5181 56.2456,53.3711 54.8296,53.3711 C53.4136,53.3711 52.2666,54.5181 52.2666,55.9341 Z M52.3976,49.0801 C52.3976,50.4231 53.4866,51.5111 54.8296,51.5111 C56.1726,51.5111 57.2606,50.4231 57.2606,49.0801 C57.2606,47.7371 56.1726,46.6481 54.8296,46.6481 C53.4866,46.6481 52.3976,47.7371 52.3976,49.0801 Z M52.5296,42.2261 C52.5296,43.4961 53.5596,44.5251 54.8296,44.5251 C56.0996,44.5251 57.1286,43.4961 57.1286,42.2261 C57.1286,40.9561 56.0996,39.9261 54.8296,39.9261 C53.5596,39.9261 52.5296,40.9561 52.5296,42.2261 Z M52.6616,35.3711 C52.6616,36.5691 53.6326,37.5391 54.8296,37.5391 C56.0266,37.5391 56.9966,36.5691 56.9966,35.3711 C56.9966,34.1751 56.0266,33.2041 54.8296,33.2041 C53.6326,33.2041 52.6616,34.1751 52.6616,35.3711 Z M52.7936,28.5171 C52.7936,29.6421 53.7046,30.5531 54.8296,30.5531 C55.9536,30.5531 56.8656,29.6421 56.8656,28.5171 C56.8656,27.3931 55.9536,26.4821 54.8296,26.4821 C53.7046,26.4821 52.7936,27.3931 52.7936,28.5171 Z M52.9256,21.6631 C52.9256,22.7151 53.7776,23.5671 54.8296,23.5671 C55.8806,23.5671 56.7326,22.7151 56.7326,21.6631 C56.7326,20.6121 55.8806,19.7601 54.8296,19.7601 C53.7776,19.7601 52.9256,20.6121 52.9256,21.6631 Z M60.5386,62.7881 C60.5386,64.1891 61.6746,65.3241 63.0756,65.3241 C64.4756,65.3241 65.6116,64.1891 65.6116,62.7881 C65.6116,61.3871 64.4756,60.2511 63.0756,60.2511 C61.6746,60.2511 60.5386,61.3871 60.5386,62.7881 Z M60.6706,55.9341 C60.6706,57.2621 61.7466,58.3381 63.0756,58.3381 C64.4036,58.3381 65.4796,57.2621 65.4796,55.9341 C65.4796,54.6061 64.4036,53.5291 63.0756,53.5291 C61.7466,53.5291 60.6706,54.6061 60.6706,55.9341 Z M60.8026,49.0801 C60.8026,50.3351 61.8196,51.3521 63.0756,51.3521 C64.3296,51.3521 65.3476,50.3351 65.3476,49.0801 C65.3476,47.8251 64.3296,46.8071 63.0756,46.8071 C61.8196,46.8071 60.8026,47.8251 60.8026,49.0801 Z M60.9346,42.2261 C60.9346,43.4081 61.8926,44.3671 63.0756,44.3671 C64.2576,44.3671 65.2156,43.4081 65.2156,42.2261 C65.2156,41.0431 64.2576,40.0851 63.0756,40.0851 C61.8926,40.0851 60.9346,41.0431 60.9346,42.2261 Z M61.0666,35.3711 C61.0666,36.4811 61.9656,37.3811 63.0756,37.3811 C64.1846,37.3811 65.0836,36.4811 65.0836,35.3711 C65.0836,34.2621 64.1846,33.3631 63.0756,33.3631 C61.9656,33.3631 61.0666,34.2621 61.0666,35.3711 Z M61.1986,28.5171 C61.1986,29.5541 62.0386,30.3941 63.0756,30.3941 C64.1116,30.3941 64.9526,29.5541 64.9526,28.5171 C64.9526,27.4811 64.1116,26.6411 63.0756,26.6411 C62.0386,26.6411 61.1986,27.4811 61.1986,28.5171 Z M61.3296,21.6631 C61.3296,22.6271 62.1116,23.4091 63.0756,23.4091 C64.0386,23.4091 64.8206,22.6271 64.8206,21.6631 C64.8206,20.7001 64.0386,19.9181 63.0756,19.9181 C62.1116,19.9181 61.3296,20.7001 61.3296,21.6631 Z M68.9426,62.7881 C68.9426,64.1011 70.0076,65.1651 71.3206,65.1651 C72.6336,65.1651 73.6986,64.1011 73.6986,62.7881 C73.6986,61.4751 72.6336,60.4101 71.3206,60.4101 C70.0076,60.4101 68.9426,61.4751 68.9426,62.7881 Z M69.0746,55.9341 C69.0746,57.1741 70.0806,58.1801 71.3206,58.1801 C72.5606,58.1801 73.5666,57.1741 73.5666,55.9341 C73.5666,54.6931 72.5606,53.6881 71.3206,53.6881 C70.0806,53.6881 69.0746,54.6931 69.0746,55.9341 Z M69.2066,49.0801 C69.2066,50.2471 70.1536,51.1941 71.3206,51.1941 C72.4886,51.1941 73.4346,50.2471 73.4346,49.0801 C73.4346,47.9121 72.4886,46.9661 71.3206,46.9661 C70.1536,46.9661 69.2066,47.9121 69.2066,49.0801 Z M69.3386,42.2261 C69.3386,43.3201 70.2256,44.2081 71.3206,44.2081 C72.4156,44.2081 73.3026,43.3201 73.3026,42.2261 C73.3026,41.1311 72.4156,40.2441 71.3206,40.2441 C70.2256,40.2441 69.3386,41.1311 69.3386,42.2261 Z M69.4706,35.3711 C69.4706,36.3931 70.2986,37.2221 71.3206,37.2221 C72.3426,37.2221 73.1706,36.3931 73.1706,35.3711 C73.1706,34.3501 72.3426,33.5211 71.3206,33.5211 C70.2986,33.5211 69.4706,34.3501 69.4706,35.3711 Z M69.6026,28.5171 C69.6026,29.4671 70.3716,30.2361 71.3206,30.2361 C72.2696,30.2361 73.0386,29.4671 73.0386,28.5171 C73.0386,27.5691 72.2696,26.7991 71.3206,26.7991 C70.3716,26.7991 69.6026,27.5691 69.6026,28.5171 Z M69.7346,21.6631 C69.7346,22.5401 70.4446,23.2501 71.3206,23.2501 C72.1966,23.2501 72.9076,22.5401 72.9076,21.6631 C72.9076,20.7881 72.1966,20.0771 71.3206,20.0771 C70.4446,20.0771 69.7346,20.7881 69.7346,21.6631 Z M77.3476,62.7881 C77.3476,64.0141 78.3406,65.0071 79.5666,65.0071 C80.7916,65.0071 81.7856,64.0141 81.7856,62.7881 C81.7856,61.5621 80.7916,60.5691 79.5666,60.5691 C78.3406,60.5691 77.3476,61.5621 77.3476,62.7881 Z M77.4796,55.9341 C77.4796,57.0861 78.4136,58.0211 79.5666,58.0211 C80.7196,58.0211 81.6536,57.0861 81.6536,55.9341 C81.6536,54.7811 80.7196,53.8471 79.5666,53.8471 C78.4136,53.8471 77.4796,54.7811 77.4796,55.9341 Z M77.6116,49.0801 C77.6116,50.1601 78.4866,51.0351 79.5666,51.0351 C80.6466,51.0351 81.5216,50.1601 81.5216,49.0801 C81.5216,48.0001 80.6466,47.1241 79.5666,47.1241 C78.4866,47.1241 77.6116,48.0001 77.6116,49.0801 Z M77.7436,42.2261 C77.7436,43.2331 78.5596,44.0491 79.5666,44.0491 C80.5736,44.0491 81.3906,43.2331 81.3906,42.2261 C81.3906,41.2191 80.5736,40.4021 79.5666,40.4021 C78.5596,40.4021 77.7436,41.2191 77.7436,42.2261 Z M77.8746,35.3711 C77.8746,36.3061 78.6326,37.0631 79.5666,37.0631 C80.5006,37.0631 81.2576,36.3061 81.2576,35.3711 C81.2576,34.4371 80.5006,33.6801 79.5666,33.6801 C78.6326,33.6801 77.8746,34.4371 77.8746,35.3711 Z M78.0066,28.5171 C78.0066,29.3791 78.7046,30.0771 79.5666,30.0771 C80.4276,30.0771 81.1256,29.3791 81.1256,28.5171 C81.1256,27.6561 80.4276,26.9581 79.5666,26.9581 C78.7046,26.9581 78.0066,27.6561 78.0066,28.5171 Z M78.1386,21.6631 C78.1386,22.4521 78.7776,23.0911 79.5666,23.0911 C80.3546,23.0911 80.9946,22.4521 80.9946,21.6631 C80.9946,20.8751 80.3546,20.2361 79.5666,20.2361 C78.7776,20.2361 78.1386,20.8751 78.1386,21.6631 Z M85.7516,62.7881 C85.7516,63.9261 86.6746,64.8481 87.8116,64.8481 C88.9506,64.8481 89.8726,63.9261 89.8726,62.7881 C89.8726,61.6501 88.9506,60.7271 87.8116,60.7271 C86.6746,60.7271 85.7516,61.6501 85.7516,62.7881 Z M85.8836,55.9341 C85.8836,56.9991 86.7466,57.8621 87.8116,57.8621 C88.8776,57.8621 89.7406,56.9991 89.7406,55.9341 C89.7406,54.8691 88.8776,54.0051 87.8116,54.0051 C86.7466,54.0051 85.8836,54.8691 85.8836,55.9341 Z M86.0156,49.0801 C86.0156,50.0721 86.8196,50.8761 87.8116,50.8761 C88.8046,50.8761 89.6086,50.0721 89.6086,49.0801 C89.6086,48.0871 88.8046,47.2831 87.8116,47.2831 C86.8196,47.2831 86.0156,48.0871 86.0156,49.0801 Z M86.1476,42.2261 C86.1476,43.1451 86.8926,43.8911 87.8116,43.8911 C88.7316,43.8911 89.4766,43.1451 89.4766,42.2261 C89.4766,41.3061 88.7316,40.5611 87.8116,40.5611 C86.8926,40.5611 86.1476,41.3061 86.1476,42.2261 Z M86.2796,35.3711 C86.2796,36.2181 86.9656,36.9051 87.8116,36.9051 C88.6586,36.9051 89.3456,36.2181 89.3456,35.3711 C89.3456,34.5251 88.6586,33.8391 87.8116,33.8391 C86.9656,33.8391 86.2796,34.5251 86.2796,35.3711 Z M86.4116,28.5171 C86.4116,29.2911 87.0386,29.9181 87.8116,29.9181 C88.5856,29.9181 89.2136,29.2911 89.2136,28.5171 C89.2136,27.7441 88.5856,27.1171 87.8116,27.1171 C87.0386,27.1171 86.4116,27.7441 86.4116,28.5171 Z M86.5426,21.6631 C86.5426,22.3651 87.1116,22.9331 87.8116,22.9331 C88.5136,22.9331 89.0816,22.3651 89.0816,21.6631 C89.0816,20.9631 88.5136,20.3941 87.8116,20.3941 C87.1116,20.3941 86.5426,20.9631 86.5426,21.6631 Z M94.1566,62.7881 C94.1566,63.8381 95.0076,64.6891 96.0586,64.6891 C97.1086,64.6891 97.9596,63.8381 97.9596,62.7881 C97.9596,61.7381 97.1086,60.8861 96.0586,60.8861 C95.0076,60.8861 94.1566,61.7381 94.1566,62.7881 Z M94.2876,55.9341 C94.2876,56.9111 95.0806,57.7041 96.0586,57.7041 C97.0356,57.7041 97.8276,56.9111 97.8276,55.9341 C97.8276,54.9561 97.0356,54.1641 96.0586,54.1641 C95.0806,54.1641 94.2876,54.9561 94.2876,55.9341 Z M94.4196,49.0801 C94.4196,49.9841 95.1536,50.7181 96.0586,50.7181 C96.9626,50.7181 97.6956,49.9841 97.6956,49.0801 C97.6956,48.1751 96.9626,47.4421 96.0586,47.4421 C95.1536,47.4421 94.4196,48.1751 94.4196,49.0801 Z M94.5516,42.2261 C94.5516,43.0581 95.2256,43.7321 96.0586,43.7321 C96.8896,43.7321 97.5636,43.0581 97.5636,42.2261 C97.5636,41.3941 96.8896,40.7201 96.0586,40.7201 C95.2256,40.7201 94.5516,41.3941 94.5516,42.2261 Z M94.6836,35.3711 C94.6836,36.1311 95.2986,36.7461 96.0586,36.7461 C96.8166,36.7461 97.4326,36.1311 97.4326,35.3711 C97.4326,34.6131 96.8166,33.9971 96.0586,33.9971 C95.2986,33.9971 94.6836,34.6131 94.6836,35.3711 Z M94.8156,28.5171 C94.8156,29.2041 95.3716,29.7601 96.0586,29.7601 C96.7446,29.7601 97.3006,29.2041 97.3006,28.5171 C97.3006,27.8311 96.7446,27.2751 96.0586,27.2751 C95.3716,27.2751 94.8156,27.8311 94.8156,28.5171 Z M94.9476,21.6631 C94.9476,22.2771 95.4446,22.7741 96.0586,22.7741 C96.6716,22.7741 97.1686,22.2771 97.1686,21.6631 C97.1686,21.0501 96.6716,20.5531 96.0586,20.5531 C95.4446,20.5531 94.9476,21.0501 94.9476,21.6631 Z M102.5606,62.7881 C102.5606,63.7501 103.3406,64.5311 104.3036,64.5311 C105.2666,64.5311 106.0466,63.7501 106.0466,62.7881 C106.0466,61.8251 105.2666,61.0451 104.3036,61.0451 C103.3406,61.0451 102.5606,61.8251 102.5606,62.7881 Z M102.6926,55.9341 C102.6926,56.8241 103.4136,57.5451 104.3036,57.5451 C105.1936,57.5451 105.9146,56.8241 105.9146,55.9341 C105.9146,55.0441 105.1936,54.3231 104.3036,54.3231 C103.4136,54.3231 102.6926,55.0441 102.6926,55.9341 Z M102.8246,49.0801 C102.8246,49.8971 103.4866,50.5591 104.3036,50.5591 C105.1206,50.5591 105.7836,49.8971 105.7836,49.0801 C105.7836,48.2631 105.1206,47.6001 104.3036,47.6001 C103.4866,47.6001 102.8246,48.2631 102.8246,49.0801 Z M102.9556,42.2261 C102.9556,42.9701 103.5596,43.5731 104.3036,43.5731 C105.0476,43.5731 105.6506,42.9701 105.6506,42.2261 C105.6506,41.4811 105.0476,40.8781 104.3036,40.8781 C103.5596,40.8781 102.9556,41.4811 102.9556,42.2261 Z M103.0886,35.3711 C103.0886,36.0431 103.6326,36.5871 104.3036,36.5871 C104.9746,36.5871 105.5186,36.0431 105.5186,35.3711 C105.5186,34.7011 104.9746,34.1561 104.3036,34.1561 C103.6326,34.1561 103.0886,34.7011 103.0886,35.3711 Z M103.2206,28.5171 C103.2206,29.1161 103.7046,29.6011 104.3036,29.6011 C104.9026,29.6011 105.3876,29.1161 105.3876,28.5171 C105.3876,27.9191 104.9026,27.4341 104.3036,27.4341 C103.7046,27.4341 103.2206,27.9191 103.2206,28.5171 Z M103.3516,21.6631 C103.3516,22.1891 103.7776,22.6151 104.3036,22.6151 C104.8296,22.6151 105.2556,22.1891 105.2556,21.6631 C105.2556,21.1381 104.8296,20.7121 104.3036,20.7121 C103.7776,20.7121 103.3516,21.1381 103.3516,21.6631 Z M110.9646,62.7881 C110.9646,63.6631 111.6746,64.3721 112.5496,64.3721 C113.4246,64.3721 114.1336,63.6631 114.1336,62.7881 C114.1336,61.9131 113.4246,61.2041 112.5496,61.2041 C111.6746,61.2041 110.9646,61.9131 110.9646,62.7881 Z M111.0966,55.9341 C111.0966,56.7361 111.7466,57.3861 112.5496,57.3861 C113.3516,57.3861 114.0016,56.7361 114.0016,55.9341 C114.0016,55.1321 113.3516,54.4811 112.5496,54.4811 C111.7466,54.4811 111.0966,55.1321 111.0966,55.9341 Z M111.2286,49.0801 C111.2286,49.8091 111.8196,50.4001 112.5496,50.4001 C113.2786,50.4001 113.8706,49.8091 113.8706,49.0801 C113.8706,48.3501 113.2786,47.7591 112.5496,47.7591 C111.8196,47.7591 111.2286,48.3501 111.2286,49.0801 Z M111.3606,42.2261 C111.3606,42.8821 111.8926,43.4141 112.5496,43.4141 C113.2056,43.4141 113.7386,42.8821 113.7386,42.2261 C113.7386,41.5691 113.2056,41.0371 112.5496,41.0371 C111.8926,41.0371 111.3606,41.5691 111.3606,42.2261 Z M111.4926,35.3711 C111.4926,35.9551 111.9656,36.4291 112.5496,36.4291 C113.1336,36.4291 113.6066,35.9551 113.6066,35.3711 C113.6066,34.7881 113.1336,34.3151 112.5496,34.3151 C111.9656,34.3151 111.4926,34.7881 111.4926,35.3711 Z M111.6246,28.5171 C111.6246,29.0281 112.0386,29.4431 112.5496,29.4431 C113.0596,29.4431 113.4746,29.0281 113.4746,28.5171 C113.4746,28.0071 113.0596,27.5931 112.5496,27.5931 C112.0386,27.5931 111.6246,28.0071 111.6246,28.5171 Z M111.7566,21.6631 C111.7566,22.1011 112.1116,22.4561 112.5496,22.4561 C112.9876,22.4561 113.3426,22.1011 113.3426,21.6631 C113.3426,21.2251 112.9876,20.8711 112.5496,20.8711 C112.1116,20.8711 111.7566,21.2251 111.7566,21.6631 Z M119.3696,62.7881 C119.3696,63.5751 120.0076,64.2141 120.7946,64.2141 C121.5826,64.2141 122.2206,63.5751 122.2206,62.7881 C122.2206,62.0001 121.5826,61.3621 120.7946,61.3621 C120.0076,61.3621 119.3696,62.0001 119.3696,62.7881 Z M119.5016,55.9341 C119.5016,56.6481 120.0806,57.2271 120.7946,57.2271 C121.5096,57.2271 122.0886,56.6481 122.0886,55.9341 C122.0886,55.2191 121.5096,54.6401 120.7946,54.6401 C120.0806,54.6401 119.5016,55.2191 119.5016,55.9341 Z M119.6336,49.0801 C119.6336,49.7221 120.1536,50.2421 120.7946,50.2421 C121.4366,50.2421 121.9566,49.7221 121.9566,49.0801 C121.9566,48.4381 121.4366,47.9181 120.7946,47.9181 C120.1536,47.9181 119.6336,48.4381 119.6336,49.0801 Z M119.7656,42.2261 C119.7656,42.7951 120.2256,43.2561 120.7946,43.2561 C121.3636,43.2561 121.8256,42.7951 121.8256,42.2261 C121.8256,41.6571 121.3636,41.1961 120.7946,41.1961 C120.2256,41.1961 119.7656,41.6571 119.7656,42.2261 Z M119.8966,35.3711 C119.8966,35.8681 120.2996,36.2701 120.7946,36.2701 C121.2906,36.2701 121.6936,35.8681 121.6936,35.3711 C121.6936,34.8751 121.2906,34.4741 120.7946,34.4741 C120.2996,34.4741 119.8966,34.8751 119.8966,35.3711 Z M120.0286,28.5171 C120.0286,28.9411 120.3716,29.2841 120.7946,29.2841 C121.2186,29.2841 121.5616,28.9411 121.5616,28.5171 C121.5616,28.0951 121.2186,27.7511 120.7946,27.7511 C120.3716,27.7511 120.0286,28.0951 120.0286,28.5171 Z M120.1606,21.6631 C120.1606,22.0141 120.4446,22.2981 120.7946,22.2981 C121.1456,22.2981 121.4296,22.0141 121.4296,21.6631 C121.4296,21.3131 121.1456,21.0291 120.7946,21.0291 C120.4446,21.0291 120.1606,21.3131 120.1606,21.6631 Z M127.7736,62.7881 C127.7736,63.4881 128.3416,64.0551 129.0406,64.0551 C129.7406,64.0551 130.3086,63.4881 130.3086,62.7881 C130.3086,62.0881 129.7406,61.5211 129.0406,61.5211 C128.3416,61.5211 127.7736,62.0881 127.7736,62.7881 Z M127.9056,55.9341 C127.9056,56.5611 128.4136,57.0691 129.0406,57.0691 C129.6676,57.0691 130.1756,56.5611 130.1756,55.9341 C130.1756,55.3071 129.6676,54.7991 129.0406,54.7991 C128.4136,54.7991 127.9056,55.3071 127.9056,55.9341 Z M128.0376,49.0801 C128.0376,49.6341 128.4866,50.0831 129.0406,50.0831 C129.5946,50.0831 130.0436,49.6341 130.0436,49.0801 C130.0436,48.5261 129.5946,48.0771 129.0406,48.0771 C128.4866,48.0771 128.0376,48.5261 128.0376,49.0801 Z M128.1696,42.2261 C128.1696,42.7071 128.5596,43.0971 129.0406,43.0971 C129.5216,43.0971 129.9126,42.7071 129.9126,42.2261 C129.9126,41.7451 129.5216,41.3541 129.0406,41.3541 C128.5596,41.3541 128.1696,41.7451 128.1696,42.2261 Z M128.3016,35.3711 C128.3016,35.7801 128.6326,36.1111 129.0406,36.1111 C129.4496,36.1111 129.7806,35.7801 129.7806,35.3711 C129.7806,34.9631 129.4496,34.6321 129.0406,34.6321 C128.6326,34.6321 128.3016,34.9631 128.3016,35.3711 Z M128.4336,28.5171 C128.4336,28.8531 128.7046,29.1251 129.0406,29.1251 C129.3766,29.1251 129.6486,28.8531 129.6486,28.5171 C129.6486,28.1821 129.3766,27.9101 129.0406,27.9101 C128.7046,27.9101 128.4336,28.1821 128.4336,28.5171 Z M128.5646,21.6631 C128.5646,21.9261 128.7786,22.1391 129.0406,22.1391 C129.3036,22.1391 129.5166,21.9261 129.5166,21.6631 C129.5166,21.4011 129.3036,21.1881 129.0406,21.1881 C128.7786,21.1881 128.5646,21.4011 128.5646,21.6631 Z M14.7106,67.9261 L14.7106,16.5281 C14.7106,15.4241 15.6066,14.5281 16.7106,14.5281 L134.1826,14.5281 C135.2876,14.5281 136.1826,15.4241 136.1826,16.5281 L136.1826,67.9261 C136.1826,69.0311 135.2876,69.9261 134.1826,69.9261 L16.7106,69.9261 C15.6066,69.9261 14.7106,69.0311 14.7106,67.9261 Z" id="Stroke-183" stroke="#000000" stroke-linecap="round" stroke-linejoin="round"></path>
                <path d="M18.5166,62.7881 C18.5166,64.6271 20.0076,66.1181 21.8466,66.1181 C23.6856,66.1181 25.1766,64.6271 25.1766,62.7881 C25.1766,60.9491 23.6856,59.4581 21.8466,59.4581 C20.0076,59.4581 18.5166,60.9491 18.5166,62.7881 M18.6486,55.9341 C18.6486,57.7001 20.0806,59.1321 21.8466,59.1321 C23.6126,59.1321 25.0446,57.7001 25.0446,55.9341 C25.0446,54.1671 23.6126,52.7361 21.8466,52.7361 C20.0806,52.7361 18.6486,54.1671 18.6486,55.9341 M18.7806,49.0801 C18.7806,50.7731 20.1536,52.1461 21.8466,52.1461 C23.5396,52.1461 24.9126,50.7731 24.9126,49.0801 C24.9126,47.3871 23.5396,46.0141 21.8466,46.0141 C20.1536,46.0141 18.7806,47.3871 18.7806,49.0801 M18.9126,42.2261 C18.9126,43.8461 20.2256,45.1601 21.8466,45.1601 C23.4666,45.1601 24.7806,43.8461 24.7806,42.2261 C24.7806,40.6051 23.4666,39.2911 21.8466,39.2911 C20.2256,39.2911 18.9126,40.6051 18.9126,42.2261 M19.0446,35.3711 C19.0446,36.9191 20.2986,38.1741 21.8466,38.1741 C23.3936,38.1741 24.6486,36.9191 24.6486,35.3711 C24.6486,33.8241 23.3936,32.5691 21.8466,32.5691 C20.2986,32.5691 19.0446,33.8241 19.0446,35.3711 M19.1766,28.5171 C19.1766,29.9931 20.3716,31.1881 21.8466,31.1881 C23.3216,31.1881 24.5166,29.9931 24.5166,28.5171 C24.5166,27.0431 23.3216,25.8471 21.8466,25.8471 C20.3716,25.8471 19.1766,27.0431 19.1766,28.5171 M19.3086,21.6631 C19.3086,23.0651 20.4446,24.2021 21.8466,24.2021 C23.2486,24.2021 24.3846,23.0651 24.3846,21.6631 C24.3846,20.2621 23.2486,19.1251 21.8466,19.1251 C20.4446,19.1251 19.3086,20.2621 19.3086,21.6631 M26.9206,62.7881 C26.9206,64.5391 28.3406,65.9591 30.0926,65.9591 C31.8436,65.9591 33.2636,64.5391 33.2636,62.7881 C33.2636,61.0371 31.8436,59.6171 30.0926,59.6171 C28.3406,59.6171 26.9206,61.0371 26.9206,62.7881 M27.0526,55.9341 C27.0526,57.6121 28.4136,58.9731 30.0926,58.9731 C31.7706,58.9731 33.1316,57.6121 33.1316,55.9341 C33.1316,54.2551 31.7706,52.8941 30.0926,52.8941 C28.4136,52.8941 27.0526,54.2551 27.0526,55.9341 M27.1846,49.0801 C27.1846,50.6851 28.4866,51.9871 30.0926,51.9871 C31.6976,51.9871 32.9996,50.6851 32.9996,49.0801 C32.9996,47.4741 31.6976,46.1721 30.0926,46.1721 C28.4866,46.1721 27.1846,47.4741 27.1846,49.0801 M27.3166,42.2261 C27.3166,43.7591 28.5596,45.0011 30.0926,45.0011 C31.6246,45.0011 32.8676,43.7591 32.8676,42.2261 C32.8676,40.6931 31.6246,39.4501 30.0926,39.4501 C28.5596,39.4501 27.3166,40.6931 27.3166,42.2261 M27.4486,35.3711 C27.4486,36.8311 28.6326,38.0151 30.0926,38.0151 C31.5526,38.0151 32.7356,36.8311 32.7356,35.3711 C32.7356,33.9121 31.5526,32.7281 30.0926,32.7281 C28.6326,32.7281 27.4486,33.9121 27.4486,35.3711 M27.5806,28.5171 C27.5806,29.9051 28.7046,31.0291 30.0926,31.0291 C31.4796,31.0291 32.6036,29.9051 32.6036,28.5171 C32.6036,27.1301 31.4796,26.0061 30.0926,26.0061 C28.7046,26.0061 27.5806,27.1301 27.5806,28.5171 M27.7126,21.6631 C27.7126,22.9781 28.7776,24.0431 30.0926,24.0431 C31.4066,24.0431 32.4726,22.9781 32.4726,21.6631 C32.4726,20.3501 31.4066,19.2841 30.0926,19.2841 C28.7776,19.2841 27.7126,20.3501 27.7126,21.6631 M35.3256,62.7881 C35.3256,64.4521 36.6746,65.8001 38.3376,65.8001 C40.0016,65.8001 41.3506,64.4521 41.3506,62.7881 C41.3506,61.1241 40.0016,59.7751 38.3376,59.7751 C36.6746,59.7751 35.3256,61.1241 35.3256,62.7881 M35.4576,55.9341 C35.4576,57.5251 36.7466,58.8141 38.3376,58.8141 C39.9286,58.8141 41.2186,57.5251 41.2186,55.9341 C41.2186,54.3431 39.9286,53.0531 38.3376,53.0531 C36.7466,53.0531 35.4576,54.3431 35.4576,55.9341 M35.5896,49.0801 C35.5896,50.5981 36.8196,51.8291 38.3376,51.8291 C39.8556,51.8291 41.0866,50.5981 41.0866,49.0801 C41.0866,47.5621 39.8556,46.3311 38.3376,46.3311 C36.8196,46.3311 35.5896,47.5621 35.5896,49.0801 M35.7216,42.2261 C35.7216,43.6711 36.8926,44.8431 38.3376,44.8431 C39.7836,44.8431 40.9546,43.6711 40.9546,42.2261 C40.9546,40.7811 39.7836,39.6091 38.3376,39.6091 C36.8926,39.6091 35.7216,40.7811 35.7216,42.2261 M35.8526,35.3711 C35.8526,36.7441 36.9656,37.8561 38.3376,37.8561 C39.7106,37.8561 40.8226,36.7441 40.8226,35.3711 C40.8226,33.9991 39.7106,32.8871 38.3376,32.8871 C36.9656,32.8871 35.8526,33.9991 35.8526,35.3711 M35.9846,28.5171 C35.9846,29.8171 37.0386,30.8711 38.3376,30.8711 C39.6376,30.8711 40.6906,29.8171 40.6906,28.5171 C40.6906,27.2181 39.6376,26.1641 38.3376,26.1641 C37.0386,26.1641 35.9846,27.2181 35.9846,28.5171 M36.1166,21.6631 C36.1166,22.8901 37.1116,23.8851 38.3376,23.8851 C39.5646,23.8851 40.5586,22.8901 40.5586,21.6631 C40.5586,20.4371 39.5646,19.4421 38.3376,19.4421 C37.1116,19.4421 36.1166,20.4371 36.1166,21.6631 M43.7296,62.7881 C43.7296,64.3641 45.0076,65.6421 46.5836,65.6421 C48.1596,65.6421 49.4376,64.3641 49.4376,62.7881 C49.4376,61.2121 48.1596,59.9341 46.5836,59.9341 C45.0076,59.9341 43.7296,61.2121 43.7296,62.7881 M43.8616,55.9341 C43.8616,57.4371 45.0806,58.6561 46.5836,58.6561 C48.0866,58.6561 49.3056,57.4371 49.3056,55.9341 C49.3056,54.4311 48.0866,53.2121 46.5836,53.2121 C45.0806,53.2121 43.8616,54.4311 43.8616,55.9341 M43.9936,49.0801 C43.9936,50.5101 45.1536,51.6701 46.5836,51.6701 C48.0146,51.6701 49.1736,50.5101 49.1736,49.0801 C49.1736,47.6491 48.0146,46.4901 46.5836,46.4901 C45.1536,46.4901 43.9936,47.6491 43.9936,49.0801 M44.1256,42.2261 C44.1256,43.5831 45.2256,44.6841 46.5836,44.6841 C47.9416,44.6841 49.0416,43.5831 49.0416,42.2261 C49.0416,40.8681 47.9416,39.7671 46.5836,39.7671 C45.2256,39.7671 44.1256,40.8681 44.1256,42.2261 M44.2576,35.3711 C44.2576,36.6571 45.2986,37.6981 46.5836,37.6981 C47.8686,37.6981 48.9096,36.6571 48.9096,35.3711 C48.9096,34.0871 47.8686,33.0451 46.5836,33.0451 C45.2986,33.0451 44.2576,34.0871 44.2576,35.3711 M44.3896,28.5171 C44.3896,29.7291 45.3716,30.7121 46.5836,30.7121 C47.7956,30.7121 48.7776,29.7291 48.7776,28.5171 C48.7776,27.3061 47.7956,26.3231 46.5836,26.3231 C45.3716,26.3231 44.3896,27.3061 44.3896,28.5171 M44.5206,21.6631 C44.5206,22.8031 45.4446,23.7261 46.5836,23.7261 C47.7226,23.7261 48.6456,22.8031 48.6456,21.6631 C48.6456,20.5241 47.7226,19.6011 46.5836,19.6011 C45.4446,19.6011 44.5206,20.5241 44.5206,21.6631 M52.1346,62.7881 C52.1346,64.2761 53.3406,65.4831 54.8296,65.4831 C56.3176,65.4831 57.5246,64.2761 57.5246,62.7881 C57.5246,61.2991 56.3176,60.0931 54.8296,60.0931 C53.3406,60.0931 52.1346,61.2991 52.1346,62.7881 M52.2666,55.9341 C52.2666,57.3501 53.4136,58.4971 54.8296,58.4971 C56.2456,58.4971 57.3926,57.3501 57.3926,55.9341 C57.3926,54.5181 56.2456,53.3711 54.8296,53.3711 C53.4136,53.3711 52.2666,54.5181 52.2666,55.9341 M52.3976,49.0801 C52.3976,50.4231 53.4866,51.5111 54.8296,51.5111 C56.1726,51.5111 57.2606,50.4231 57.2606,49.0801 C57.2606,47.7371 56.1726,46.6481 54.8296,46.6481 C53.4866,46.6481 52.3976,47.7371 52.3976,49.0801 M52.5296,42.2261 C52.5296,43.4961 53.5596,44.5251 54.8296,44.5251 C56.0996,44.5251 57.1286,43.4961 57.1286,42.2261 C57.1286,40.9561 56.0996,39.9261 54.8296,39.9261 C53.5596,39.9261 52.5296,40.9561 52.5296,42.2261 M52.6616,35.3711 C52.6616,36.5691 53.6326,37.5391 54.8296,37.5391 C56.0266,37.5391 56.9966,36.5691 56.9966,35.3711 C56.9966,34.1751 56.0266,33.2041 54.8296,33.2041 C53.6326,33.2041 52.6616,34.1751 52.6616,35.3711 M52.7936,28.5171 C52.7936,29.6421 53.7046,30.5531 54.8296,30.5531 C55.9536,30.5531 56.8656,29.6421 56.8656,28.5171 C56.8656,27.3931 55.9536,26.4821 54.8296,26.4821 C53.7046,26.4821 52.7936,27.3931 52.7936,28.5171 M52.9256,21.6631 C52.9256,22.7151 53.7776,23.5671 54.8296,23.5671 C55.8806,23.5671 56.7326,22.7151 56.7326,21.6631 C56.7326,20.6121 55.8806,19.7601 54.8296,19.7601 C53.7776,19.7601 52.9256,20.6121 52.9256,21.6631 M60.5386,62.7881 C60.5386,64.1891 61.6746,65.3241 63.0756,65.3241 C64.4756,65.3241 65.6116,64.1891 65.6116,62.7881 C65.6116,61.3871 64.4756,60.2511 63.0756,60.2511 C61.6746,60.2511 60.5386,61.3871 60.5386,62.7881 M60.6706,55.9341 C60.6706,57.2621 61.7466,58.3381 63.0756,58.3381 C64.4036,58.3381 65.4796,57.2621 65.4796,55.9341 C65.4796,54.6061 64.4036,53.5291 63.0756,53.5291 C61.7466,53.5291 60.6706,54.6061 60.6706,55.9341 M60.8026,49.0801 C60.8026,50.3351 61.8196,51.3521 63.0756,51.3521 C64.3296,51.3521 65.3476,50.3351 65.3476,49.0801 C65.3476,47.8251 64.3296,46.8071 63.0756,46.8071 C61.8196,46.8071 60.8026,47.8251 60.8026,49.0801 M60.9346,42.2261 C60.9346,43.4081 61.8926,44.3671 63.0756,44.3671 C64.2576,44.3671 65.2156,43.4081 65.2156,42.2261 C65.2156,41.0431 64.2576,40.0851 63.0756,40.0851 C61.8926,40.0851 60.9346,41.0431 60.9346,42.2261 M61.0666,35.3711 C61.0666,36.4811 61.9656,37.3811 63.0756,37.3811 C64.1846,37.3811 65.0836,36.4811 65.0836,35.3711 C65.0836,34.2621 64.1846,33.3631 63.0756,33.3631 C61.9656,33.3631 61.0666,34.2621 61.0666,35.3711 M61.1986,28.5171 C61.1986,29.5541 62.0386,30.3941 63.0756,30.3941 C64.1116,30.3941 64.9526,29.5541 64.9526,28.5171 C64.9526,27.4811 64.1116,26.6411 63.0756,26.6411 C62.0386,26.6411 61.1986,27.4811 61.1986,28.5171 M61.3296,21.6631 C61.3296,22.6271 62.1116,23.4091 63.0756,23.4091 C64.0386,23.4091 64.8206,22.6271 64.8206,21.6631 C64.8206,20.7001 64.0386,19.9181 63.0756,19.9181 C62.1116,19.9181 61.3296,20.7001 61.3296,21.6631 M68.9426,62.7881 C68.9426,64.1011 70.0076,65.1651 71.3206,65.1651 C72.6336,65.1651 73.6986,64.1011 73.6986,62.7881 C73.6986,61.4751 72.6336,60.4101 71.3206,60.4101 C70.0076,60.4101 68.9426,61.4751 68.9426,62.7881 M69.0746,55.9341 C69.0746,57.1741 70.0806,58.1801 71.3206,58.1801 C72.5606,58.1801 73.5666,57.1741 73.5666,55.9341 C73.5666,54.6931 72.5606,53.6881 71.3206,53.6881 C70.0806,53.6881 69.0746,54.6931 69.0746,55.9341 M69.2066,49.0801 C69.2066,50.2471 70.1536,51.1941 71.3206,51.1941 C72.4886,51.1941 73.4346,50.2471 73.4346,49.0801 C73.4346,47.9121 72.4886,46.9661 71.3206,46.9661 C70.1536,46.9661 69.2066,47.9121 69.2066,49.0801 M69.3386,42.2261 C69.3386,43.3201 70.2256,44.2081 71.3206,44.2081 C72.4156,44.2081 73.3026,43.3201 73.3026,42.2261 C73.3026,41.1311 72.4156,40.2441 71.3206,40.2441 C70.2256,40.2441 69.3386,41.1311 69.3386,42.2261 M69.4706,35.3711 C69.4706,36.3931 70.2986,37.2221 71.3206,37.2221 C72.3426,37.2221 73.1706,36.3931 73.1706,35.3711 C73.1706,34.3501 72.3426,33.5211 71.3206,33.5211 C70.2986,33.5211 69.4706,34.3501 69.4706,35.3711 M69.6026,28.5171 C69.6026,29.4671 70.3716,30.2361 71.3206,30.2361 C72.2696,30.2361 73.0386,29.4671 73.0386,28.5171 C73.0386,27.5691 72.2696,26.7991 71.3206,26.7991 C70.3716,26.7991 69.6026,27.5691 69.6026,28.5171 M69.7346,21.6631 C69.7346,22.5401 70.4446,23.2501 71.3206,23.2501 C72.1966,23.2501 72.9076,22.5401 72.9076,21.6631 C72.9076,20.7881 72.1966,20.0771 71.3206,20.0771 C70.4446,20.0771 69.7346,20.7881 69.7346,21.6631 M77.3476,62.7881 C77.3476,64.0141 78.3406,65.0071 79.5666,65.0071 C80.7916,65.0071 81.7856,64.0141 81.7856,62.7881 C81.7856,61.5621 80.7916,60.5691 79.5666,60.5691 C78.3406,60.5691 77.3476,61.5621 77.3476,62.7881 M77.4796,55.9341 C77.4796,57.0861 78.4136,58.0211 79.5666,58.0211 C80.7196,58.0211 81.6536,57.0861 81.6536,55.9341 C81.6536,54.7811 80.7196,53.8471 79.5666,53.8471 C78.4136,53.8471 77.4796,54.7811 77.4796,55.9341 M77.6116,49.0801 C77.6116,50.1601 78.4866,51.0351 79.5666,51.0351 C80.6466,51.0351 81.5216,50.1601 81.5216,49.0801 C81.5216,48.0001 80.6466,47.1241 79.5666,47.1241 C78.4866,47.1241 77.6116,48.0001 77.6116,49.0801 M77.7436,42.2261 C77.7436,43.2331 78.5596,44.0491 79.5666,44.0491 C80.5736,44.0491 81.3906,43.2331 81.3906,42.2261 C81.3906,41.2191 80.5736,40.4021 79.5666,40.4021 C78.5596,40.4021 77.7436,41.2191 77.7436,42.2261 M77.8746,35.3711 C77.8746,36.3061 78.6326,37.0631 79.5666,37.0631 C80.5006,37.0631 81.2576,36.3061 81.2576,35.3711 C81.2576,34.4371 80.5006,33.6801 79.5666,33.6801 C78.6326,33.6801 77.8746,34.4371 77.8746,35.3711 M78.0066,28.5171 C78.0066,29.3791 78.7046,30.0771 79.5666,30.0771 C80.4276,30.0771 81.1256,29.3791 81.1256,28.5171 C81.1256,27.6561 80.4276,26.9581 79.5666,26.9581 C78.7046,26.9581 78.0066,27.6561 78.0066,28.5171 M78.1386,21.6631 C78.1386,22.4521 78.7776,23.0911 79.5666,23.0911 C80.3546,23.0911 80.9946,22.4521 80.9946,21.6631 C80.9946,20.8751 80.3546,20.2361 79.5666,20.2361 C78.7776,20.2361 78.1386,20.8751 78.1386,21.6631 M85.7516,62.7881 C85.7516,63.9261 86.6746,64.8481 87.8116,64.8481 C88.9506,64.8481 89.8726,63.9261 89.8726,62.7881 C89.8726,61.6501 88.9506,60.7271 87.8116,60.7271 C86.6746,60.7271 85.7516,61.6501 85.7516,62.7881 M85.8836,55.9341 C85.8836,56.9991 86.7466,57.8621 87.8116,57.8621 C88.8776,57.8621 89.7406,56.9991 89.7406,55.9341 C89.7406,54.8691 88.8776,54.0051 87.8116,54.0051 C86.7466,54.0051 85.8836,54.8691 85.8836,55.9341 M86.0156,49.0801 C86.0156,50.0721 86.8196,50.8761 87.8116,50.8761 C88.8046,50.8761 89.6086,50.0721 89.6086,49.0801 C89.6086,48.0871 88.8046,47.2831 87.8116,47.2831 C86.8196,47.2831 86.0156,48.0871 86.0156,49.0801 M86.1476,42.2261 C86.1476,43.1451 86.8926,43.8911 87.8116,43.8911 C88.7316,43.8911 89.4766,43.1451 89.4766,42.2261 C89.4766,41.3061 88.7316,40.5611 87.8116,40.5611 C86.8926,40.5611 86.1476,41.3061 86.1476,42.2261 M86.2796,35.3711 C86.2796,36.2181 86.9656,36.9051 87.8116,36.9051 C88.6586,36.9051 89.3456,36.2181 89.3456,35.3711 C89.3456,34.5251 88.6586,33.8391 87.8116,33.8391 C86.9656,33.8391 86.2796,34.5251 86.2796,35.3711 M86.4116,28.5171 C86.4116,29.2911 87.0386,29.9181 87.8116,29.9181 C88.5856,29.9181 89.2136,29.2911 89.2136,28.5171 C89.2136,27.7441 88.5856,27.1171 87.8116,27.1171 C87.0386,27.1171 86.4116,27.7441 86.4116,28.5171 M86.5426,21.6631 C86.5426,22.3651 87.1116,22.9331 87.8116,22.9331 C88.5136,22.9331 89.0816,22.3651 89.0816,21.6631 C89.0816,20.9631 88.5136,20.3941 87.8116,20.3941 C87.1116,20.3941 86.5426,20.9631 86.5426,21.6631 M94.1566,62.7881 C94.1566,63.8381 95.0076,64.6891 96.0586,64.6891 C97.1086,64.6891 97.9596,63.8381 97.9596,62.7881 C97.9596,61.7381 97.1086,60.8861 96.0586,60.8861 C95.0076,60.8861 94.1566,61.7381 94.1566,62.7881 M94.2876,55.9341 C94.2876,56.9111 95.0806,57.7041 96.0586,57.7041 C97.0356,57.7041 97.8276,56.9111 97.8276,55.9341 C97.8276,54.9561 97.0356,54.1641 96.0586,54.1641 C95.0806,54.1641 94.2876,54.9561 94.2876,55.9341 M94.4196,49.0801 C94.4196,49.9841 95.1536,50.7181 96.0586,50.7181 C96.9626,50.7181 97.6956,49.9841 97.6956,49.0801 C97.6956,48.1751 96.9626,47.4421 96.0586,47.4421 C95.1536,47.4421 94.4196,48.1751 94.4196,49.0801 M94.5516,42.2261 C94.5516,43.0581 95.2256,43.7321 96.0586,43.7321 C96.8896,43.7321 97.5636,43.0581 97.5636,42.2261 C97.5636,41.3941 96.8896,40.7201 96.0586,40.7201 C95.2256,40.7201 94.5516,41.3941 94.5516,42.2261 M94.6836,35.3711 C94.6836,36.1311 95.2986,36.7461 96.0586,36.7461 C96.8166,36.7461 97.4326,36.1311 97.4326,35.3711 C97.4326,34.6131 96.8166,33.9971 96.0586,33.9971 C95.2986,33.9971 94.6836,34.6131 94.6836,35.3711 M94.8156,28.5171 C94.8156,29.2041 95.3716,29.7601 96.0586,29.7601 C96.7446,29.7601 97.3006,29.2041 97.3006,28.5171 C97.3006,27.8311 96.7446,27.2751 96.0586,27.2751 C95.3716,27.2751 94.8156,27.8311 94.8156,28.5171 M94.9476,21.6631 C94.9476,22.2771 95.4446,22.7741 96.0586,22.7741 C96.6716,22.7741 97.1686,22.2771 97.1686,21.6631 C97.1686,21.0501 96.6716,20.5531 96.0586,20.5531 C95.4446,20.5531 94.9476,21.0501 94.9476,21.6631 M102.5606,62.7881 C102.5606,63.7501 103.3406,64.5311 104.3036,64.5311 C105.2666,64.5311 106.0466,63.7501 106.0466,62.7881 C106.0466,61.8251 105.2666,61.0451 104.3036,61.0451 C103.3406,61.0451 102.5606,61.8251 102.5606,62.7881 M102.6926,55.9341 C102.6926,56.8241 103.4136,57.5451 104.3036,57.5451 C105.1936,57.5451 105.9146,56.8241 105.9146,55.9341 C105.9146,55.0441 105.1936,54.3231 104.3036,54.3231 C103.4136,54.3231 102.6926,55.0441 102.6926,55.9341 M102.8246,49.0801 C102.8246,49.8971 103.4866,50.5591 104.3036,50.5591 C105.1206,50.5591 105.7836,49.8971 105.7836,49.0801 C105.7836,48.2631 105.1206,47.6001 104.3036,47.6001 C103.4866,47.6001 102.8246,48.2631 102.8246,49.0801 M102.9556,42.2261 C102.9556,42.9701 103.5596,43.5731 104.3036,43.5731 C105.0476,43.5731 105.6506,42.9701 105.6506,42.2261 C105.6506,41.4811 105.0476,40.8781 104.3036,40.8781 C103.5596,40.8781 102.9556,41.4811 102.9556,42.2261 M103.0886,35.3711 C103.0886,36.0431 103.6326,36.5871 104.3036,36.5871 C104.9746,36.5871 105.5186,36.0431 105.5186,35.3711 C105.5186,34.7011 104.9746,34.1561 104.3036,34.1561 C103.6326,34.1561 103.0886,34.7011 103.0886,35.3711 M103.2206,28.5171 C103.2206,29.1161 103.7046,29.6011 104.3036,29.6011 C104.9026,29.6011 105.3876,29.1161 105.3876,28.5171 C105.3876,27.9191 104.9026,27.4341 104.3036,27.4341 C103.7046,27.4341 103.2206,27.9191 103.2206,28.5171 M103.3516,21.6631 C103.3516,22.1891 103.7776,22.6151 104.3036,22.6151 C104.8296,22.6151 105.2556,22.1891 105.2556,21.6631 C105.2556,21.1381 104.8296,20.7121 104.3036,20.7121 C103.7776,20.7121 103.3516,21.1381 103.3516,21.6631 M110.9646,62.7881 C110.9646,63.6631 111.6746,64.3721 112.5496,64.3721 C113.4246,64.3721 114.1336,63.6631 114.1336,62.7881 C114.1336,61.9131 113.4246,61.2041 112.5496,61.2041 C111.6746,61.2041 110.9646,61.9131 110.9646,62.7881 M111.0966,55.9341 C111.0966,56.7361 111.7466,57.3861 112.5496,57.3861 C113.3516,57.3861 114.0016,56.7361 114.0016,55.9341 C114.0016,55.1321 113.3516,54.4811 112.5496,54.4811 C111.7466,54.4811 111.0966,55.1321 111.0966,55.9341 M111.2286,49.0801 C111.2286,49.8091 111.8196,50.4001 112.5496,50.4001 C113.2786,50.4001 113.8706,49.8091 113.8706,49.0801 C113.8706,48.3501 113.2786,47.7591 112.5496,47.7591 C111.8196,47.7591 111.2286,48.3501 111.2286,49.0801 M111.3606,42.2261 C111.3606,42.8821 111.8926,43.4141 112.5496,43.4141 C113.2056,43.4141 113.7386,42.8821 113.7386,42.2261 C113.7386,41.5691 113.2056,41.0371 112.5496,41.0371 C111.8926,41.0371 111.3606,41.5691 111.3606,42.2261 M111.4926,35.3711 C111.4926,35.9551 111.9656,36.4291 112.5496,36.4291 C113.1336,36.4291 113.6066,35.9551 113.6066,35.3711 C113.6066,34.7881 113.1336,34.3151 112.5496,34.3151 C111.9656,34.3151 111.4926,34.7881 111.4926,35.3711 M111.6246,28.5171 C111.6246,29.0281 112.0386,29.4431 112.5496,29.4431 C113.0596,29.4431 113.4746,29.0281 113.4746,28.5171 C113.4746,28.0071 113.0596,27.5931 112.5496,27.5931 C112.0386,27.5931 111.6246,28.0071 111.6246,28.5171 M111.7566,21.6631 C111.7566,22.1011 112.1116,22.4561 112.5496,22.4561 C112.9876,22.4561 113.3426,22.1011 113.3426,21.6631 C113.3426,21.2251 112.9876,20.8711 112.5496,20.8711 C112.1116,20.8711 111.7566,21.2251 111.7566,21.6631 M119.3696,62.7881 C119.3696,63.5751 120.0076,64.2141 120.7946,64.2141 C121.5826,64.2141 122.2206,63.5751 122.2206,62.7881 C122.2206,62.0001 121.5826,61.3621 120.7946,61.3621 C120.0076,61.3621 119.3696,62.0001 119.3696,62.7881 M119.5016,55.9341 C119.5016,56.6481 120.0806,57.2271 120.7946,57.2271 C121.5096,57.2271 122.0886,56.6481 122.0886,55.9341 C122.0886,55.2191 121.5096,54.6401 120.7946,54.6401 C120.0806,54.6401 119.5016,55.2191 119.5016,55.9341 M119.6336,49.0801 C119.6336,49.7221 120.1536,50.2421 120.7946,50.2421 C121.4366,50.2421 121.9566,49.7221 121.9566,49.0801 C121.9566,48.4381 121.4366,47.9181 120.7946,47.9181 C120.1536,47.9181 119.6336,48.4381 119.6336,49.0801 M119.7656,42.2261 C119.7656,42.7951 120.2256,43.2561 120.7946,43.2561 C121.3636,43.2561 121.8256,42.7951 121.8256,42.2261 C121.8256,41.6571 121.3636,41.1961 120.7946,41.1961 C120.2256,41.1961 119.7656,41.6571 119.7656,42.2261 M119.8966,35.3711 C119.8966,35.8681 120.2996,36.2701 120.7946,36.2701 C121.2906,36.2701 121.6936,35.8681 121.6936,35.3711 C121.6936,34.8751 121.2906,34.4741 120.7946,34.4741 C120.2996,34.4741 119.8966,34.8751 119.8966,35.3711 M120.0286,28.5171 C120.0286,28.9411 120.3716,29.2841 120.7946,29.2841 C121.2186,29.2841 121.5616,28.9411 121.5616,28.5171 C121.5616,28.0951 121.2186,27.7511 120.7946,27.7511 C120.3716,27.7511 120.0286,28.0951 120.0286,28.5171 M120.1606,21.6631 C120.1606,22.0141 120.4446,22.2981 120.7946,22.2981 C121.1456,22.2981 121.4296,22.0141 121.4296,21.6631 C121.4296,21.3131 121.1456,21.0291 120.7946,21.0291 C120.4446,21.0291 120.1606,21.3131 120.1606,21.6631 M127.7736,62.7881 C127.7736,63.4881 128.3416,64.0551 129.0406,64.0551 C129.7406,64.0551 130.3086,63.4881 130.3086,62.7881 C130.3086,62.0881 129.7406,61.5211 129.0406,61.5211 C128.3416,61.5211 127.7736,62.0881 127.7736,62.7881 M127.9056,55.9341 C127.9056,56.5611 128.4136,57.0691 129.0406,57.0691 C129.6676,57.0691 130.1756,56.5611 130.1756,55.9341 C130.1756,55.3071 129.6676,54.7991 129.0406,54.7991 C128.4136,54.7991 127.9056,55.3071 127.9056,55.9341 M128.0376,49.0801 C128.0376,49.6341 128.4866,50.0831 129.0406,50.0831 C129.5946,50.0831 130.0436,49.6341 130.0436,49.0801 C130.0436,48.5261 129.5946,48.0771 129.0406,48.0771 C128.4866,48.0771 128.0376,48.5261 128.0376,49.0801 M128.1696,42.2261 C128.1696,42.7071 128.5596,43.0971 129.0406,43.0971 C129.5216,43.0971 129.9126,42.7071 129.9126,42.2261 C129.9126,41.7451 129.5216,41.3541 129.0406,41.3541 C128.5596,41.3541 128.1696,41.7451 128.1696,42.2261 M128.3016,35.3711 C128.3016,35.7801 128.6326,36.1111 129.0406,36.1111 C129.4496,36.1111 129.7806,35.7801 129.7806,35.3711 C129.7806,34.9631 129.4496,34.6321 129.0406,34.6321 C128.6326,34.6321 128.3016,34.9631 128.3016,35.3711 M128.4336,28.5171 C128.4336,28.8531 128.7046,29.1251 129.0406,29.1251 C129.3766,29.1251 129.6486,28.8531 129.6486,28.5171 C129.6486,28.1821 129.3766,27.9101 129.0406,27.9101 C128.7046,27.9101 128.4336,28.1821 128.4336,28.5171 M128.5646,21.6631 C128.5646,21.9261 128.7786,22.1391 129.0406,22.1391 C129.3036,22.1391 129.5166,21.9261 129.5166,21.6631 C129.5166,21.4011 129.3036,21.1881 129.0406,21.1881 C128.7786,21.1881 128.5646,21.4011 128.5646,21.6631 M14.7106,67.9261 L14.7106,16.5281 C14.7106,15.4241 15.6066,14.5281 16.7106,14.5281 L134.1826,14.5281 C135.2876,14.5281 136.1826,15.4241 136.1826,16.5281 L136.1826,67.9261 C136.1826,69.0311 135.2876,69.9261 134.1826,69.9261 L16.7106,69.9261 C15.6066,69.9261 14.7106,69.0311 14.7106,67.9261" id="Fill-185" fill="#FFC800"></path>
                <path d="M46.5508,55.1943 C46.3518,55.3233 46.4148,55.8273 46.2338,56.0103 C46.1138,56.1323 45.7218,56.3423 46.0198,56.4463 C46.2418,56.5233 46.7348,57.1483 46.9688,57.0653 C47.0678,57.0313 46.9058,56.7663 47.2768,56.9333 C47.3628,56.9433 47.4048,57.0293 47.5348,57.0393 C47.9818,57.0723 48.5488,56.8423 48.9468,57.0213 C49.1848,57.1283 49.3498,57.2513 49.5508,57.3763 C49.9078,57.6003 50.1328,57.8533 50.3548,58.2533 C50.4608,58.4393 50.3268,58.6273 50.5378,58.7363 C50.7308,58.8393 50.9428,58.9193 51.1398,59.0133 C51.5408,59.2073 51.9958,59.4103 52.2808,59.7863 C52.3258,59.8463 52.4558,60.1943 52.5688,60.1283 C52.6138,60.1373 52.8018,60.0293 52.8718,60.0323 C52.9978,60.0373 53.0928,60.1113 53.1958,60.1743 C53.5688,60.4063 53.6058,60.8493 53.9108,61.1283 C54.1398,61.4263 54.4458,61.7623 54.5488,62.1363 C54.8078,63.0793 53.9788,64.3963 53.2328,64.9113 C52.7608,65.2363 52.4108,65.6953 51.9988,66.0903 C51.9448,66.1413 51.1028,66.8163 51.1318,66.8983 C50.8098,67.1733 50.4228,67.3873 50.0728,67.6253 C50.0208,67.6603 49.7038,67.9513 49.6588,67.8003 C49.6128,67.7793 49.5098,67.5033 49.4318,67.5403 C49.3348,67.5873 49.4948,68.0743 49.5318,68.1393 C49.6318,68.3133 49.4718,68.2773 49.5098,68.4113 C49.5898,68.8323 49.8518,69.2573 49.9618,69.6783 C50.0148,69.8793 50.4528,70.8833 50.3418,71.0523 C50.2548,71.1853 49.9048,71.1883 49.7828,71.3183 C49.7008,71.4413 49.7658,71.5673 49.7588,71.7083 C49.7538,71.8123 49.1308,71.6963 49.1728,71.9163 C49.1518,71.9533 49.1798,72.0923 49.1798,72.1313 C49.1888,72.6713 49.1728,73.2113 49.1518,73.7503 C49.1168,74.6513 49.0898,75.5483 49.0688,76.4503 C49.0428,77.4983 48.7878,78.5113 48.7428,79.5543 C48.7328,79.8003 48.8288,80.3723 48.6778,80.5783 C48.5798,80.7143 47.8308,80.8043 47.6568,80.7823 C47.4048,80.8143 47.1398,80.9033 46.8848,80.9033 C46.7958,80.9723 46.8258,81.1893 46.8218,81.3113 C46.8098,81.7753 46.7928,82.2373 46.7718,82.7023 C46.7328,83.5273 46.5918,84.3773 46.3848,85.1743 C46.1968,85.9063 46.0128,86.6393 45.8138,87.3683 C45.7478,87.6133 45.7398,87.8313 45.7898,88.0803 C45.8498,88.3773 45.8948,88.2013 45.9928,88.3763 C46.0788,88.4493 47.0618,88.7373 46.8278,89.0413 C46.7138,89.1193 46.4688,88.9573 46.4468,88.9833 C46.2568,89.2043 47.2918,89.9933 47.4258,90.1173 C47.7558,90.4223 48.4748,91.7103 47.5718,91.7513 C47.1658,91.8603 46.1548,91.9123 45.8158,91.5733 C45.6858,91.4433 45.4658,91.4403 45.3328,91.2763 C45.1098,91.0033 45.2228,90.5503 44.7468,90.5373 C44.4878,90.5293 43.8688,90.4443 43.9048,90.0793 C43.8158,89.7883 43.9368,89.5193 44.0178,89.2733 C44.0588,89.1503 44.0058,88.9673 44.0288,88.8363 C44.0648,88.6243 44.1558,88.4293 44.2388,88.2333 C44.3428,87.9913 44.5828,87.8183 44.6338,87.5833 C44.9458,86.1393 44.3458,84.5973 44.4278,83.1463 C44.4618,82.5113 44.6638,81.9183 44.7388,81.2933 C44.8028,80.7823 44.1018,81.0313 43.7328,81.0353 C43.3168,81.0393 43.3968,81.2273 43.4168,81.6173 C43.4258,81.8283 43.4598,82.0373 43.4828,82.2463 C43.5388,82.7673 43.5428,83.2773 43.4768,83.7983 C43.3378,84.8713 43.0238,85.9243 42.8708,87.0003 C42.8188,87.3683 42.7338,88.0833 42.9828,88.4073 C43.0898,88.7963 43.2918,89.2033 43.2488,89.6223 C43.2298,89.8053 43.3498,89.8813 43.3078,90.0893 C43.3198,90.2563 43.2818,90.4523 43.2768,90.6203 C43.2658,90.9983 42.7338,90.8153 42.6478,90.9313 C42.4488,91.1343 42.8168,91.6143 42.6408,91.8803 C42.5138,92.0693 42.2998,92.1783 42.1008,92.2843 C41.6688,92.5113 40.0528,92.6703 40.0488,91.9383 C40.0458,91.5603 40.1918,90.9823 40.4088,90.6683 C40.5398,90.4813 40.6678,90.2873 40.8038,90.1043 C40.8148,90.0913 41.0238,89.7953 40.9318,89.8593 C40.8508,89.9403 40.7748,90.0243 40.7008,90.1133 C40.6138,89.9573 41.4658,89.1893 41.5088,88.9333 C41.5208,88.8623 41.1768,88.9263 41.1958,88.8193 C41.7178,88.8323 41.5238,88.7723 41.6128,88.3023 C41.6968,87.8663 41.7228,87.5483 41.6508,87.1073 C41.5378,86.4253 41.4578,85.7413 41.3728,85.0553 C41.3088,84.5183 41.2328,83.9783 41.1998,83.4373 C41.1878,83.2083 41.2798,80.9423 41.2998,80.9413 C41.2258,80.8633 40.8818,80.8873 40.7618,80.8343 C40.6248,80.7733 40.6638,80.5533 40.6618,80.4323 C40.6588,80.0773 40.6378,79.7223 40.6498,79.3673 C40.6728,78.6493 40.7038,77.9433 40.6938,77.2233 C40.6748,75.8703 40.6468,74.5173 40.6308,73.1643 C40.6278,72.8173 40.8108,72.2963 40.3968,72.2473 C40.2178,72.2253 40.2748,72.0873 40.1228,72.0583 C39.9158,72.0203 39.6648,71.9973 39.4778,71.8953 C39.2538,71.7713 39.9508,69.8603 40.0348,69.5523 C40.0718,69.4233 40.1678,69.2333 40.0668,69.1173 C39.9648,69.0033 40.1708,68.7673 40.2238,68.6633 C40.3018,68.5073 40.4138,68.3753 40.5058,68.2283 C40.6638,67.9793 40.4998,68.0673 40.3628,67.8413 C39.7328,67.1883 39.1478,66.3303 39.2098,65.3963 C39.2228,65.1713 39.2228,64.9353 39.2468,64.7103 C39.2748,64.4663 39.5218,64.2593 39.4868,64.0283 C39.4478,63.7813 39.4148,63.5253 39.3408,63.2853 C39.3328,63.1813 39.4028,62.8733 39.3568,62.8073 C39.3588,62.5573 39.2818,62.4113 39.4148,62.1573 C39.4978,61.9923 39.8168,61.8583 39.7848,61.6713 C39.7568,61.5023 39.6978,61.3163 39.7148,61.1433 C39.7328,60.9333 39.6688,60.6893 39.6968,60.4983 C39.6358,60.1303 39.4478,59.3973 39.8058,59.1223 C40.0698,58.9223 40.2798,58.6103 40.5968,58.4093 C41.0028,58.1573 41.5358,58.1663 41.9168,57.8823 C41.9758,57.8513 42.5108,57.4763 42.5548,57.6353 C42.5548,57.6473 42.5578,57.7563 42.5728,57.7593 C42.8288,57.8083 42.9678,57.1033 43.0718,57.0003 C43.0598,56.9023 43.0108,56.9163 42.9308,56.8333 C42.7688,56.6673 42.8378,56.4223 42.7178,56.2643 C42.5488,56.0523 42.4978,55.6963 42.3758,55.4553 C42.2408,55.1933 42.2928,54.8633 42.0738,54.6843 C41.4938,54.2113 40.6048,53.3503 40.7588,52.5133 C40.8868,51.7983 41.7098,51.7523 41.9898,51.1793 C42.3428,50.4543 42.8878,50.4063 43.5598,50.3073 C44.4198,50.1793 45.3178,50.5123 45.9378,51.1113 C46.2768,51.4383 46.5518,51.8913 46.5958,52.3683 C46.6318,52.7373 46.9728,52.9013 47.1768,53.2013 C47.5928,53.8093 47.1458,54.8343 46.5508,55.1943" id="Stroke-245" stroke="#000000" stroke-linecap="round" stroke-linejoin="round"></path>
                <path d="M46.5508,55.1943 C46.3518,55.3233 46.4148,55.8273 46.2338,56.0103 C46.1138,56.1323 45.7218,56.3423 46.0198,56.4463 C46.2418,56.5233 46.7348,57.1483 46.9688,57.0653 C47.0678,57.0313 46.9058,56.7663 47.2768,56.9333 C47.3628,56.9433 47.4048,57.0293 47.5348,57.0393 C47.9818,57.0723 48.5488,56.8423 48.9468,57.0213 C49.1848,57.1283 49.3498,57.2513 49.5508,57.3763 C49.9078,57.6003 50.1328,57.8533 50.3548,58.2533 C50.4608,58.4393 50.3268,58.6273 50.5378,58.7363 C50.7308,58.8393 50.9428,58.9193 51.1398,59.0133 C51.5408,59.2073 51.9958,59.4103 52.2808,59.7863 C52.3258,59.8463 52.4558,60.1943 52.5688,60.1283 C52.6138,60.1373 52.8018,60.0293 52.8718,60.0323 C52.9978,60.0373 53.0928,60.1113 53.1958,60.1743 C53.5688,60.4063 53.6058,60.8493 53.9108,61.1283 C54.1398,61.4263 54.4458,61.7623 54.5488,62.1363 C54.8078,63.0793 53.9788,64.3963 53.2328,64.9113 C52.7608,65.2363 52.4108,65.6953 51.9988,66.0903 C51.9448,66.1413 51.1028,66.8163 51.1318,66.8983 C50.8098,67.1733 50.4228,67.3873 50.0728,67.6253 C50.0208,67.6603 49.7038,67.9513 49.6588,67.8003 C49.6128,67.7793 49.5098,67.5033 49.4318,67.5403 C49.3348,67.5873 49.4948,68.0743 49.5318,68.1393 C49.6318,68.3133 49.4718,68.2773 49.5098,68.4113 C49.5898,68.8323 49.8518,69.2573 49.9618,69.6783 C50.0148,69.8793 50.4528,70.8833 50.3418,71.0523 C50.2548,71.1853 49.9048,71.1883 49.7828,71.3183 C49.7008,71.4413 49.7658,71.5673 49.7588,71.7083 C49.7538,71.8123 49.1308,71.6963 49.1728,71.9163 C49.1518,71.9533 49.1798,72.0923 49.1798,72.1313 C49.1888,72.6713 49.1728,73.2113 49.1518,73.7503 C49.1168,74.6513 49.0898,75.5483 49.0688,76.4503 C49.0428,77.4983 48.7878,78.5113 48.7428,79.5543 C48.7328,79.8003 48.8288,80.3723 48.6778,80.5783 C48.5798,80.7143 47.8308,80.8043 47.6568,80.7823 C47.4048,80.8143 47.1398,80.9033 46.8848,80.9033 C46.7958,80.9723 46.8258,81.1893 46.8218,81.3113 C46.8098,81.7753 46.7928,82.2373 46.7718,82.7023 C46.7328,83.5273 46.5918,84.3773 46.3848,85.1743 C46.1968,85.9063 46.0128,86.6393 45.8138,87.3683 C45.7478,87.6133 45.7398,87.8313 45.7898,88.0803 C45.8498,88.3773 45.8948,88.2013 45.9928,88.3763 C46.0788,88.4493 47.0618,88.7373 46.8278,89.0413 C46.7138,89.1193 46.4688,88.9573 46.4468,88.9833 C46.2568,89.2043 47.2918,89.9933 47.4258,90.1173 C47.7558,90.4223 48.4748,91.7103 47.5718,91.7513 C47.1658,91.8603 46.1548,91.9123 45.8158,91.5733 C45.6858,91.4433 45.4658,91.4403 45.3328,91.2763 C45.1098,91.0033 45.2228,90.5503 44.7468,90.5373 C44.4878,90.5293 43.8688,90.4443 43.9048,90.0793 C43.8158,89.7883 43.9368,89.5193 44.0178,89.2733 C44.0588,89.1503 44.0058,88.9673 44.0288,88.8363 C44.0648,88.6243 44.1558,88.4293 44.2388,88.2333 C44.3428,87.9913 44.5828,87.8183 44.6338,87.5833 C44.9458,86.1393 44.3458,84.5973 44.4278,83.1463 C44.4618,82.5113 44.6638,81.9183 44.7388,81.2933 C44.8028,80.7823 44.1018,81.0313 43.7328,81.0353 C43.3168,81.0393 43.3968,81.2273 43.4168,81.6173 C43.4258,81.8283 43.4598,82.0373 43.4828,82.2463 C43.5388,82.7673 43.5428,83.2773 43.4768,83.7983 C43.3378,84.8713 43.0238,85.9243 42.8708,87.0003 C42.8188,87.3683 42.7338,88.0833 42.9828,88.4073 C43.0898,88.7963 43.2918,89.2033 43.2488,89.6223 C43.2298,89.8053 43.3498,89.8813 43.3078,90.0893 C43.3198,90.2563 43.2818,90.4523 43.2768,90.6203 C43.2658,90.9983 42.7338,90.8153 42.6478,90.9313 C42.4488,91.1343 42.8168,91.6143 42.6408,91.8803 C42.5138,92.0693 42.2998,92.1783 42.1008,92.2843 C41.6688,92.5113 40.0528,92.6703 40.0488,91.9383 C40.0458,91.5603 40.1918,90.9823 40.4088,90.6683 C40.5398,90.4813 40.6678,90.2873 40.8038,90.1043 C40.8148,90.0913 41.0238,89.7953 40.9318,89.8593 C40.8508,89.9403 40.7748,90.0243 40.7008,90.1133 C40.6138,89.9573 41.4658,89.1893 41.5088,88.9333 C41.5208,88.8623 41.1768,88.9263 41.1958,88.8193 C41.7178,88.8323 41.5238,88.7723 41.6128,88.3023 C41.6968,87.8663 41.7228,87.5483 41.6508,87.1073 C41.5378,86.4253 41.4578,85.7413 41.3728,85.0553 C41.3088,84.5183 41.2328,83.9783 41.1998,83.4373 C41.1878,83.2083 41.2798,80.9423 41.2998,80.9413 C41.2258,80.8633 40.8818,80.8873 40.7618,80.8343 C40.6248,80.7733 40.6638,80.5533 40.6618,80.4323 C40.6588,80.0773 40.6378,79.7223 40.6498,79.3673 C40.6728,78.6493 40.7038,77.9433 40.6938,77.2233 C40.6748,75.8703 40.6468,74.5173 40.6308,73.1643 C40.6278,72.8173 40.8108,72.2963 40.3968,72.2473 C40.2178,72.2253 40.2748,72.0873 40.1228,72.0583 C39.9158,72.0203 39.6648,71.9973 39.4778,71.8953 C39.2538,71.7713 39.9508,69.8603 40.0348,69.5523 C40.0718,69.4233 40.1678,69.2333 40.0668,69.1173 C39.9648,69.0033 40.1708,68.7673 40.2238,68.6633 C40.3018,68.5073 40.4138,68.3753 40.5058,68.2283 C40.6638,67.9793 40.4998,68.0673 40.3628,67.8413 C39.7328,67.1883 39.1478,66.3303 39.2098,65.3963 C39.2228,65.1713 39.2228,64.9353 39.2468,64.7103 C39.2748,64.4663 39.5218,64.2593 39.4868,64.0283 C39.4478,63.7813 39.4148,63.5253 39.3408,63.2853 C39.3328,63.1813 39.4028,62.8733 39.3568,62.8073 C39.3588,62.5573 39.2818,62.4113 39.4148,62.1573 C39.4978,61.9923 39.8168,61.8583 39.7848,61.6713 C39.7568,61.5023 39.6978,61.3163 39.7148,61.1433 C39.7328,60.9333 39.6688,60.6893 39.6968,60.4983 C39.6358,60.1303 39.4478,59.3973 39.8058,59.1223 C40.0698,58.9223 40.2798,58.6103 40.5968,58.4093 C41.0028,58.1573 41.5358,58.1663 41.9168,57.8823 C41.9758,57.8513 42.5108,57.4763 42.5548,57.6353 C42.5548,57.6473 42.5578,57.7563 42.5728,57.7593 C42.8288,57.8083 42.9678,57.1033 43.0718,57.0003 C43.0598,56.9023 43.0108,56.9163 42.9308,56.8333 C42.7688,56.6673 42.8378,56.4223 42.7178,56.2643 C42.5488,56.0523 42.4978,55.6963 42.3758,55.4553 C42.2408,55.1933 42.2928,54.8633 42.0738,54.6843 C41.4938,54.2113 40.6048,53.3503 40.7588,52.5133 C40.8868,51.7983 41.7098,51.7523 41.9898,51.1793 C42.3428,50.4543 42.8878,50.4063 43.5598,50.3073 C44.4198,50.1793 45.3178,50.5123 45.9378,51.1113 C46.2768,51.4383 46.5518,51.8913 46.5958,52.3683 C46.6318,52.7373 46.9728,52.9013 47.1768,53.2013 C47.5928,53.8093 47.1458,54.8343 46.5508,55.1943" id="Fill-249" fill="#FFFFFF"></path>
                <path d="M18.5913,60.999 C18.6023,60.733 18.6893,60.483 18.6943,60.221 C18.6983,59.999 18.9593,59.929 19.1153,59.812 C19.4353,59.575 20.6453,58.777 19.7843,58.401 C19.4713,58.264 19.0663,58.269 18.7303,58.228 C18.4103,58.188 18.2693,57.984 18.0283,57.776 C17.7223,57.514 17.4393,57.237 17.1453,56.964 C16.8363,56.677 16.9473,56.31 16.7373,56.014 C16.3613,55.49 14.8633,56.765 14.6403,57.023 C14.2213,57.504 13.9473,58.112 13.9913,58.758 C14.0003,58.878 13.3643,59.27 13.2453,59.377 C12.9863,59.608 12.8023,59.946 12.9333,60.285 C13.0453,60.574 13.4303,60.645 13.6913,60.721 C13.8453,60.765 14.0303,61.169 14.1063,61.32 C14.1173,61.609 14.4163,61.793 14.4163,62.027 C14.4163,62.268 14.7473,62.181 14.7133,62.336 C14.4403,62.387 13.9463,63 13.7533,63.218 C12.9953,63.64 12.0233,63.683 11.2263,64.022 C10.6413,64.269 10.3843,64.436 10.2663,65.125 C10.1653,65.717 10.0403,66.204 9.8443,66.782 C9.5933,67.518 9.5423,68.302 9.2913,69.049 C9.1483,69.481 8.9493,69.917 8.8793,70.368 C8.8513,70.541 8.9613,70.721 8.9333,70.878 C8.8843,71.135 8.6893,71.337 8.6213,71.586 C8.5713,71.768 8.8743,72.234 8.9673,72.379 C9.2123,72.757 9.2593,73.012 9.7663,73.027 C10.1073,73.035 10.2933,73.117 10.6083,73.174 C10.9173,73.229 11.1973,73.117 11.1643,73.475 C11.1353,73.78 11.0923,74.08 11.0913,74.387 C11.0893,74.809 10.8463,75.133 10.7703,75.545 C10.7423,75.683 10.9853,75.667 10.9823,75.89 C10.9703,76.677 10.9793,77.462 10.8843,78.245 C10.7913,79 10.8663,79.782 10.8783,80.541 C10.8903,81.271 11.0213,81.245 11.8033,81.382 C12.1773,81.447 12.1203,81.411 12.1623,81.797 C12.2093,82.214 12.3083,82.628 12.3953,83.039 C12.5323,83.682 12.5143,84.307 12.5693,84.961 C12.6753,86.276 12.6113,87.603 12.9413,88.906 C13.0293,89.258 12.8703,89.668 12.8683,90.033 C12.8673,90.36 12.9323,90.687 12.9503,91.012 C12.9973,91.852 13.0033,92.691 13.0693,93.528 C13.1793,94.901 13.1203,96.307 13.2793,97.666 C13.3493,98.287 13.1853,99.138 13.8573,99.407 C14.3363,99.596 14.6283,99.313 15.0353,99.666 C16.0043,100.506 18.3863,101.028 19.4863,100.176 C19.9503,99.816 19.0553,99.119 18.6533,98.963 C18.4103,98.867 17.9013,98.49 17.7573,98.289 C17.7013,98.213 17.7433,97.984 17.7053,97.839 C18.2373,97.921 18.7853,97.935 19.3193,97.877 C19.4643,97.862 20.4993,97.451 20.2563,97.392 C20.2283,97.384 20.0983,97.041 20.0033,96.958 C19.8283,96.807 19.6113,96.756 19.4053,96.66 C19.0273,96.482 18.4983,96.459 18.1993,96.163 C18.2983,95.953 17.9703,95.343 17.8903,95.057 C17.8213,94.81 18.0173,94.734 18.1713,94.538 C18.4633,94.166 18.4413,93.712 18.4673,93.265 C18.5103,92.457 18.5553,91.641 18.5173,90.833 C18.5053,90.569 18.3453,90.141 18.4333,89.887 C18.5373,89.585 18.7183,89.311 18.8163,89.001 C19.3343,87.358 19.3363,85.502 19.5983,83.804 C19.6873,83.215 19.7323,82.582 19.8933,82.008 C19.9873,81.673 20.0953,81.342 20.1813,81.004 C20.2433,80.761 20.1553,80.485 20.2283,80.261 C20.8063,80.289 20.7723,80.787 21.3123,80.922 C21.6083,80.995 21.3833,79.961 21.3653,79.78 C21.2553,78.681 21.2573,77.621 21.2403,76.516 C21.2333,75.998 21.3143,75.391 21.1873,74.89 C21.1623,74.787 21.1683,74.564 21.0473,74.564 C20.9253,74.564 20.9333,74.512 20.9083,74.389 C20.7293,73.462 20.4083,72.332 20.5753,71.36 C21.0263,71.575 21.4573,71.84 21.9143,72.038 C22.2843,72.198 22.5033,72.642 22.8983,72.642 C23.4523,72.812 24.0153,72.944 24.5743,73.094 C24.7603,73.144 25.1713,73.274 25.3233,73.062 C25.4293,72.914 25.3813,72.783 25.6493,72.901 C25.6623,72.541 25.3433,71.918 25.4953,71.583 C25.5543,71.455 26.0633,71.164 26.2063,71.092 C26.3873,71 26.3483,71.182 26.5253,71.124 C27.0653,70.945 26.3033,70.53 26.2743,70.456 C26.2413,70.365 26.5173,70.187 26.3503,69.962 C26.2863,69.875 26.1303,69.875 26.0333,69.903 C26.0833,69.455 25.5213,69.583 25.5013,69.266 C25.4823,68.931 26.2593,68.465 26.4073,68.182 C26.6043,67.804 25.8463,68.14 25.8073,68.173 C25.5843,68.354 25.3323,68.566 25.1473,68.783 C24.8103,69.177 24.4123,69.31 24.0473,69.662 C24.0123,69.45 23.8033,69.126 23.5463,69.186 C23.2503,69.253 23.4813,69.668 23.4663,69.849 C23.0913,69.603 23.1793,69.21 22.9533,68.896 C22.7413,68.601 22.6253,68.192 22.2503,68.098 C21.9893,68.032 22.0273,67.803 21.8913,67.586 C21.6753,67.24 21.8923,66.948 21.5873,66.585 C21.4523,66.428 21.4813,66.171 21.3893,65.978 C21.2933,65.776 21.1323,65.71 21.0973,65.489 C21.0673,65.304 20.8543,64.901 20.6463,64.854 C19.7023,64.644 18.8553,63.945 17.9153,63.701 C17.7723,63.665 17.6833,63.117 17.7613,63.017 C17.9453,62.773 18.2223,62.661 18.3793,62.371 C18.5883,61.985 18.6923,61.428 18.5913,60.999" id="Stroke-257" stroke="#000000" stroke-linecap="round" stroke-linejoin="round"></path>
                <path d="M18.5913,60.999 C18.6023,60.733 18.6893,60.483 18.6943,60.221 C18.6983,59.999 18.9593,59.929 19.1153,59.812 C19.4353,59.575 20.6453,58.777 19.7843,58.401 C19.4713,58.264 19.0663,58.269 18.7303,58.228 C18.4103,58.188 18.2693,57.984 18.0283,57.776 C17.7223,57.514 17.4393,57.237 17.1453,56.964 C16.8363,56.677 16.9473,56.31 16.7373,56.014 C16.3613,55.49 14.8633,56.765 14.6403,57.023 C14.2213,57.504 13.9473,58.112 13.9913,58.758 C14.0003,58.878 13.3643,59.27 13.2453,59.377 C12.9863,59.608 12.8023,59.946 12.9333,60.285 C13.0453,60.574 13.4303,60.645 13.6913,60.721 C13.8453,60.765 14.0303,61.169 14.1063,61.32 C14.1173,61.609 14.4163,61.793 14.4163,62.027 C14.4163,62.268 14.7473,62.181 14.7133,62.336 C14.4403,62.387 13.9463,63 13.7533,63.218 C12.9953,63.64 12.0233,63.683 11.2263,64.022 C10.6413,64.269 10.3843,64.436 10.2663,65.125 C10.1653,65.717 10.0403,66.204 9.8443,66.782 C9.5933,67.518 9.5423,68.302 9.2913,69.049 C9.1483,69.481 8.9493,69.917 8.8793,70.368 C8.8513,70.541 8.9613,70.721 8.9333,70.878 C8.8843,71.135 8.6893,71.337 8.6213,71.586 C8.5713,71.768 8.8743,72.234 8.9673,72.379 C9.2123,72.757 9.2593,73.012 9.7663,73.027 C10.1073,73.035 10.2933,73.117 10.6083,73.174 C10.9173,73.229 11.1973,73.117 11.1643,73.475 C11.1353,73.78 11.0923,74.08 11.0913,74.387 C11.0893,74.809 10.8463,75.133 10.7703,75.545 C10.7423,75.683 10.9853,75.667 10.9823,75.89 C10.9703,76.677 10.9793,77.462 10.8843,78.245 C10.7913,79 10.8663,79.782 10.8783,80.541 C10.8903,81.271 11.0213,81.245 11.8033,81.382 C12.1773,81.447 12.1203,81.411 12.1623,81.797 C12.2093,82.214 12.3083,82.628 12.3953,83.039 C12.5323,83.682 12.5143,84.307 12.5693,84.961 C12.6753,86.276 12.6113,87.603 12.9413,88.906 C13.0293,89.258 12.8703,89.668 12.8683,90.033 C12.8673,90.36 12.9323,90.687 12.9503,91.012 C12.9973,91.852 13.0033,92.691 13.0693,93.528 C13.1793,94.901 13.1203,96.307 13.2793,97.666 C13.3493,98.287 13.1853,99.138 13.8573,99.407 C14.3363,99.596 14.6283,99.313 15.0353,99.666 C16.0043,100.506 18.3863,101.028 19.4863,100.176 C19.9503,99.816 19.0553,99.119 18.6533,98.963 C18.4103,98.867 17.9013,98.49 17.7573,98.289 C17.7013,98.213 17.7433,97.984 17.7053,97.839 C18.2373,97.921 18.7853,97.935 19.3193,97.877 C19.4643,97.862 20.4993,97.451 20.2563,97.392 C20.2283,97.384 20.0983,97.041 20.0033,96.958 C19.8283,96.807 19.6113,96.756 19.4053,96.66 C19.0273,96.482 18.4983,96.459 18.1993,96.163 C18.2983,95.953 17.9703,95.343 17.8903,95.057 C17.8213,94.81 18.0173,94.734 18.1713,94.538 C18.4633,94.166 18.4413,93.712 18.4673,93.265 C18.5103,92.457 18.5553,91.641 18.5173,90.833 C18.5053,90.569 18.3453,90.141 18.4333,89.887 C18.5373,89.585 18.7183,89.311 18.8163,89.001 C19.3343,87.358 19.3363,85.502 19.5983,83.804 C19.6873,83.215 19.7323,82.582 19.8933,82.008 C19.9873,81.673 20.0953,81.342 20.1813,81.004 C20.2433,80.761 20.1553,80.485 20.2283,80.261 C20.8063,80.289 20.7723,80.787 21.3123,80.922 C21.6083,80.995 21.3833,79.961 21.3653,79.78 C21.2553,78.681 21.2573,77.621 21.2403,76.516 C21.2333,75.998 21.3143,75.391 21.1873,74.89 C21.1623,74.787 21.1683,74.564 21.0473,74.564 C20.9253,74.564 20.9333,74.512 20.9083,74.389 C20.7293,73.462 20.4083,72.332 20.5753,71.36 C21.0263,71.575 21.4573,71.84 21.9143,72.038 C22.2843,72.198 22.5033,72.642 22.8983,72.642 C23.4523,72.812 24.0153,72.944 24.5743,73.094 C24.7603,73.144 25.1713,73.274 25.3233,73.062 C25.4293,72.914 25.3813,72.783 25.6493,72.901 C25.6623,72.541 25.3433,71.918 25.4953,71.583 C25.5543,71.455 26.0633,71.164 26.2063,71.092 C26.3873,71 26.3483,71.182 26.5253,71.124 C27.0653,70.945 26.3033,70.53 26.2743,70.456 C26.2413,70.365 26.5173,70.187 26.3503,69.962 C26.2863,69.875 26.1303,69.875 26.0333,69.903 C26.0833,69.455 25.5213,69.583 25.5013,69.266 C25.4823,68.931 26.2593,68.465 26.4073,68.182 C26.6043,67.804 25.8463,68.14 25.8073,68.173 C25.5843,68.354 25.3323,68.566 25.1473,68.783 C24.8103,69.177 24.4123,69.31 24.0473,69.662 C24.0123,69.45 23.8033,69.126 23.5463,69.186 C23.2503,69.253 23.4813,69.668 23.4663,69.849 C23.0913,69.603 23.1793,69.21 22.9533,68.896 C22.7413,68.601 22.6253,68.192 22.2503,68.098 C21.9893,68.032 22.0273,67.803 21.8913,67.586 C21.6753,67.24 21.8923,66.948 21.5873,66.585 C21.4523,66.428 21.4813,66.171 21.3893,65.978 C21.2933,65.776 21.1323,65.71 21.0973,65.489 C21.0673,65.304 20.8543,64.901 20.6463,64.854 C19.7023,64.644 18.8553,63.945 17.9153,63.701 C17.7723,63.665 17.6833,63.117 17.7613,63.017 C17.9453,62.773 18.2223,62.661 18.3793,62.371 C18.5883,61.985 18.6923,61.428 18.5913,60.999" id="Fill-261" fill="#FFFFFF"></path>
            </g>
        </g>
    </g>
</svg>