<?xml version="1.0" encoding="UTF-8" standalone="no"?>
<svg width="16px" height="20px" viewBox="0 0 16 20" version="1.1" xmlns="http://www.w3.org/2000/svg" xmlns:xlink="http://www.w3.org/1999/xlink">
    <!-- Generator: Sketch 43.2 (39069) - http://www.bohemiancoding.com/sketch -->
    <title>Artboard 2 Copy 3</title>
    <desc>Created with Sketch.</desc>
    <defs>
        <polygon id="path-1" points="6 8.8817842e-16 7.99740955 0 10 2 12 4.07347572 12 6 6 6"></polygon>
        <path d="M0,1.00087166 C0,0.448105505 0.452889612,0 0.996707295,0 L7.99740955,0 L7.99934632,2.9906311 C7.99970734,3.54809015 8.44335318,4.00814392 9.0093689,4.01854103 L12,4.07347572 L12,15.0036648 C12,15.5539255 11.544239,16 10.9975267,16 L1.00247329,16 C0.448822582,16 0,15.5553691 0,14.9991283 L0,1.00087166 Z" id="path-2"></path>
        <polygon id="path-3" points="6 8.8817842e-16 7.99740955 0 10 2 12 4.07347572 12 6 6 6"></polygon>
        <path d="M0,1.00087166 C0,0.448105505 0.452889612,0 0.996707295,0 L7.99740955,0 L7.99934632,2.9906311 C7.99970734,3.54809015 8.44335318,4.00814392 9.0093689,4.01854103 L12,4.07347572 L12,15.0036648 C12,15.5539255 11.544239,16 10.9975267,16 L1.00247329,16 C0.448822582,16 0,15.5553691 0,14.9991283 L0,1.00087166 Z" id="path-4"></path>
    </defs>
    <g id="Page-1" stroke="none" stroke-width="1" fill="none" fill-rule="evenodd">
        <g id="Artboard-2-Copy-3">
            <rect id="Rectangle-3" fill="#FFCF44" x="0" y="0" width="16" height="20"></rect>
            <g id="Group" transform="translate(4.000000, 0.000000)">
                <g id="Rectangle-21">
                    <use fill="#FFCF44" fill-rule="evenodd" xlink:href="#path-1"></use>
                    <path stroke="#FFFFFF" stroke-width="1" d="M6.5,0.5 L7.7904923,0.5 L9.6466755,2.35378213 L11.5,4.27531066 L11.5,5.5 L6.5,5.5 L6.5,0.5 Z"></path>
                </g>
                <g id="Rectangle-21">
                    <use fill="#FFCF44" fill-rule="evenodd" xlink:href="#path-2"></use>
                    <path stroke="#FFFFFF" stroke-width="1" d="M7.49773325,0.5 L7.49934643,2.99095491 C7.4998854,3.82320315 8.16411058,4.50309888 9.00018598,4.51845669 L11.5,4.5643756 L11.5,15.0036648 C11.5,15.2741843 11.2717068,15.5 10.9975267,15.5 L1.00247329,15.5 C0.723313399,15.5 0.5,15.277578 0.5,14.9991283 L0.5,1.00087166 C0.5,0.726590996 0.726687912,0.5 0.996707295,0.5 L7.49773325,0.5 Z"></path>
                </g>
            </g>
            <polygon id="Rectangle-3" fill="#FFCF44" points="0 3 8.05103809 3 10 5 13 8.06006699 13 20 0 20"></polygon>
            <g id="Group" transform="translate(0.000000, 4.000000)">
                <g id="Rectangle-21">
                    <use fill="#FFCF44" fill-rule="evenodd" xlink:href="#path-3"></use>
                    <path stroke="#FFFFFF" stroke-width="1" d="M6.5,0.5 L7.7904923,0.5 L9.6466755,2.35378213 L11.5,4.27531066 L11.5,5.5 L6.5,5.5 L6.5,0.5 Z"></path>
                </g>
                <g id="Rectangle-21">
                    <use fill="#FFCF44" fill-rule="evenodd" xlink:href="#path-4"></use>
                    <path stroke="#FFFFFF" stroke-width="1" d="M7.49773325,0.5 L7.49934643,2.99095491 C7.4998854,3.82320315 8.16411058,4.50309888 9.00018598,4.51845669 L11.5,4.5643756 L11.5,15.0036648 C11.5,15.2741843 11.2717068,15.5 10.9975267,15.5 L1.00247329,15.5 C0.723313399,15.5 0.5,15.277578 0.5,14.9991283 L0.5,1.00087166 C0.5,0.726590996 0.726687912,0.5 0.996707295,0.5 L7.49773325,0.5 Z"></path>
                </g>
            </g>
        </g>
    </g>
</svg>