<?xml version="1.0" encoding="UTF-8" standalone="no"?>
<svg width="180px" height="120px" viewBox="0 0 180 120" version="1.1" xmlns="http://www.w3.org/2000/svg" xmlns:xlink="http://www.w3.org/1999/xlink">
    <!-- Generator: Sketch 43.2 (39069) - http://www.bohemiancoding.com/sketch -->
    <title>imagewall-system-icon-facade</title>
    <desc>Created with Sketch.</desc>
    <defs></defs>
    <g id="Page-1" stroke="none" stroke-width="1" fill="none" fill-rule="evenodd">
        <g id="imagewall-system-icon-facade">
            <g id="Group-2" transform="translate(15.000000, 14.000000)">
                <polyline id="Stroke-34" stroke="#9DA8A8" stroke-width="0.5" stroke-linejoin="round" stroke-dasharray="4,3" points="141.375 68.8887 141.455 71.8877 141.6651 79.7205 141.7885 84.2861 138.7885 84.2861 14.5845 84.2856 8.5557 84.2856 8.6367 81.2866 8.8467 73.4538 8.9697 68.8882"></polyline>
                <path d="M147.7729,68.8359 L2.5709,68.8359 C1.4729,68.8359 0.6109,67.9209 0.6449,66.7929 L2.6009,2.0899 C2.6329,1.0219 3.5249,0.1569 4.5919,0.1569 L145.7519,0.1569 C146.8189,0.1569 147.7109,1.0219 147.7429,2.0899 L149.6989,66.7929 C149.7329,67.9209 148.8709,68.8359 147.7729,68.8359" id="Fill-110" fill="#FFFFFF"></path>
                <path d="M140.5127,7.1201 C140.5197,7.3751 140.7317,7.5821 140.9867,7.5821 C141.2407,7.5821 141.4417,7.3751 141.4347,7.1201 C141.4277,6.8651 141.2157,6.6581 140.9607,6.6581 C140.7067,6.6581 140.5057,6.8651 140.5127,7.1201 Z M140.6057,14.7561 C140.6147,15.0771 140.8797,15.3361 141.1987,15.3361 C141.5167,15.3361 141.7677,15.0771 141.7587,14.7561 C141.7497,14.4361 141.4847,14.1771 141.1667,14.1771 C140.8477,14.1771 140.5967,14.4361 140.6057,14.7561 Z M140.6997,22.4411 C140.7107,22.8281 141.0297,23.1411 141.4117,23.1411 C141.7947,23.1411 142.0957,22.8281 142.0847,22.4411 C142.0747,22.0551 141.7557,21.7431 141.3737,21.7431 C140.9917,21.7431 140.6897,22.0551 140.6997,22.4411 Z M140.7947,30.1751 C140.8067,30.6281 141.1797,30.9951 141.6267,30.9951 C142.0737,30.9951 142.4267,30.6281 142.4137,30.1751 C142.4007,29.7231 142.0287,29.3561 141.5817,29.3561 C141.1347,29.3561 140.7827,29.7231 140.7947,30.1751 Z M140.8897,37.9591 C140.9047,38.4791 141.3307,38.9011 141.8427,38.9011 C142.3547,38.9011 142.7587,38.4791 142.7437,37.9591 C142.7297,37.4391 142.3037,37.0171 141.7917,37.0171 C141.2797,37.0171 140.8757,37.4391 140.8897,37.9591 Z M140.9857,45.7921 C141.0017,46.3811 141.4827,46.8581 142.0607,46.8581 C142.6377,46.8581 143.0937,46.3811 143.0767,45.7921 C143.0607,45.2041 142.5797,44.7271 142.0027,44.7271 C141.4257,44.7271 140.9707,45.2041 140.9857,45.7921 Z M141.0827,53.6771 C141.0997,54.3341 141.6367,54.8681 142.2797,54.8681 C142.9237,54.8681 143.4297,54.3341 143.4117,53.6771 C143.3937,53.0191 142.8577,52.4871 142.2147,52.4871 C141.5717,52.4871 141.0647,53.0191 141.0827,53.6771 Z M141.1797,61.6121 C141.1997,62.3401 141.7907,62.9301 142.4997,62.9301 C143.2097,62.9301 143.7687,62.3401 143.7487,61.6121 C143.7287,60.8841 143.1377,60.2951 142.4287,60.2951 C141.7197,60.2951 141.1597,60.8841 141.1797,61.6121 Z M132.1637,7.1201 C132.1717,7.4441 132.4397,7.7061 132.7617,7.7061 C133.0847,7.7061 133.3397,7.4441 133.3317,7.1201 C133.3247,6.7971 133.0557,6.5351 132.7337,6.5351 C132.4107,6.5351 132.1567,6.7971 132.1637,7.1201 Z M132.2307,14.7561 C132.2397,15.1451 132.5607,15.4611 132.9477,15.4611 C133.3337,15.4611 133.6397,15.1451 133.6307,14.7561 C133.6207,14.3681 133.3007,14.0531 132.9137,14.0531 C132.5277,14.0531 132.2217,14.3681 132.2307,14.7561 Z M132.2987,22.4411 C132.3087,22.8961 132.6827,23.2661 133.1347,23.2661 C133.5857,23.2661 133.9417,22.8961 133.9307,22.4411 C133.9197,21.9861 133.5457,21.6181 133.0947,21.6181 C132.6437,21.6181 132.2877,21.9861 132.2987,22.4411 Z M132.3657,30.1751 C132.3787,30.6981 132.8067,31.1211 133.3227,31.1211 C133.8387,31.1211 134.2457,30.6981 134.2337,30.1751 C134.2207,29.6531 133.7927,29.2301 133.2767,29.2301 C132.7617,29.2301 132.3537,29.6531 132.3657,30.1751 Z M132.4337,37.9591 C132.4487,38.5491 132.9307,39.0281 133.5117,39.0281 C134.0927,39.0281 134.5527,38.5491 134.5377,37.9591 C134.5237,37.3691 134.0407,36.8911 133.4607,36.8911 C132.8797,36.8911 132.4207,37.3691 132.4337,37.9591 Z M132.5027,45.7921 C132.5187,46.4521 133.0547,46.9861 133.7017,46.9861 C134.3487,46.9861 134.8607,46.4521 134.8447,45.7921 C134.8277,45.1341 134.2907,44.6001 133.6447,44.6001 C132.9987,44.6001 132.4877,45.1341 132.5027,45.7921 Z M132.5717,53.6771 C132.5887,54.4051 133.1807,54.9961 133.8937,54.9961 C134.6067,54.9961 135.1707,54.4051 135.1527,53.6771 C135.1347,52.9491 134.5427,52.3581 133.8307,52.3581 C133.1187,52.3581 132.5547,52.9491 132.5717,53.6771 Z M132.6417,61.6121 C132.6597,62.4111 133.3067,63.0591 134.0867,63.0591 C134.8667,63.0591 135.4827,62.4111 135.4627,61.6121 C135.4437,60.8131 134.7957,60.1661 134.0177,60.1661 C133.2387,60.1661 132.6227,60.8131 132.6417,61.6121 Z M123.8147,7.1201 C123.8227,7.5121 124.1457,7.8291 124.5367,7.8291 C124.9277,7.8291 125.2377,7.5121 125.2297,7.1201 C125.2207,6.7281 124.8977,6.4111 124.5077,6.4111 C124.1167,6.4111 123.8067,6.7281 123.8147,7.1201 Z M123.8557,14.7561 C123.8647,15.2141 124.2407,15.5851 124.6957,15.5851 C125.1507,15.5851 125.5117,15.2141 125.5027,14.7561 C125.4927,14.2991 125.1167,13.9281 124.6617,13.9281 C124.2067,13.9281 123.8457,14.2991 123.8557,14.7561 Z M123.8957,22.4411 C123.9067,22.9661 124.3367,23.3911 124.8557,23.3911 C125.3757,23.3911 125.7877,22.9661 125.7767,22.4411 C125.7657,21.9171 125.3357,21.4931 124.8167,21.4931 C124.2977,21.4931 123.8857,21.9171 123.8957,22.4411 Z M123.9367,30.1751 C123.9497,30.7671 124.4327,31.2471 125.0167,31.2471 C125.6017,31.2471 126.0657,30.7671 126.0537,30.1751 C126.0407,29.5841 125.5567,29.1041 124.9727,29.1041 C124.3887,29.1041 123.9257,29.5841 123.9367,30.1751 Z M123.9787,37.9591 C123.9917,38.6191 124.5297,39.1551 125.1797,39.1551 C125.8297,39.1551 126.3457,38.6191 126.3317,37.9591 C126.3177,37.2991 125.7797,36.7651 125.1307,36.7651 C124.4807,36.7651 123.9657,37.2991 123.9787,37.9591 Z M124.0197,45.7921 C124.0337,46.5221 124.6267,47.1141 125.3427,47.1141 C126.0587,47.1141 126.6267,46.5221 126.6117,45.7921 C126.5957,45.0631 126.0037,44.4731 125.2887,44.4731 C124.5737,44.4731 124.0057,45.0631 124.0197,45.7921 Z M124.0617,53.6771 C124.0777,54.4761 124.7247,55.1251 125.5067,55.1251 C126.2897,55.1251 126.9097,54.4761 126.8927,53.6771 C126.8757,52.8771 126.2287,52.2301 125.4477,52.2301 C124.6657,52.2301 124.0457,52.8771 124.0617,53.6771 Z M124.1037,61.6121 C124.1207,62.4821 124.8237,63.1891 125.6727,63.1891 C126.5217,63.1891 127.1947,62.4821 127.1767,61.6121 C127.1587,60.7421 126.4557,60.0371 125.6077,60.0371 C124.7597,60.0371 124.0867,60.7421 124.1037,61.6121 Z M115.4667,7.1201 C115.4737,7.5801 115.8517,7.9531 116.3107,7.9531 C116.7697,7.9531 117.1347,7.5801 117.1267,7.1201 C117.1187,6.6601 116.7407,6.2871 116.2827,6.2871 C115.8237,6.2871 115.4587,6.6601 115.4667,7.1201 Z M115.4797,14.7561 C115.4887,15.2831 115.9197,15.7091 116.4437,15.7091 C116.9667,15.7091 117.3837,15.2831 117.3737,14.7561 C117.3647,14.2301 116.9337,13.8041 116.4107,13.8041 C115.8877,13.8041 115.4707,14.2301 115.4797,14.7561 Z M115.4937,22.4411 C115.5037,23.0351 115.9887,23.5161 116.5767,23.5161 C117.1647,23.5161 117.6337,23.0351 117.6227,22.4411 C117.6127,21.8481 117.1277,21.3681 116.5397,21.3681 C115.9527,21.3681 115.4847,21.8481 115.4937,22.4411 Z M115.5087,30.1751 C115.5187,30.8371 116.0577,31.3731 116.7107,31.3731 C117.3647,31.3731 117.8847,30.8371 117.8727,30.1751 C117.8617,29.5141 117.3227,28.9791 116.6707,28.9791 C116.0177,28.9791 115.4967,29.5141 115.5087,30.1751 Z M115.5227,37.9591 C115.5347,38.6891 116.1277,39.2811 116.8457,39.2811 C117.5657,39.2811 118.1377,38.6891 118.1247,37.9591 C118.1127,37.2291 117.5197,36.6381 116.8017,36.6381 C116.0827,36.6381 115.5107,37.2291 115.5227,37.9591 Z M115.5367,45.7921 C115.5497,46.5921 116.1977,47.2411 116.9827,47.2411 C117.7677,47.2411 118.3927,46.5921 118.3787,45.7921 C118.3647,44.9931 117.7177,44.3461 116.9327,44.3461 C116.1487,44.3461 115.5237,44.9931 115.5367,45.7921 Z M115.5517,53.6771 C115.5657,54.5471 116.2677,55.2531 117.1197,55.2531 C117.9707,55.2531 118.6487,54.5471 118.6337,53.6771 C118.6177,52.8071 117.9157,52.1021 117.0657,52.1021 C116.2147,52.1021 115.5367,52.8071 115.5517,53.6771 Z M115.5657,61.6121 C115.5807,62.5541 116.3387,63.3181 117.2577,63.3181 C118.1767,63.3181 118.9077,62.5541 118.8907,61.6121 C118.8737,60.6711 118.1167,59.9081 117.1987,59.9081 C116.2817,59.9081 115.5507,60.6711 115.5657,61.6121 Z M107.1167,7.1201 C107.1247,7.6481 107.5567,8.0771 108.0837,8.0771 C108.6107,8.0771 109.0317,7.6481 109.0247,7.1201 C109.0167,6.5921 108.5837,6.1641 108.0577,6.1641 C107.5317,6.1641 107.1107,6.5921 107.1167,7.1201 Z M107.1047,14.7561 C107.1127,15.3511 107.5987,15.8341 108.1897,15.8341 C108.7817,15.8341 109.2537,15.3511 109.2457,14.7561 C109.2377,14.1621 108.7517,13.6801 108.1607,13.6801 C107.5697,13.6801 107.0967,14.1621 107.1047,14.7561 Z M107.0927,22.4411 C107.1007,23.1041 107.6397,23.6411 108.2967,23.6411 C108.9527,23.6411 109.4777,23.1041 109.4687,22.4411 C109.4587,21.7791 108.9197,21.2431 108.2637,21.2431 C107.6077,21.2431 107.0837,21.7791 107.0927,22.4411 Z M107.0797,30.1751 C107.0887,30.9061 107.6817,31.4991 108.4047,31.4991 C109.1267,31.4991 109.7027,30.9061 109.6927,30.1751 C109.6827,29.4451 109.0897,28.8531 108.3677,28.8531 C107.6467,28.8531 107.0697,29.4451 107.0797,30.1751 Z M107.0667,37.9591 C107.0767,38.7591 107.7247,39.4081 108.5127,39.4081 C109.3007,39.4081 109.9297,38.7591 109.9187,37.9591 C109.9077,37.1591 109.2597,36.5111 108.4727,36.5111 C107.6857,36.5111 107.0557,37.1591 107.0667,37.9591 Z M107.0537,45.7921 C107.0647,46.6631 107.7667,47.3691 108.6207,47.3691 C109.4757,47.3691 110.1587,46.6631 110.1457,45.7921 C110.1337,44.9231 109.4317,44.2181 108.5777,44.2181 C107.7247,44.2181 107.0427,44.9231 107.0537,45.7921 Z M107.0407,53.6771 C107.0537,54.6181 107.8097,55.3821 108.7307,55.3821 C109.6517,55.3821 110.3877,54.6181 110.3747,53.6771 C110.3607,52.7361 109.6037,51.9741 108.6837,51.9741 C107.7637,51.9741 107.0287,52.7361 107.0407,53.6771 Z M107.0277,61.6121 C107.0407,62.6251 107.8527,63.4481 108.8417,63.4481 C109.8297,63.4481 110.6187,62.6251 110.6047,61.6121 C110.5897,60.5991 109.7777,59.7791 108.7907,59.7791 C107.8047,59.7791 107.0147,60.5991 107.0277,61.6121 Z M98.7687,7.1201 C98.7747,7.7171 99.2617,8.2001 99.8557,8.2001 C100.4507,8.2001 100.9287,7.7171 100.9217,7.1201 C100.9157,6.5241 100.4287,6.0411 99.8337,6.0411 C99.2397,6.0411 98.7627,6.5241 98.7687,7.1201 Z M98.7297,14.7561 C98.7357,15.4201 99.2757,15.9581 99.9357,15.9581 C100.5957,15.9581 101.1247,15.4201 101.1167,14.7561 C101.1107,14.0931 100.5707,13.5561 99.9107,13.5561 C99.2517,13.5561 98.7227,14.0931 98.7297,14.7561 Z M98.6897,22.4411 C98.6977,23.1731 99.2907,23.7661 100.0157,23.7661 C100.7407,23.7661 101.3227,23.1731 101.3147,22.4411 C101.3067,21.7101 100.7127,21.1181 99.9887,21.1181 C99.2647,21.1181 98.6827,21.7101 98.6897,22.4411 Z M98.6507,30.1751 C98.6587,30.9751 99.3057,31.6251 100.0967,31.6251 C100.8877,31.6251 101.5217,30.9751 101.5127,30.1751 C101.5037,29.3751 100.8567,28.7271 100.0667,28.7271 C99.2767,28.7271 98.6427,29.3751 98.6507,30.1751 Z M98.6107,37.9591 C98.6187,38.8291 99.3207,39.5351 100.1777,39.5351 C101.0347,39.5351 101.7217,38.8291 101.7117,37.9591 C101.7027,37.0891 101.0007,36.3851 100.1457,36.3851 C99.2897,36.3851 98.6027,37.0891 98.6107,37.9591 Z M98.5707,45.7921 C98.5797,46.7331 99.3357,47.4961 100.2597,47.4961 C101.1827,47.4961 101.9237,46.7331 101.9127,45.7921 C101.9027,44.8521 101.1467,44.0911 100.2237,44.0911 C99.3027,44.0911 98.5617,44.8521 98.5707,45.7921 Z M98.5307,53.6771 C98.5397,54.6891 99.3507,55.5101 100.3417,55.5101 C101.3317,55.5101 102.1257,54.6891 102.1147,53.6771 C102.1037,52.6651 101.2927,51.8461 100.3037,51.8461 C99.3147,51.8461 98.5207,52.6651 98.5307,53.6771 Z M98.4897,61.6121 C98.4997,62.6971 99.3667,63.5771 100.4247,63.5771 C101.4827,63.5771 102.3297,62.6971 102.3187,61.6121 C102.3057,60.5281 101.4407,59.6501 100.3837,59.6501 C99.3277,59.6501 98.4797,60.5281 98.4897,61.6121 Z M90.4197,7.1201 C90.4237,7.7851 90.9647,8.3241 91.6277,8.3241 C92.2907,8.3241 92.8247,7.7851 92.8197,7.1201 C92.8147,6.4561 92.2737,5.9171 91.6117,5.9171 C90.9497,5.9171 90.4157,6.4561 90.4197,7.1201 Z M90.3537,14.7561 C90.3587,15.4891 90.9527,16.0821 91.6807,16.0821 C92.4087,16.0821 92.9947,15.4891 92.9897,14.7561 C92.9837,14.0241 92.3897,13.4321 91.6627,13.4321 C90.9357,13.4321 90.3497,14.0241 90.3537,14.7561 Z M90.2877,22.4411 C90.2927,23.2421 90.9407,23.8911 91.7337,23.8911 C92.5277,23.8911 93.1657,23.2421 93.1597,22.4411 C93.1547,21.6411 92.5067,20.9931 91.7147,20.9931 C90.9217,20.9931 90.2837,21.6411 90.2877,22.4411 Z M90.2217,30.1751 C90.2267,31.0451 90.9287,31.7511 91.7877,31.7511 C92.6477,31.7511 93.3387,31.0451 93.3327,30.1751 C93.3257,29.3061 92.6247,28.6011 91.7657,28.6011 C90.9077,28.6011 90.2167,29.3061 90.2217,30.1751 Z M90.1547,37.9591 C90.1607,38.8991 90.9157,39.6621 91.8417,39.6621 C92.7677,39.6621 93.5127,38.8991 93.5057,37.9591 C93.4987,37.0191 92.7427,36.2581 91.8187,36.2581 C90.8937,36.2581 90.1487,37.0191 90.1547,37.9591 Z M90.0877,45.7921 C90.0937,46.8041 90.9037,47.6241 91.8967,47.6241 C92.8887,47.6241 93.6877,46.8041 93.6797,45.7921 C93.6727,44.7821 92.8627,43.9631 91.8717,43.9631 C90.8797,43.9631 90.0817,44.7821 90.0877,45.7921 Z M90.0197,53.6771 C90.0267,54.7601 90.8907,55.6391 91.9507,55.6391 C93.0117,55.6391 93.8637,54.7601 93.8557,53.6771 C93.8467,52.5941 92.9827,51.7181 91.9247,51.7181 C90.8667,51.7181 90.0127,52.5941 90.0197,53.6771 Z M89.9517,61.6121 C89.9587,62.7681 90.8787,63.7061 92.0067,63.7061 C93.1347,63.7061 94.0407,62.7681 94.0327,61.6121 C94.0237,60.4571 93.1037,59.5211 91.9777,59.5211 C90.8517,59.5211 89.9447,60.4571 89.9517,61.6121 Z M82.0707,7.1201 C82.0737,7.8531 82.6677,8.4481 83.3987,8.4481 C84.1297,8.4481 84.7197,7.8531 84.7167,7.1201 C84.7137,6.3881 84.1197,5.7941 83.3887,5.7941 C82.6587,5.7941 82.0687,6.3881 82.0707,7.1201 Z M81.9787,14.7561 C81.9807,15.5581 82.6287,16.2071 83.4247,16.2071 C84.2207,16.2071 84.8647,15.5581 84.8607,14.7561 C84.8577,13.9561 84.2107,13.3071 83.4147,13.3071 C82.6197,13.3071 81.9767,13.9561 81.9787,14.7561 Z M81.8867,22.4411 C81.8887,23.3111 82.5897,24.0161 83.4517,24.0161 C84.3137,24.0161 85.0097,23.3111 85.0057,22.4411 C85.0027,21.5721 84.3017,20.8681 83.4407,20.8681 C82.5797,20.8681 81.8837,21.5721 81.8867,22.4411 Z M81.7927,30.1751 C81.7957,31.1151 82.5507,31.8771 83.4787,31.8771 C84.4067,31.8771 85.1567,31.1151 85.1527,30.1751 C85.1487,29.2361 84.3937,28.4761 83.4667,28.4761 C82.5397,28.4761 81.7907,29.2361 81.7927,30.1751 Z M81.6997,37.9591 C81.7017,38.9691 82.5107,39.7881 83.5057,39.7881 C84.5007,39.7881 85.3037,38.9691 85.2997,37.9591 C85.2947,36.9501 84.4867,36.1321 83.4927,36.1321 C82.4997,36.1321 81.6967,36.9501 81.6997,37.9591 Z M81.6047,45.7921 C81.6077,46.8741 82.4707,47.7521 83.5327,47.7521 C84.5947,47.7521 85.4517,46.8741 85.4477,45.7921 C85.4427,44.7121 84.5797,43.8361 83.5187,43.8361 C82.4587,43.8361 81.6017,44.7121 81.6047,45.7921 Z M81.5097,53.6771 C81.5127,54.8311 82.4307,55.7671 83.5597,55.7671 C84.6897,55.7671 85.6007,54.8311 85.5957,53.6771 C85.5917,52.5231 84.6737,51.5901 83.5457,51.5901 C82.4187,51.5901 81.5067,52.5231 81.5097,53.6771 Z M81.4137,61.6121 C81.4167,62.8391 82.3897,63.8351 83.5877,63.8351 C84.7847,63.8351 85.7517,62.8391 85.7457,61.6121 C85.7407,60.3861 84.7677,59.3921 83.5727,59.3921 C82.3767,59.3921 81.4107,60.3861 81.4137,61.6121 Z M73.7217,7.1201 C73.7217,7.9211 74.3687,8.5711 75.1677,8.5711 C75.9677,8.5711 76.6147,7.9211 76.6147,7.1201 C76.6137,6.3191 75.9667,5.6711 75.1677,5.6711 C74.3697,5.6711 73.7227,6.3191 73.7217,7.1201 Z M73.6037,14.7561 C73.6027,15.6261 74.3037,16.3311 75.1677,16.3311 C76.0327,16.3311 76.7327,15.6261 76.7327,14.7561 C76.7317,13.8871 76.0317,13.1831 75.1677,13.1831 C74.3047,13.1831 73.6037,13.8871 73.6037,14.7561 Z M73.4847,22.4411 C73.4837,23.3801 74.2377,24.1421 75.1677,24.1421 C76.0987,24.1421 76.8527,23.3801 76.8517,22.4411 C76.8507,21.5031 76.0967,20.7431 75.1677,20.7431 C74.2387,20.7431 73.4847,21.5031 73.4847,22.4411 Z M73.3647,30.1751 C73.3637,31.1841 74.1707,32.0031 75.1677,32.0031 C76.1647,32.0031 76.9727,31.1841 76.9717,30.1751 C76.9707,29.1671 76.1637,28.3501 75.1677,28.3501 C74.1727,28.3501 73.3647,29.1671 73.3647,30.1751 Z M73.2427,37.9591 C73.2417,39.0391 74.1037,39.9151 75.1677,39.9151 C76.2317,39.9151 77.0937,39.0391 77.0927,37.9591 C77.0917,36.8791 76.2297,36.0051 75.1677,36.0051 C74.1057,36.0051 73.2437,36.8791 73.2427,37.9591 Z M73.1217,45.7921 C73.1207,46.9451 74.0367,47.8801 75.1677,47.8801 C76.2997,47.8801 77.2157,46.9451 77.2147,45.7921 C77.2137,44.6411 76.2977,43.7091 75.1677,43.7091 C74.0387,43.7091 73.1227,44.6411 73.1217,45.7921 Z M72.9987,53.6771 C72.9977,54.9021 73.9697,55.8961 75.1677,55.8961 C76.3667,55.8961 77.3377,54.9021 77.3367,53.6771 C77.3357,52.4531 76.3647,51.4611 75.1677,51.4611 C73.9707,51.4611 73.0007,52.4531 72.9987,53.6771 Z M72.8757,61.6121 C72.8747,62.9111 73.9007,63.9651 75.1677,63.9651 C76.4347,63.9651 77.4617,62.9111 77.4597,61.6121 C77.4587,60.3141 76.4327,59.2641 75.1677,59.2641 C73.9037,59.2641 72.8767,60.3141 72.8757,61.6121 Z M65.3737,7.1201 C65.3697,7.9901 66.0697,8.6951 66.9367,8.6951 C67.8047,8.6951 68.5097,7.9901 68.5117,7.1201 C68.5137,6.2511 67.8137,5.5471 66.9477,5.5471 C66.0817,5.5471 65.3767,6.2511 65.3737,7.1201 Z M65.2277,14.7561 C65.2237,15.6951 65.9777,16.4561 66.9107,16.4561 C67.8437,16.4561 68.6017,15.6951 68.6047,14.7561 C68.6067,13.8191 67.8537,13.0591 66.9217,13.0591 C65.9907,13.0591 65.2317,13.8191 65.2277,14.7561 Z M65.0817,22.4411 C65.0777,23.4491 65.8847,24.2671 66.8837,24.2671 C67.8827,24.2671 68.6947,23.4491 68.6977,22.4411 C68.6997,21.4341 67.8937,20.6181 66.8957,20.6181 C65.8987,20.6181 65.0867,21.4341 65.0817,22.4411 Z M64.9347,30.1751 C64.9307,31.2541 65.7907,32.1291 66.8567,32.1291 C67.9227,32.1291 68.7887,31.2541 68.7917,30.1751 C68.7947,29.0981 67.9337,28.2241 66.8697,28.2241 C65.8057,28.2241 64.9397,29.0981 64.9347,30.1751 Z M64.7877,37.9591 C64.7827,39.1091 65.6967,40.0421 66.8297,40.0421 C67.9627,40.0421 68.8837,39.1091 68.8867,37.9591 C68.8887,36.8091 67.9747,35.8791 66.8447,35.8791 C65.7127,35.8791 64.7927,36.8091 64.7877,37.9591 Z M64.6387,45.7921 C64.6337,47.0151 65.6017,48.0071 66.8027,48.0071 C68.0027,48.0071 68.9787,47.0151 68.9817,45.7921 C68.9847,44.5711 68.0157,43.5811 66.8177,43.5811 C65.6197,43.5811 64.6437,44.5711 64.6387,45.7921 Z M64.4887,53.6771 C64.4827,54.9731 65.5067,56.0241 66.7747,56.0241 C68.0437,56.0241 69.0747,54.9731 69.0777,53.6771 C69.0807,52.3821 68.0567,51.3331 66.7907,51.3331 C65.5257,51.3331 64.4947,52.3821 64.4887,53.6771 Z M64.3377,61.6121 C64.3317,62.9821 65.4107,64.0941 66.7477,64.0941 C68.0837,64.0941 69.1707,62.9821 69.1737,61.6121 C69.1777,60.2431 68.0987,59.1351 66.7647,59.1351 C65.4297,59.1351 64.3447,60.2431 64.3377,61.6121 Z M57.0247,7.1201 C57.0177,8.0571 57.7697,8.8181 58.7047,8.8181 C59.6397,8.8181 60.4037,8.0571 60.4087,7.1201 C60.4147,6.1831 59.6617,5.4241 58.7287,5.4241 C57.7947,5.4241 57.0317,6.1831 57.0247,7.1201 Z M56.8527,14.7561 C56.8457,15.7641 57.6507,16.5801 58.6517,16.5801 C59.6537,16.5801 60.4697,15.7641 60.4757,14.7561 C60.4817,13.7501 59.6767,12.9351 58.6767,12.9351 C57.6777,12.9351 56.8607,13.7501 56.8527,14.7561 Z M56.6797,22.4411 C56.6717,23.5181 57.5307,24.3921 58.5987,24.3921 C59.6657,24.3921 60.5367,23.5181 60.5437,22.4411 C60.5507,21.3651 59.6917,20.4931 58.6247,20.4931 C57.5587,20.4931 56.6887,21.3651 56.6797,22.4411 Z M56.5067,30.1751 C56.4977,31.3241 57.4097,32.2551 58.5447,32.2551 C59.6797,32.2551 60.6047,31.3241 60.6117,30.1751 C60.6187,29.0281 59.7057,28.0991 58.5737,28.0991 C57.4407,28.0991 56.5147,29.0281 56.5067,30.1751 Z M56.3317,37.9591 C56.3227,39.1791 57.2887,40.1691 58.4907,40.1691 C59.6927,40.1691 60.6727,39.1791 60.6797,37.9591 C60.6867,36.7401 59.7207,35.7521 58.5207,35.7521 C57.3217,35.7521 56.3407,36.7401 56.3317,37.9591 Z M56.1557,45.7921 C56.1457,47.0861 57.1667,48.1351 58.4357,48.1351 C59.7057,48.1351 60.7417,47.0861 60.7487,45.7921 C60.7567,44.5001 59.7357,43.4541 58.4687,43.4541 C57.2007,43.4541 56.1657,44.5001 56.1557,45.7921 Z M55.9787,53.6771 C55.9677,55.0441 57.0437,56.1531 58.3817,56.1531 C59.7197,56.1531 60.8097,55.0441 60.8177,53.6771 C60.8257,52.3111 59.7497,51.2051 58.4147,51.2051 C57.0797,51.2051 55.9897,52.3111 55.9787,53.6771 Z M55.8007,61.6121 C55.7887,63.0541 56.9197,64.2241 58.3257,64.2241 C59.7327,64.2241 60.8797,63.0541 60.8877,61.6121 C60.8957,60.1721 59.7647,59.0061 58.3617,59.0061 C56.9587,59.0061 55.8117,60.1721 55.8007,61.6121 Z M48.6757,7.1201 C48.6647,8.1261 49.4687,8.9421 50.4717,8.9421 C51.4757,8.9421 52.2967,8.1261 52.3057,7.1201 C52.3157,6.1151 51.5117,5.3011 50.5097,5.3011 C49.5077,5.3011 48.6867,6.1151 48.6757,7.1201 Z M48.4777,14.7561 C48.4657,15.8321 49.3237,16.7051 50.3927,16.7051 C51.4627,16.7051 52.3377,15.8321 52.3477,14.7561 C52.3577,13.6821 51.5007,12.8111 50.4327,12.8111 C49.3647,12.8111 48.4897,13.6821 48.4777,14.7561 Z M48.2787,22.4411 C48.2657,23.5881 49.1767,24.5171 50.3127,24.5171 C51.4487,24.5171 52.3787,23.5881 52.3897,22.4411 C52.4007,21.2961 51.4897,20.3691 50.3547,20.3691 C49.2207,20.3691 48.2907,21.2961 48.2787,22.4411 Z M48.0777,30.1751 C48.0637,31.3931 49.0287,32.3811 50.2317,32.3811 C51.4347,32.3811 52.4197,31.3931 52.4307,30.1751 C52.4427,28.9581 51.4777,27.9731 50.2767,27.9731 C49.0757,27.9731 48.0917,28.9581 48.0777,30.1751 Z M47.8757,37.9591 C47.8617,39.2491 48.8797,40.2961 50.1507,40.2961 C51.4217,40.2961 52.4617,39.2491 52.4737,37.9591 C52.4857,36.6701 51.4667,35.6261 50.1987,35.6261 C48.9297,35.6261 47.8897,36.6701 47.8757,37.9591 Z M47.6727,45.7921 C47.6577,47.1561 48.7297,48.2631 50.0687,48.2631 C51.4077,48.2631 52.5037,47.1561 52.5157,45.7921 C52.5287,44.4301 51.4557,43.3271 50.1197,43.3271 C48.7837,43.3271 47.6877,44.4301 47.6727,45.7921 Z M47.4677,53.6771 C47.4517,55.1151 48.5787,56.2821 49.9867,56.2821 C51.3937,56.2821 52.5457,55.1151 52.5587,53.6771 C52.5717,52.2401 51.4447,51.0771 50.0397,51.0771 C48.6357,51.0771 47.4847,52.2401 47.4677,53.6771 Z M47.2627,61.6121 C47.2447,63.1251 48.4277,64.3531 49.9037,64.3531 C51.3797,64.3531 52.5877,63.1251 52.6017,61.6121 C52.6157,60.1001 51.4327,58.8771 49.9597,58.8771 C48.4877,58.8771 47.2797,60.1001 47.2627,61.6121 Z M40.3267,7.1201 C40.3117,8.1941 41.1677,9.0661 42.2387,9.0661 C43.3097,9.0661 44.1897,8.1941 44.2037,7.1201 C44.2177,6.0471 43.3617,5.1781 42.2917,5.1781 C41.2217,5.1781 40.3427,6.0471 40.3267,7.1201 Z M40.1017,14.7561 C40.0857,15.9011 40.9947,16.8291 42.1327,16.8291 C43.2707,16.8291 44.2047,15.9011 44.2197,14.7561 C44.2347,13.6131 43.3247,12.6871 42.1887,12.6871 C41.0537,12.6871 40.1187,13.6131 40.1017,14.7561 Z M39.8767,22.4411 C39.8587,23.6571 40.8207,24.6431 42.0257,24.6431 C43.2307,24.6431 44.2197,23.6571 44.2357,22.4411 C44.2507,21.2271 43.2887,20.2441 42.0857,20.2441 C40.8837,20.2441 39.8937,21.2271 39.8767,22.4411 Z M39.6487,30.1751 C39.6297,31.4631 40.6457,32.5071 41.9177,32.5071 C43.1897,32.5071 44.2347,31.4631 44.2507,30.1751 C44.2677,28.8891 43.2517,27.8481 41.9817,27.8481 C40.7117,27.8481 39.6677,28.8891 39.6487,30.1751 Z M39.4197,37.9591 C39.3997,39.3191 40.4697,40.4231 41.8097,40.4231 C43.1497,40.4231 44.2497,39.3191 44.2667,37.9591 C44.2837,36.6001 43.2147,35.4991 41.8767,35.4991 C40.5397,35.4991 39.4397,36.6001 39.4197,37.9591 Z M39.1897,45.7921 C39.1687,47.2261 40.2927,48.3911 41.7007,48.3911 C43.1087,48.3911 44.2647,47.2261 44.2837,45.7921 C44.3017,44.3601 43.1767,43.2001 41.7717,43.2001 C40.3667,43.2001 39.2107,44.3601 39.1897,45.7921 Z M38.9577,53.6771 C38.9347,55.1851 40.1147,56.4101 41.5907,56.4101 C43.0677,56.4101 44.2807,55.1851 44.2997,53.6771 C44.3187,52.1691 43.1387,50.9491 41.6657,50.9491 C40.1927,50.9491 38.9797,52.1691 38.9577,53.6771 Z M38.7237,61.6121 C38.7007,63.1971 39.9347,64.4831 41.4807,64.4831 C43.0267,64.4831 44.2957,63.1971 44.3157,61.6121 C44.3357,60.0291 43.1007,58.7481 41.5587,58.7481 C40.0167,58.7481 38.7477,60.0291 38.7237,61.6121 Z M31.9777,7.1201 C31.9577,8.2631 32.8647,9.1891 34.0047,9.1891 C35.1437,9.1891 36.0827,8.2631 36.1007,7.1201 C36.1197,5.9791 35.2127,5.0541 34.0747,5.0541 C32.9377,5.0541 31.9987,5.9791 31.9777,7.1201 Z M31.7267,14.7561 C31.7047,15.9701 32.6647,16.9531 33.8717,16.9531 C35.0777,16.9531 36.0717,15.9701 36.0917,14.7561 C36.1107,13.5441 35.1507,12.5631 33.9467,12.5631 C32.7427,12.5631 31.7487,13.5441 31.7267,14.7561 Z M31.4737,22.4411 C31.4507,23.7261 32.4647,24.7681 33.7377,24.7681 C35.0117,24.7681 36.0607,23.7261 36.0807,22.4411 C36.1017,21.1581 35.0887,20.1191 33.8177,20.1191 C32.5467,20.1191 31.4977,21.1581 31.4737,22.4411 Z M31.2197,30.1751 C31.1957,31.5321 32.2627,32.6341 33.6037,32.6341 C34.9447,32.6341 36.0487,31.5321 36.0707,30.1751 C36.0927,28.8201 35.0257,27.7221 33.6877,27.7221 C32.3487,27.7221 31.2447,28.8201 31.2197,30.1751 Z M30.9637,37.9591 C30.9377,39.3891 32.0587,40.5501 33.4687,40.5501 C34.8767,40.5501 36.0377,39.3891 36.0607,37.9591 C36.0837,36.5301 34.9627,35.3731 33.5567,35.3731 C32.1507,35.3731 30.9897,36.5301 30.9637,37.9591 Z M30.7067,45.7921 C30.6797,47.2971 31.8547,48.5181 33.3317,48.5181 C34.8087,48.5181 36.0267,47.2971 36.0507,45.7921 C36.0747,44.2891 34.8987,43.0731 33.4247,43.0731 C31.9507,43.0731 30.7337,44.2891 30.7067,45.7921 Z M30.4477,53.6771 C30.4187,55.2571 31.6487,56.5391 33.1947,56.5391 C34.7407,56.5391 36.0147,55.2571 36.0397,53.6771 C36.0647,52.0991 34.8347,50.8211 33.2927,50.8211 C31.7497,50.8211 30.4757,52.0991 30.4477,53.6771 Z M30.1857,61.6121 C30.1557,63.2681 31.4407,64.6121 33.0567,64.6121 C34.6727,64.6121 36.0027,63.2681 36.0297,61.6121 C36.0557,59.9581 34.7707,58.6191 33.1587,58.6191 C31.5477,58.6191 30.2167,59.9581 30.1857,61.6121 Z M23.6297,7.1201 C23.6037,8.3311 24.5617,9.3131 25.7687,9.3131 C26.9767,9.3131 27.9747,8.3311 27.9987,7.1201 C28.0227,5.9111 27.0647,4.9311 25.8587,4.9311 C24.6537,4.9311 23.6557,5.9111 23.6297,7.1201 Z M23.3517,14.7561 C23.3247,16.0381 24.3347,17.0781 25.6097,17.0781 C26.8847,17.0781 27.9377,16.0381 27.9627,14.7561 C27.9877,13.4761 26.9767,12.4391 25.7047,12.4391 C24.4327,12.4391 23.3787,13.4761 23.3517,14.7561 Z M23.0727,22.4411 C23.0427,23.7951 24.1077,24.8931 25.4497,24.8931 C26.7907,24.8931 27.9007,23.7951 27.9267,22.4411 C27.9527,21.0891 26.8887,19.9941 25.5497,19.9941 C24.2107,19.9941 23.1017,21.0891 23.0727,22.4411 Z M22.7907,30.1751 C22.7607,31.6021 23.8777,32.7601 25.2877,32.7601 C26.6977,32.7601 27.8627,31.6021 27.8907,30.1751 C27.9187,28.7501 26.8007,27.5961 25.3937,27.5961 C23.9877,27.5961 22.8217,28.7501 22.7907,30.1751 Z M22.5087,37.9591 C22.4757,39.4591 23.6477,40.6771 25.1257,40.6771 C26.6037,40.6771 27.8247,39.4591 27.8537,37.9591 C27.8837,36.4601 26.7117,35.2461 25.2367,35.2461 C23.7627,35.2461 22.5407,36.4601 22.5087,37.9591 Z M22.2227,45.7921 C22.1897,47.3681 23.4157,48.6461 24.9617,48.6461 C26.5087,48.6461 27.7867,47.3681 27.8177,45.7921 C27.8477,44.2191 26.6217,42.9461 25.0787,42.9461 C23.5357,42.9461 22.2577,44.2191 22.2227,45.7921 Z M21.9367,53.6771 C21.9007,55.3281 23.1817,56.6671 24.7977,56.6671 C26.4127,56.6671 27.7487,55.3281 27.7807,53.6771 C27.8127,52.0281 26.5317,50.6931 24.9197,50.6931 C23.3077,50.6931 21.9727,52.0281 21.9367,53.6771 Z M21.6487,61.6121 C21.6107,63.3391 22.9467,64.7421 24.6317,64.7421 C26.3167,64.7421 27.7097,63.3391 27.7437,61.6121 C27.7767,59.8871 26.4407,58.4901 24.7597,58.4901 C23.0787,58.4901 21.6857,59.8871 21.6487,61.6121 Z M15.2807,7.1201 C15.2487,8.3991 16.2567,9.4371 17.5327,9.4371 C18.8087,9.4371 19.8667,8.3991 19.8957,7.1201 C19.9257,5.8431 18.9167,4.8071 17.6437,4.8071 C16.3697,4.8071 15.3117,5.8431 15.2807,7.1201 Z M14.9767,14.7561 C14.9427,16.1071 16.0037,17.2031 17.3467,17.2031 C18.6897,17.2031 19.8037,16.1071 19.8347,14.7561 C19.8657,13.4071 18.8047,12.3151 17.4637,12.3151 C16.1237,12.3151 15.0097,13.4071 14.9767,14.7561 Z M14.6707,22.4411 C14.6347,23.8641 15.7497,25.0191 17.1597,25.0191 C18.5707,25.0191 19.7407,23.8641 19.7727,22.4411 C19.8047,21.0201 18.6907,19.8691 17.2837,19.8691 C15.8757,19.8691 14.7057,21.0201 14.6707,22.4411 Z M14.3627,30.1751 C14.3247,31.6711 15.4927,32.8861 16.9717,32.8861 C18.4497,32.8861 19.6767,31.6711 19.7107,30.1751 C19.7447,28.6811 18.5757,27.4711 17.1007,27.4711 C15.6257,27.4711 14.3997,28.6811 14.3627,30.1751 Z M14.0527,37.9591 C14.0127,39.5291 15.2347,40.8041 16.7817,40.8041 C18.3287,40.8041 19.6117,39.5291 19.6477,37.9591 C19.6837,36.3911 18.4617,35.1201 16.9177,35.1201 C15.3747,35.1201 14.0917,36.3911 14.0527,37.9591 Z M13.7407,45.7921 C13.6987,47.4381 14.9747,48.7741 16.5917,48.7741 C18.2067,48.7741 19.5477,47.4381 19.5847,45.7921 C19.6217,44.1491 18.3457,42.8181 16.7337,42.8181 C15.1217,42.8181 13.7817,44.1491 13.7407,45.7921 Z M13.4267,53.6771 C13.3827,55.3981 14.7137,56.7961 16.3987,56.7961 C18.0847,56.7961 19.4817,55.3981 19.5207,53.6771 C19.5597,51.9571 18.2287,50.5651 16.5487,50.5651 C14.8667,50.5651 13.4697,51.9571 13.4267,53.6771 Z M13.1107,61.6121 C13.0647,63.4111 14.4507,64.8711 16.2057,64.8711 C17.9607,64.8711 19.4167,63.4111 19.4577,61.6121 C19.4977,59.8161 18.1117,58.3611 16.3617,58.3611 C14.6117,58.3611 13.1557,59.8161 13.1107,61.6121 Z M6.9317,7.1201 C6.8937,8.4671 7.9517,9.5601 9.2957,9.5601 C10.6397,9.5601 11.7587,8.4671 11.7937,7.1201 C11.8287,5.7741 10.7707,4.6841 9.4297,4.6841 C8.0877,4.6841 6.9697,5.7741 6.9317,7.1201 Z M6.6007,14.7561 C6.5607,16.1761 7.6717,17.3281 9.0837,17.3281 C10.4947,17.3281 11.6687,16.1761 11.7067,14.7561 C11.7437,13.3391 10.6327,12.1911 9.2237,12.1911 C7.8157,12.1911 6.6407,13.3391 6.6007,14.7561 Z M6.2677,22.4411 C6.2257,23.9331 7.3907,25.1441 8.8697,25.1441 C10.3487,25.1441 11.5797,23.9331 11.6187,22.4411 C11.6577,20.9511 10.4927,19.7441 9.0167,19.7441 C7.5417,19.7441 6.3107,20.9511 6.2677,22.4411 Z M5.9337,30.1751 C5.8887,31.7411 7.1067,33.0121 8.6547,33.0121 C10.2017,33.0121 11.4897,31.7411 11.5307,30.1751 C11.5717,28.6111 10.3527,27.3451 8.8087,27.3451 C7.2657,27.3451 5.9777,28.6111 5.9337,30.1751 Z M5.5967,37.9591 C5.5497,39.5991 6.8217,40.9311 8.4377,40.9311 C10.0537,40.9311 11.3987,39.5991 11.4417,37.9591 C11.4847,36.3211 10.2117,34.9941 8.5997,34.9941 C6.9877,34.9941 5.6427,36.3211 5.5967,37.9591 Z M5.2577,45.7921 C5.2077,47.5091 6.5337,48.9021 8.2197,48.9021 C9.9047,48.9021 11.3067,47.5091 11.3517,45.7921 C11.3967,44.0781 10.0707,42.6911 8.3897,42.6911 C6.7087,42.6911 5.3057,44.0781 5.2577,45.7921 Z M4.9157,53.6771 C4.8647,55.4701 6.2447,56.9251 7.9997,56.9251 C9.7547,56.9251 11.2157,55.4701 11.2617,53.6771 C11.3087,51.8871 9.9277,50.4371 8.1777,50.4371 C6.4277,50.4371 4.9677,51.8871 4.9157,53.6771 Z M4.5727,61.6121 C4.5187,63.4821 5.9547,65.0001 7.7797,65.0001 C9.6037,65.0001 11.1227,63.4821 11.1717,61.6121 C11.2197,59.7451 9.7837,58.2321 7.9647,58.2321 C6.1447,58.2321 4.6257,59.7451 4.5727,61.6121 Z M147.7747,68.8891 L2.5697,68.8891 C1.4717,68.8891 0.6097,67.9741 0.6437,66.8461 L2.5997,2.1401 C2.6317,1.0721 3.5237,0.2061 4.5907,0.2061 L145.7537,0.2061 C146.8207,0.2061 147.7117,1.0721 147.7437,2.1401 L149.7007,66.8461 C149.7347,67.9741 148.8717,68.8891 147.7747,68.8891 Z" id="Stroke-179" stroke="#000000" stroke-linecap="round" stroke-linejoin="round"></path>
                <path d="M140.5127,7.1201 C140.5197,7.3751 140.7317,7.5821 140.9867,7.5821 C141.2407,7.5821 141.4417,7.3751 141.4347,7.1201 C141.4277,6.8651 141.2157,6.6581 140.9607,6.6581 C140.7067,6.6581 140.5057,6.8651 140.5127,7.1201 M140.6057,14.7561 C140.6147,15.0771 140.8797,15.3361 141.1987,15.3361 C141.5167,15.3361 141.7677,15.0771 141.7587,14.7561 C141.7497,14.4361 141.4847,14.1771 141.1667,14.1771 C140.8477,14.1771 140.5967,14.4361 140.6057,14.7561 M140.6997,22.4411 C140.7107,22.8281 141.0297,23.1411 141.4117,23.1411 C141.7947,23.1411 142.0957,22.8281 142.0847,22.4411 C142.0747,22.0551 141.7557,21.7431 141.3737,21.7431 C140.9917,21.7431 140.6897,22.0551 140.6997,22.4411 M140.7947,30.1751 C140.8067,30.6281 141.1797,30.9951 141.6267,30.9951 C142.0737,30.9951 142.4267,30.6281 142.4137,30.1751 C142.4007,29.7231 142.0287,29.3561 141.5817,29.3561 C141.1347,29.3561 140.7827,29.7231 140.7947,30.1751 M140.8897,37.9591 C140.9047,38.4791 141.3307,38.9011 141.8427,38.9011 C142.3547,38.9011 142.7587,38.4791 142.7437,37.9591 C142.7297,37.4391 142.3037,37.0171 141.7917,37.0171 C141.2797,37.0171 140.8757,37.4391 140.8897,37.9591 M140.9857,45.7921 C141.0017,46.3811 141.4827,46.8581 142.0607,46.8581 C142.6377,46.8581 143.0937,46.3811 143.0767,45.7921 C143.0607,45.2041 142.5797,44.7271 142.0027,44.7271 C141.4257,44.7271 140.9707,45.2041 140.9857,45.7921 M141.0827,53.6771 C141.0997,54.3341 141.6367,54.8681 142.2797,54.8681 C142.9237,54.8681 143.4297,54.3341 143.4117,53.6771 C143.3937,53.0191 142.8577,52.4871 142.2147,52.4871 C141.5717,52.4871 141.0647,53.0191 141.0827,53.6771 M141.1797,61.6121 C141.1997,62.3401 141.7907,62.9301 142.4997,62.9301 C143.2097,62.9301 143.7687,62.3401 143.7487,61.6121 C143.7287,60.8841 143.1377,60.2951 142.4287,60.2951 C141.7197,60.2951 141.1597,60.8841 141.1797,61.6121 M132.1637,7.1201 C132.1717,7.4441 132.4397,7.7061 132.7617,7.7061 C133.0847,7.7061 133.3397,7.4441 133.3317,7.1201 C133.3247,6.7971 133.0557,6.5351 132.7337,6.5351 C132.4107,6.5351 132.1567,6.7971 132.1637,7.1201 M132.2307,14.7561 C132.2397,15.1451 132.5607,15.4611 132.9477,15.4611 C133.3337,15.4611 133.6397,15.1451 133.6307,14.7561 C133.6207,14.3681 133.3007,14.0531 132.9137,14.0531 C132.5277,14.0531 132.2217,14.3681 132.2307,14.7561 M132.2987,22.4411 C132.3087,22.8961 132.6827,23.2661 133.1347,23.2661 C133.5857,23.2661 133.9417,22.8961 133.9307,22.4411 C133.9197,21.9861 133.5457,21.6181 133.0947,21.6181 C132.6437,21.6181 132.2877,21.9861 132.2987,22.4411 M132.3657,30.1751 C132.3787,30.6981 132.8067,31.1211 133.3227,31.1211 C133.8387,31.1211 134.2457,30.6981 134.2337,30.1751 C134.2207,29.6531 133.7927,29.2301 133.2767,29.2301 C132.7617,29.2301 132.3537,29.6531 132.3657,30.1751 M132.4337,37.9591 C132.4487,38.5491 132.9307,39.0281 133.5117,39.0281 C134.0927,39.0281 134.5527,38.5491 134.5377,37.9591 C134.5237,37.3691 134.0407,36.8911 133.4607,36.8911 C132.8797,36.8911 132.4207,37.3691 132.4337,37.9591 M132.5027,45.7921 C132.5187,46.4521 133.0547,46.9861 133.7017,46.9861 C134.3487,46.9861 134.8607,46.4521 134.8447,45.7921 C134.8277,45.1341 134.2907,44.6001 133.6447,44.6001 C132.9987,44.6001 132.4877,45.1341 132.5027,45.7921 M132.5717,53.6771 C132.5887,54.4051 133.1807,54.9961 133.8937,54.9961 C134.6067,54.9961 135.1707,54.4051 135.1527,53.6771 C135.1347,52.9491 134.5427,52.3581 133.8307,52.3581 C133.1187,52.3581 132.5547,52.9491 132.5717,53.6771 M132.6417,61.6121 C132.6597,62.4111 133.3067,63.0591 134.0867,63.0591 C134.8667,63.0591 135.4827,62.4111 135.4627,61.6121 C135.4437,60.8131 134.7957,60.1661 134.0177,60.1661 C133.2387,60.1661 132.6227,60.8131 132.6417,61.6121 M123.8147,7.1201 C123.8227,7.5121 124.1457,7.8291 124.5367,7.8291 C124.9277,7.8291 125.2377,7.5121 125.2297,7.1201 C125.2207,6.7281 124.8977,6.4111 124.5077,6.4111 C124.1167,6.4111 123.8067,6.7281 123.8147,7.1201 M123.8557,14.7561 C123.8647,15.2141 124.2407,15.5851 124.6957,15.5851 C125.1507,15.5851 125.5117,15.2141 125.5027,14.7561 C125.4927,14.2991 125.1167,13.9281 124.6617,13.9281 C124.2067,13.9281 123.8457,14.2991 123.8557,14.7561 M123.8957,22.4411 C123.9067,22.9661 124.3367,23.3911 124.8557,23.3911 C125.3757,23.3911 125.7877,22.9661 125.7767,22.4411 C125.7657,21.9171 125.3357,21.4931 124.8167,21.4931 C124.2977,21.4931 123.8857,21.9171 123.8957,22.4411 M123.9367,30.1751 C123.9497,30.7671 124.4327,31.2471 125.0167,31.2471 C125.6017,31.2471 126.0657,30.7671 126.0537,30.1751 C126.0407,29.5841 125.5567,29.1041 124.9727,29.1041 C124.3887,29.1041 123.9257,29.5841 123.9367,30.1751 M123.9787,37.9591 C123.9917,38.6191 124.5297,39.1551 125.1797,39.1551 C125.8297,39.1551 126.3457,38.6191 126.3317,37.9591 C126.3177,37.2991 125.7797,36.7651 125.1307,36.7651 C124.4807,36.7651 123.9657,37.2991 123.9787,37.9591 M124.0197,45.7921 C124.0337,46.5221 124.6267,47.1141 125.3427,47.1141 C126.0587,47.1141 126.6267,46.5221 126.6117,45.7921 C126.5957,45.0631 126.0037,44.4731 125.2887,44.4731 C124.5737,44.4731 124.0057,45.0631 124.0197,45.7921 M124.0617,53.6771 C124.0777,54.4761 124.7247,55.1251 125.5067,55.1251 C126.2897,55.1251 126.9097,54.4761 126.8927,53.6771 C126.8757,52.8771 126.2287,52.2301 125.4477,52.2301 C124.6657,52.2301 124.0457,52.8771 124.0617,53.6771 M124.1037,61.6121 C124.1207,62.4821 124.8237,63.1891 125.6727,63.1891 C126.5217,63.1891 127.1947,62.4821 127.1767,61.6121 C127.1587,60.7421 126.4557,60.0371 125.6077,60.0371 C124.7597,60.0371 124.0867,60.7421 124.1037,61.6121 M115.4667,7.1201 C115.4737,7.5801 115.8517,7.9531 116.3107,7.9531 C116.7697,7.9531 117.1347,7.5801 117.1267,7.1201 C117.1187,6.6601 116.7407,6.2871 116.2827,6.2871 C115.8237,6.2871 115.4587,6.6601 115.4667,7.1201 M115.4797,14.7561 C115.4887,15.2831 115.9197,15.7091 116.4437,15.7091 C116.9667,15.7091 117.3837,15.2831 117.3737,14.7561 C117.3647,14.2301 116.9337,13.8041 116.4107,13.8041 C115.8877,13.8041 115.4707,14.2301 115.4797,14.7561 M115.4937,22.4411 C115.5037,23.0351 115.9887,23.5161 116.5767,23.5161 C117.1647,23.5161 117.6337,23.0351 117.6227,22.4411 C117.6127,21.8481 117.1277,21.3681 116.5397,21.3681 C115.9527,21.3681 115.4847,21.8481 115.4937,22.4411 M115.5087,30.1751 C115.5187,30.8371 116.0577,31.3731 116.7107,31.3731 C117.3647,31.3731 117.8847,30.8371 117.8727,30.1751 C117.8617,29.5141 117.3227,28.9791 116.6707,28.9791 C116.0177,28.9791 115.4967,29.5141 115.5087,30.1751 M115.5227,37.9591 C115.5347,38.6891 116.1277,39.2811 116.8457,39.2811 C117.5657,39.2811 118.1377,38.6891 118.1247,37.9591 C118.1127,37.2291 117.5197,36.6381 116.8017,36.6381 C116.0827,36.6381 115.5107,37.2291 115.5227,37.9591 M115.5367,45.7921 C115.5497,46.5921 116.1977,47.2411 116.9827,47.2411 C117.7677,47.2411 118.3927,46.5921 118.3787,45.7921 C118.3647,44.9931 117.7177,44.3461 116.9327,44.3461 C116.1487,44.3461 115.5237,44.9931 115.5367,45.7921 M115.5517,53.6771 C115.5657,54.5471 116.2677,55.2531 117.1197,55.2531 C117.9707,55.2531 118.6487,54.5471 118.6337,53.6771 C118.6177,52.8071 117.9157,52.1021 117.0657,52.1021 C116.2147,52.1021 115.5367,52.8071 115.5517,53.6771 M115.5657,61.6121 C115.5807,62.5541 116.3387,63.3181 117.2577,63.3181 C118.1767,63.3181 118.9077,62.5541 118.8907,61.6121 C118.8737,60.6711 118.1167,59.9081 117.1987,59.9081 C116.2817,59.9081 115.5507,60.6711 115.5657,61.6121 M107.1167,7.1201 C107.1247,7.6481 107.5567,8.0771 108.0837,8.0771 C108.6107,8.0771 109.0317,7.6481 109.0247,7.1201 C109.0167,6.5921 108.5837,6.1641 108.0577,6.1641 C107.5317,6.1641 107.1107,6.5921 107.1167,7.1201 M107.1047,14.7561 C107.1127,15.3511 107.5987,15.8341 108.1897,15.8341 C108.7817,15.8341 109.2537,15.3511 109.2457,14.7561 C109.2377,14.1621 108.7517,13.6801 108.1607,13.6801 C107.5697,13.6801 107.0967,14.1621 107.1047,14.7561 M107.0927,22.4411 C107.1007,23.1041 107.6397,23.6411 108.2967,23.6411 C108.9527,23.6411 109.4777,23.1041 109.4687,22.4411 C109.4587,21.7791 108.9197,21.2431 108.2637,21.2431 C107.6077,21.2431 107.0837,21.7791 107.0927,22.4411 M107.0797,30.1751 C107.0887,30.9061 107.6817,31.4991 108.4047,31.4991 C109.1267,31.4991 109.7027,30.9061 109.6927,30.1751 C109.6827,29.4451 109.0897,28.8531 108.3677,28.8531 C107.6467,28.8531 107.0697,29.4451 107.0797,30.1751 M107.0667,37.9591 C107.0767,38.7591 107.7247,39.4081 108.5127,39.4081 C109.3007,39.4081 109.9297,38.7591 109.9187,37.9591 C109.9077,37.1591 109.2597,36.5111 108.4727,36.5111 C107.6857,36.5111 107.0557,37.1591 107.0667,37.9591 M107.0537,45.7921 C107.0647,46.6631 107.7667,47.3691 108.6207,47.3691 C109.4757,47.3691 110.1587,46.6631 110.1457,45.7921 C110.1337,44.9231 109.4317,44.2181 108.5777,44.2181 C107.7247,44.2181 107.0427,44.9231 107.0537,45.7921 M107.0407,53.6771 C107.0537,54.6181 107.8097,55.3821 108.7307,55.3821 C109.6517,55.3821 110.3877,54.6181 110.3747,53.6771 C110.3607,52.7361 109.6037,51.9741 108.6837,51.9741 C107.7637,51.9741 107.0287,52.7361 107.0407,53.6771 M107.0277,61.6121 C107.0407,62.6251 107.8527,63.4481 108.8417,63.4481 C109.8297,63.4481 110.6187,62.6251 110.6047,61.6121 C110.5897,60.5991 109.7777,59.7791 108.7907,59.7791 C107.8047,59.7791 107.0147,60.5991 107.0277,61.6121 M98.7687,7.1201 C98.7747,7.7171 99.2617,8.2001 99.8557,8.2001 C100.4507,8.2001 100.9287,7.7171 100.9217,7.1201 C100.9157,6.5241 100.4287,6.0411 99.8337,6.0411 C99.2397,6.0411 98.7627,6.5241 98.7687,7.1201 M98.7297,14.7561 C98.7357,15.4201 99.2757,15.9581 99.9357,15.9581 C100.5957,15.9581 101.1247,15.4201 101.1167,14.7561 C101.1107,14.0931 100.5707,13.5561 99.9107,13.5561 C99.2517,13.5561 98.7227,14.0931 98.7297,14.7561 M98.6897,22.4411 C98.6977,23.1731 99.2907,23.7661 100.0157,23.7661 C100.7407,23.7661 101.3227,23.1731 101.3147,22.4411 C101.3067,21.7101 100.7127,21.1181 99.9887,21.1181 C99.2647,21.1181 98.6827,21.7101 98.6897,22.4411 M98.6507,30.1751 C98.6587,30.9751 99.3057,31.6251 100.0967,31.6251 C100.8877,31.6251 101.5217,30.9751 101.5127,30.1751 C101.5037,29.3751 100.8567,28.7271 100.0667,28.7271 C99.2767,28.7271 98.6427,29.3751 98.6507,30.1751 M98.6107,37.9591 C98.6187,38.8291 99.3207,39.5351 100.1777,39.5351 C101.0347,39.5351 101.7217,38.8291 101.7117,37.9591 C101.7027,37.0891 101.0007,36.3851 100.1457,36.3851 C99.2897,36.3851 98.6027,37.0891 98.6107,37.9591 M98.5707,45.7921 C98.5797,46.7331 99.3357,47.4961 100.2597,47.4961 C101.1827,47.4961 101.9237,46.7331 101.9127,45.7921 C101.9027,44.8521 101.1467,44.0911 100.2237,44.0911 C99.3027,44.0911 98.5617,44.8521 98.5707,45.7921 M98.5307,53.6771 C98.5397,54.6891 99.3507,55.5101 100.3417,55.5101 C101.3317,55.5101 102.1257,54.6891 102.1147,53.6771 C102.1037,52.6651 101.2927,51.8461 100.3037,51.8461 C99.3147,51.8461 98.5207,52.6651 98.5307,53.6771 M98.4897,61.6121 C98.4997,62.6971 99.3667,63.5771 100.4247,63.5771 C101.4827,63.5771 102.3297,62.6971 102.3187,61.6121 C102.3057,60.5281 101.4407,59.6501 100.3837,59.6501 C99.3277,59.6501 98.4797,60.5281 98.4897,61.6121 M90.4197,7.1201 C90.4237,7.7851 90.9647,8.3241 91.6277,8.3241 C92.2907,8.3241 92.8247,7.7851 92.8197,7.1201 C92.8147,6.4561 92.2737,5.9171 91.6117,5.9171 C90.9497,5.9171 90.4157,6.4561 90.4197,7.1201 M90.3537,14.7561 C90.3587,15.4891 90.9527,16.0821 91.6807,16.0821 C92.4087,16.0821 92.9947,15.4891 92.9897,14.7561 C92.9837,14.0241 92.3897,13.4321 91.6627,13.4321 C90.9357,13.4321 90.3497,14.0241 90.3537,14.7561 M90.2877,22.4411 C90.2927,23.2421 90.9407,23.8911 91.7337,23.8911 C92.5277,23.8911 93.1657,23.2421 93.1597,22.4411 C93.1547,21.6411 92.5067,20.9931 91.7147,20.9931 C90.9217,20.9931 90.2837,21.6411 90.2877,22.4411 M90.2217,30.1751 C90.2267,31.0451 90.9287,31.7511 91.7877,31.7511 C92.6477,31.7511 93.3387,31.0451 93.3327,30.1751 C93.3257,29.3061 92.6247,28.6011 91.7657,28.6011 C90.9077,28.6011 90.2167,29.3061 90.2217,30.1751 M90.1547,37.9591 C90.1607,38.8991 90.9157,39.6621 91.8417,39.6621 C92.7677,39.6621 93.5127,38.8991 93.5057,37.9591 C93.4987,37.0191 92.7427,36.2581 91.8187,36.2581 C90.8937,36.2581 90.1487,37.0191 90.1547,37.9591 M90.0877,45.7921 C90.0937,46.8041 90.9037,47.6241 91.8967,47.6241 C92.8887,47.6241 93.6877,46.8041 93.6797,45.7921 C93.6727,44.7821 92.8627,43.9631 91.8717,43.9631 C90.8797,43.9631 90.0817,44.7821 90.0877,45.7921 M90.0197,53.6771 C90.0267,54.7601 90.8907,55.6391 91.9507,55.6391 C93.0117,55.6391 93.8637,54.7601 93.8557,53.6771 C93.8467,52.5941 92.9827,51.7181 91.9247,51.7181 C90.8667,51.7181 90.0127,52.5941 90.0197,53.6771 M89.9517,61.6121 C89.9587,62.7681 90.8787,63.7061 92.0067,63.7061 C93.1347,63.7061 94.0407,62.7681 94.0327,61.6121 C94.0237,60.4571 93.1037,59.5211 91.9777,59.5211 C90.8517,59.5211 89.9447,60.4571 89.9517,61.6121 M82.0707,7.1201 C82.0737,7.8531 82.6677,8.4481 83.3987,8.4481 C84.1297,8.4481 84.7197,7.8531 84.7167,7.1201 C84.7137,6.3881 84.1197,5.7941 83.3887,5.7941 C82.6587,5.7941 82.0687,6.3881 82.0707,7.1201 M81.9787,14.7561 C81.9807,15.5581 82.6287,16.2071 83.4247,16.2071 C84.2207,16.2071 84.8647,15.5581 84.8607,14.7561 C84.8577,13.9561 84.2107,13.3071 83.4147,13.3071 C82.6197,13.3071 81.9767,13.9561 81.9787,14.7561 M81.8867,22.4411 C81.8887,23.3111 82.5897,24.0161 83.4517,24.0161 C84.3137,24.0161 85.0097,23.3111 85.0057,22.4411 C85.0027,21.5721 84.3017,20.8681 83.4407,20.8681 C82.5797,20.8681 81.8837,21.5721 81.8867,22.4411 M81.7927,30.1751 C81.7957,31.1151 82.5507,31.8771 83.4787,31.8771 C84.4067,31.8771 85.1567,31.1151 85.1527,30.1751 C85.1487,29.2361 84.3937,28.4761 83.4667,28.4761 C82.5397,28.4761 81.7907,29.2361 81.7927,30.1751 M81.6997,37.9591 C81.7017,38.9691 82.5107,39.7881 83.5057,39.7881 C84.5007,39.7881 85.3037,38.9691 85.2997,37.9591 C85.2947,36.9501 84.4867,36.1321 83.4927,36.1321 C82.4997,36.1321 81.6967,36.9501 81.6997,37.9591 M81.6047,45.7921 C81.6077,46.8741 82.4707,47.7521 83.5327,47.7521 C84.5947,47.7521 85.4517,46.8741 85.4477,45.7921 C85.4427,44.7121 84.5797,43.8361 83.5187,43.8361 C82.4587,43.8361 81.6017,44.7121 81.6047,45.7921 M81.5097,53.6771 C81.5127,54.8311 82.4307,55.7671 83.5597,55.7671 C84.6897,55.7671 85.6007,54.8311 85.5957,53.6771 C85.5917,52.5231 84.6737,51.5901 83.5457,51.5901 C82.4187,51.5901 81.5067,52.5231 81.5097,53.6771 M81.4137,61.6121 C81.4167,62.8391 82.3897,63.8351 83.5877,63.8351 C84.7847,63.8351 85.7517,62.8391 85.7457,61.6121 C85.7407,60.3861 84.7677,59.3921 83.5727,59.3921 C82.3767,59.3921 81.4107,60.3861 81.4137,61.6121 M73.7217,7.1201 C73.7217,7.9211 74.3687,8.5711 75.1677,8.5711 C75.9677,8.5711 76.6147,7.9211 76.6147,7.1201 C76.6137,6.3191 75.9667,5.6711 75.1677,5.6711 C74.3697,5.6711 73.7227,6.3191 73.7217,7.1201 M73.6037,14.7561 C73.6027,15.6261 74.3037,16.3311 75.1677,16.3311 C76.0327,16.3311 76.7327,15.6261 76.7327,14.7561 C76.7317,13.8871 76.0317,13.1831 75.1677,13.1831 C74.3047,13.1831 73.6037,13.8871 73.6037,14.7561 M73.4847,22.4411 C73.4837,23.3801 74.2377,24.1421 75.1677,24.1421 C76.0987,24.1421 76.8527,23.3801 76.8517,22.4411 C76.8507,21.5031 76.0967,20.7431 75.1677,20.7431 C74.2387,20.7431 73.4847,21.5031 73.4847,22.4411 M73.3647,30.1751 C73.3637,31.1841 74.1707,32.0031 75.1677,32.0031 C76.1647,32.0031 76.9727,31.1841 76.9717,30.1751 C76.9707,29.1671 76.1637,28.3501 75.1677,28.3501 C74.1727,28.3501 73.3647,29.1671 73.3647,30.1751 M73.2427,37.9591 C73.2417,39.0391 74.1037,39.9151 75.1677,39.9151 C76.2317,39.9151 77.0937,39.0391 77.0927,37.9591 C77.0917,36.8791 76.2297,36.0051 75.1677,36.0051 C74.1057,36.0051 73.2437,36.8791 73.2427,37.9591 M73.1217,45.7921 C73.1207,46.9451 74.0367,47.8801 75.1677,47.8801 C76.2997,47.8801 77.2157,46.9451 77.2147,45.7921 C77.2137,44.6411 76.2977,43.7091 75.1677,43.7091 C74.0387,43.7091 73.1227,44.6411 73.1217,45.7921 M72.9987,53.6771 C72.9977,54.9021 73.9697,55.8961 75.1677,55.8961 C76.3667,55.8961 77.3377,54.9021 77.3367,53.6771 C77.3357,52.4531 76.3647,51.4611 75.1677,51.4611 C73.9707,51.4611 73.0007,52.4531 72.9987,53.6771 M72.8757,61.6121 C72.8747,62.9111 73.9007,63.9651 75.1677,63.9651 C76.4347,63.9651 77.4617,62.9111 77.4597,61.6121 C77.4587,60.3141 76.4327,59.2641 75.1677,59.2641 C73.9037,59.2641 72.8767,60.3141 72.8757,61.6121 M65.3737,7.1201 C65.3697,7.9901 66.0697,8.6951 66.9367,8.6951 C67.8047,8.6951 68.5097,7.9901 68.5117,7.1201 C68.5137,6.2511 67.8137,5.5471 66.9477,5.5471 C66.0817,5.5471 65.3767,6.2511 65.3737,7.1201 M65.2277,14.7561 C65.2237,15.6951 65.9777,16.4561 66.9107,16.4561 C67.8437,16.4561 68.6017,15.6951 68.6047,14.7561 C68.6067,13.8191 67.8537,13.0591 66.9217,13.0591 C65.9907,13.0591 65.2317,13.8191 65.2277,14.7561 M65.0817,22.4411 C65.0777,23.4491 65.8847,24.2671 66.8837,24.2671 C67.8827,24.2671 68.6947,23.4491 68.6977,22.4411 C68.6997,21.4341 67.8937,20.6181 66.8957,20.6181 C65.8987,20.6181 65.0867,21.4341 65.0817,22.4411 M64.9347,30.1751 C64.9307,31.2541 65.7907,32.1291 66.8567,32.1291 C67.9227,32.1291 68.7887,31.2541 68.7917,30.1751 C68.7947,29.0981 67.9337,28.2241 66.8697,28.2241 C65.8057,28.2241 64.9397,29.0981 64.9347,30.1751 M64.7877,37.9591 C64.7827,39.1091 65.6967,40.0421 66.8297,40.0421 C67.9627,40.0421 68.8837,39.1091 68.8867,37.9591 C68.8887,36.8091 67.9747,35.8791 66.8447,35.8791 C65.7127,35.8791 64.7927,36.8091 64.7877,37.9591 M64.6387,45.7921 C64.6337,47.0151 65.6017,48.0071 66.8027,48.0071 C68.0027,48.0071 68.9787,47.0151 68.9817,45.7921 C68.9847,44.5711 68.0157,43.5811 66.8177,43.5811 C65.6197,43.5811 64.6437,44.5711 64.6387,45.7921 M64.4887,53.6771 C64.4827,54.9731 65.5067,56.0241 66.7747,56.0241 C68.0437,56.0241 69.0747,54.9731 69.0777,53.6771 C69.0807,52.3821 68.0567,51.3331 66.7907,51.3331 C65.5257,51.3331 64.4947,52.3821 64.4887,53.6771 M64.3377,61.6121 C64.3317,62.9821 65.4107,64.0941 66.7477,64.0941 C68.0837,64.0941 69.1707,62.9821 69.1737,61.6121 C69.1777,60.2431 68.0987,59.1351 66.7647,59.1351 C65.4297,59.1351 64.3447,60.2431 64.3377,61.6121 M57.0247,7.1201 C57.0177,8.0571 57.7697,8.8181 58.7047,8.8181 C59.6397,8.8181 60.4037,8.0571 60.4087,7.1201 C60.4147,6.1831 59.6617,5.4241 58.7287,5.4241 C57.7947,5.4241 57.0317,6.1831 57.0247,7.1201 M56.8527,14.7561 C56.8457,15.7641 57.6507,16.5801 58.6517,16.5801 C59.6537,16.5801 60.4697,15.7641 60.4757,14.7561 C60.4817,13.7501 59.6767,12.9351 58.6767,12.9351 C57.6777,12.9351 56.8607,13.7501 56.8527,14.7561 M56.6797,22.4411 C56.6717,23.5181 57.5307,24.3921 58.5987,24.3921 C59.6657,24.3921 60.5367,23.5181 60.5437,22.4411 C60.5507,21.3651 59.6917,20.4931 58.6247,20.4931 C57.5587,20.4931 56.6887,21.3651 56.6797,22.4411 M56.5067,30.1751 C56.4977,31.3241 57.4097,32.2551 58.5447,32.2551 C59.6797,32.2551 60.6047,31.3241 60.6117,30.1751 C60.6187,29.0281 59.7057,28.0991 58.5737,28.0991 C57.4407,28.0991 56.5147,29.0281 56.5067,30.1751 M56.3317,37.9591 C56.3227,39.1791 57.2887,40.1691 58.4907,40.1691 C59.6927,40.1691 60.6727,39.1791 60.6797,37.9591 C60.6867,36.7401 59.7207,35.7521 58.5207,35.7521 C57.3217,35.7521 56.3407,36.7401 56.3317,37.9591 M56.1557,45.7921 C56.1457,47.0861 57.1667,48.1351 58.4357,48.1351 C59.7057,48.1351 60.7417,47.0861 60.7487,45.7921 C60.7567,44.5001 59.7357,43.4541 58.4687,43.4541 C57.2007,43.4541 56.1657,44.5001 56.1557,45.7921 M55.9787,53.6771 C55.9677,55.0441 57.0437,56.1531 58.3817,56.1531 C59.7197,56.1531 60.8097,55.0441 60.8177,53.6771 C60.8257,52.3111 59.7497,51.2051 58.4147,51.2051 C57.0797,51.2051 55.9897,52.3111 55.9787,53.6771 M55.8007,61.6121 C55.7887,63.0541 56.9197,64.2241 58.3257,64.2241 C59.7327,64.2241 60.8797,63.0541 60.8877,61.6121 C60.8957,60.1721 59.7647,59.0061 58.3617,59.0061 C56.9587,59.0061 55.8117,60.1721 55.8007,61.6121 M48.6757,7.1201 C48.6647,8.1261 49.4687,8.9421 50.4717,8.9421 C51.4757,8.9421 52.2967,8.1261 52.3057,7.1201 C52.3157,6.1151 51.5117,5.3011 50.5097,5.3011 C49.5077,5.3011 48.6867,6.1151 48.6757,7.1201 M48.4777,14.7561 C48.4657,15.8321 49.3237,16.7051 50.3927,16.7051 C51.4627,16.7051 52.3377,15.8321 52.3477,14.7561 C52.3577,13.6821 51.5007,12.8111 50.4327,12.8111 C49.3647,12.8111 48.4897,13.6821 48.4777,14.7561 M48.2787,22.4411 C48.2657,23.5881 49.1767,24.5171 50.3127,24.5171 C51.4487,24.5171 52.3787,23.5881 52.3897,22.4411 C52.4007,21.2961 51.4897,20.3691 50.3547,20.3691 C49.2207,20.3691 48.2907,21.2961 48.2787,22.4411 M48.0777,30.1751 C48.0637,31.3931 49.0287,32.3811 50.2317,32.3811 C51.4347,32.3811 52.4197,31.3931 52.4307,30.1751 C52.4427,28.9581 51.4777,27.9731 50.2767,27.9731 C49.0757,27.9731 48.0917,28.9581 48.0777,30.1751 M47.8757,37.9591 C47.8617,39.2491 48.8797,40.2961 50.1507,40.2961 C51.4217,40.2961 52.4617,39.2491 52.4737,37.9591 C52.4857,36.6701 51.4667,35.6261 50.1987,35.6261 C48.9297,35.6261 47.8897,36.6701 47.8757,37.9591 M47.6727,45.7921 C47.6577,47.1561 48.7297,48.2631 50.0687,48.2631 C51.4077,48.2631 52.5037,47.1561 52.5157,45.7921 C52.5287,44.4301 51.4557,43.3271 50.1197,43.3271 C48.7837,43.3271 47.6877,44.4301 47.6727,45.7921 M47.4677,53.6771 C47.4517,55.1151 48.5787,56.2821 49.9867,56.2821 C51.3937,56.2821 52.5457,55.1151 52.5587,53.6771 C52.5717,52.2401 51.4447,51.0771 50.0397,51.0771 C48.6357,51.0771 47.4847,52.2401 47.4677,53.6771 M47.2627,61.6121 C47.2447,63.1251 48.4277,64.3531 49.9037,64.3531 C51.3797,64.3531 52.5877,63.1251 52.6017,61.6121 C52.6157,60.1001 51.4327,58.8771 49.9597,58.8771 C48.4877,58.8771 47.2797,60.1001 47.2627,61.6121 M40.3267,7.1201 C40.3117,8.1941 41.1677,9.0661 42.2387,9.0661 C43.3097,9.0661 44.1897,8.1941 44.2037,7.1201 C44.2177,6.0471 43.3617,5.1781 42.2917,5.1781 C41.2217,5.1781 40.3427,6.0471 40.3267,7.1201 M40.1017,14.7561 C40.0857,15.9011 40.9947,16.8291 42.1327,16.8291 C43.2707,16.8291 44.2047,15.9011 44.2197,14.7561 C44.2347,13.6131 43.3247,12.6871 42.1887,12.6871 C41.0537,12.6871 40.1187,13.6131 40.1017,14.7561 M39.8767,22.4411 C39.8587,23.6571 40.8207,24.6431 42.0257,24.6431 C43.2307,24.6431 44.2197,23.6571 44.2357,22.4411 C44.2507,21.2271 43.2887,20.2441 42.0857,20.2441 C40.8837,20.2441 39.8937,21.2271 39.8767,22.4411 M39.6487,30.1751 C39.6297,31.4631 40.6457,32.5071 41.9177,32.5071 C43.1897,32.5071 44.2347,31.4631 44.2507,30.1751 C44.2677,28.8891 43.2517,27.8481 41.9817,27.8481 C40.7117,27.8481 39.6677,28.8891 39.6487,30.1751 M39.4197,37.9591 C39.3997,39.3191 40.4697,40.4231 41.8097,40.4231 C43.1497,40.4231 44.2497,39.3191 44.2667,37.9591 C44.2837,36.6001 43.2147,35.4991 41.8767,35.4991 C40.5397,35.4991 39.4397,36.6001 39.4197,37.9591 M39.1897,45.7921 C39.1687,47.2261 40.2927,48.3911 41.7007,48.3911 C43.1087,48.3911 44.2647,47.2261 44.2837,45.7921 C44.3017,44.3601 43.1767,43.2001 41.7717,43.2001 C40.3667,43.2001 39.2107,44.3601 39.1897,45.7921 M38.9577,53.6771 C38.9347,55.1851 40.1147,56.4101 41.5907,56.4101 C43.0677,56.4101 44.2807,55.1851 44.2997,53.6771 C44.3187,52.1691 43.1387,50.9491 41.6657,50.9491 C40.1927,50.9491 38.9797,52.1691 38.9577,53.6771 M38.7237,61.6121 C38.7007,63.1971 39.9347,64.4831 41.4807,64.4831 C43.0267,64.4831 44.2957,63.1971 44.3157,61.6121 C44.3357,60.0291 43.1007,58.7481 41.5587,58.7481 C40.0167,58.7481 38.7477,60.0291 38.7237,61.6121 M31.9777,7.1201 C31.9577,8.2631 32.8647,9.1891 34.0047,9.1891 C35.1437,9.1891 36.0827,8.2631 36.1007,7.1201 C36.1197,5.9791 35.2127,5.0541 34.0747,5.0541 C32.9377,5.0541 31.9987,5.9791 31.9777,7.1201 M31.7267,14.7561 C31.7047,15.9701 32.6647,16.9531 33.8717,16.9531 C35.0777,16.9531 36.0717,15.9701 36.0917,14.7561 C36.1107,13.5441 35.1507,12.5631 33.9467,12.5631 C32.7427,12.5631 31.7487,13.5441 31.7267,14.7561 M31.4737,22.4411 C31.4507,23.7261 32.4647,24.7681 33.7377,24.7681 C35.0117,24.7681 36.0607,23.7261 36.0807,22.4411 C36.1017,21.1581 35.0887,20.1191 33.8177,20.1191 C32.5467,20.1191 31.4977,21.1581 31.4737,22.4411 M31.2197,30.1751 C31.1957,31.5321 32.2627,32.6341 33.6037,32.6341 C34.9447,32.6341 36.0487,31.5321 36.0707,30.1751 C36.0927,28.8201 35.0257,27.7221 33.6877,27.7221 C32.3487,27.7221 31.2447,28.8201 31.2197,30.1751 M30.9637,37.9591 C30.9377,39.3891 32.0587,40.5501 33.4687,40.5501 C34.8767,40.5501 36.0377,39.3891 36.0607,37.9591 C36.0837,36.5301 34.9627,35.3731 33.5567,35.3731 C32.1507,35.3731 30.9897,36.5301 30.9637,37.9591 M30.7067,45.7921 C30.6797,47.2971 31.8547,48.5181 33.3317,48.5181 C34.8087,48.5181 36.0267,47.2971 36.0507,45.7921 C36.0747,44.2891 34.8987,43.0731 33.4247,43.0731 C31.9507,43.0731 30.7337,44.2891 30.7067,45.7921 M30.4477,53.6771 C30.4187,55.2571 31.6487,56.5391 33.1947,56.5391 C34.7407,56.5391 36.0147,55.2571 36.0397,53.6771 C36.0647,52.0991 34.8347,50.8211 33.2927,50.8211 C31.7497,50.8211 30.4757,52.0991 30.4477,53.6771 M30.1857,61.6121 C30.1557,63.2681 31.4407,64.6121 33.0567,64.6121 C34.6727,64.6121 36.0027,63.2681 36.0297,61.6121 C36.0557,59.9581 34.7707,58.6191 33.1587,58.6191 C31.5477,58.6191 30.2167,59.9581 30.1857,61.6121 M23.6297,7.1201 C23.6037,8.3311 24.5617,9.3131 25.7687,9.3131 C26.9767,9.3131 27.9747,8.3311 27.9987,7.1201 C28.0227,5.9111 27.0647,4.9311 25.8587,4.9311 C24.6537,4.9311 23.6557,5.9111 23.6297,7.1201 M23.3517,14.7561 C23.3247,16.0381 24.3347,17.0781 25.6097,17.0781 C26.8847,17.0781 27.9377,16.0381 27.9627,14.7561 C27.9877,13.4761 26.9767,12.4391 25.7047,12.4391 C24.4327,12.4391 23.3787,13.4761 23.3517,14.7561 M23.0727,22.4411 C23.0427,23.7951 24.1077,24.8931 25.4497,24.8931 C26.7907,24.8931 27.9007,23.7951 27.9267,22.4411 C27.9527,21.0891 26.8887,19.9941 25.5497,19.9941 C24.2107,19.9941 23.1017,21.0891 23.0727,22.4411 M22.7907,30.1751 C22.7607,31.6021 23.8777,32.7601 25.2877,32.7601 C26.6977,32.7601 27.8627,31.6021 27.8907,30.1751 C27.9187,28.7501 26.8007,27.5961 25.3937,27.5961 C23.9877,27.5961 22.8217,28.7501 22.7907,30.1751 M22.5087,37.9591 C22.4757,39.4591 23.6477,40.6771 25.1257,40.6771 C26.6037,40.6771 27.8247,39.4591 27.8537,37.9591 C27.8837,36.4601 26.7117,35.2461 25.2367,35.2461 C23.7627,35.2461 22.5407,36.4601 22.5087,37.9591 M22.2227,45.7921 C22.1897,47.3681 23.4157,48.6461 24.9617,48.6461 C26.5087,48.6461 27.7867,47.3681 27.8177,45.7921 C27.8477,44.2191 26.6217,42.9461 25.0787,42.9461 C23.5357,42.9461 22.2577,44.2191 22.2227,45.7921 M21.9367,53.6771 C21.9007,55.3281 23.1817,56.6671 24.7977,56.6671 C26.4127,56.6671 27.7487,55.3281 27.7807,53.6771 C27.8127,52.0281 26.5317,50.6931 24.9197,50.6931 C23.3077,50.6931 21.9727,52.0281 21.9367,53.6771 M21.6487,61.6121 C21.6107,63.3391 22.9467,64.7421 24.6317,64.7421 C26.3167,64.7421 27.7097,63.3391 27.7437,61.6121 C27.7767,59.8871 26.4407,58.4901 24.7597,58.4901 C23.0787,58.4901 21.6857,59.8871 21.6487,61.6121 M15.2807,7.1201 C15.2487,8.3991 16.2567,9.4371 17.5327,9.4371 C18.8087,9.4371 19.8667,8.3991 19.8957,7.1201 C19.9257,5.8431 18.9167,4.8071 17.6437,4.8071 C16.3697,4.8071 15.3117,5.8431 15.2807,7.1201 M14.9767,14.7561 C14.9427,16.1071 16.0037,17.2031 17.3467,17.2031 C18.6897,17.2031 19.8037,16.1071 19.8347,14.7561 C19.8657,13.4071 18.8047,12.3151 17.4637,12.3151 C16.1237,12.3151 15.0097,13.4071 14.9767,14.7561 M14.6707,22.4411 C14.6347,23.8641 15.7497,25.0191 17.1597,25.0191 C18.5707,25.0191 19.7407,23.8641 19.7727,22.4411 C19.8047,21.0201 18.6907,19.8691 17.2837,19.8691 C15.8757,19.8691 14.7057,21.0201 14.6707,22.4411 M14.3627,30.1751 C14.3247,31.6711 15.4927,32.8861 16.9717,32.8861 C18.4497,32.8861 19.6767,31.6711 19.7107,30.1751 C19.7447,28.6811 18.5757,27.4711 17.1007,27.4711 C15.6257,27.4711 14.3997,28.6811 14.3627,30.1751 M14.0527,37.9591 C14.0127,39.5291 15.2347,40.8041 16.7817,40.8041 C18.3287,40.8041 19.6117,39.5291 19.6477,37.9591 C19.6837,36.3911 18.4617,35.1201 16.9177,35.1201 C15.3747,35.1201 14.0917,36.3911 14.0527,37.9591 M13.7407,45.7921 C13.6987,47.4381 14.9747,48.7741 16.5917,48.7741 C18.2067,48.7741 19.5477,47.4381 19.5847,45.7921 C19.6217,44.1491 18.3457,42.8181 16.7337,42.8181 C15.1217,42.8181 13.7817,44.1491 13.7407,45.7921 M13.4267,53.6771 C13.3827,55.3981 14.7137,56.7961 16.3987,56.7961 C18.0847,56.7961 19.4817,55.3981 19.5207,53.6771 C19.5597,51.9571 18.2287,50.5651 16.5487,50.5651 C14.8667,50.5651 13.4697,51.9571 13.4267,53.6771 M13.1107,61.6121 C13.0647,63.4111 14.4507,64.8711 16.2057,64.8711 C17.9607,64.8711 19.4167,63.4111 19.4577,61.6121 C19.4977,59.8161 18.1117,58.3611 16.3617,58.3611 C14.6117,58.3611 13.1557,59.8161 13.1107,61.6121 M6.9317,7.1201 C6.8937,8.4671 7.9517,9.5601 9.2957,9.5601 C10.6397,9.5601 11.7587,8.4671 11.7937,7.1201 C11.8287,5.7741 10.7707,4.6841 9.4297,4.6841 C8.0877,4.6841 6.9697,5.7741 6.9317,7.1201 M6.6007,14.7561 C6.5607,16.1761 7.6717,17.3281 9.0837,17.3281 C10.4947,17.3281 11.6687,16.1761 11.7067,14.7561 C11.7437,13.3391 10.6327,12.1911 9.2237,12.1911 C7.8157,12.1911 6.6407,13.3391 6.6007,14.7561 M6.2677,22.4411 C6.2257,23.9331 7.3907,25.1441 8.8697,25.1441 C10.3487,25.1441 11.5797,23.9331 11.6187,22.4411 C11.6577,20.9511 10.4927,19.7441 9.0167,19.7441 C7.5417,19.7441 6.3107,20.9511 6.2677,22.4411 M5.9337,30.1751 C5.8887,31.7411 7.1067,33.0121 8.6547,33.0121 C10.2017,33.0121 11.4897,31.7411 11.5307,30.1751 C11.5717,28.6111 10.3527,27.3451 8.8087,27.3451 C7.2657,27.3451 5.9777,28.6111 5.9337,30.1751 M5.5967,37.9591 C5.5497,39.5991 6.8217,40.9311 8.4377,40.9311 C10.0537,40.9311 11.3987,39.5991 11.4417,37.9591 C11.4847,36.3211 10.2117,34.9941 8.5997,34.9941 C6.9877,34.9941 5.6427,36.3211 5.5967,37.9591 M5.2577,45.7921 C5.2077,47.5091 6.5337,48.9021 8.2197,48.9021 C9.9047,48.9021 11.3067,47.5091 11.3517,45.7921 C11.3967,44.0781 10.0707,42.6911 8.3897,42.6911 C6.7087,42.6911 5.3057,44.0781 5.2577,45.7921 M4.9157,53.6771 C4.8647,55.4701 6.2447,56.9251 7.9997,56.9251 C9.7547,56.9251 11.2157,55.4701 11.2617,53.6771 C11.3087,51.8871 9.9277,50.4371 8.1777,50.4371 C6.4277,50.4371 4.9677,51.8871 4.9157,53.6771 M4.5727,61.6121 C4.5187,63.4821 5.9547,65.0001 7.7797,65.0001 C9.6037,65.0001 11.1227,63.4821 11.1717,61.6121 C11.2197,59.7451 9.7837,58.2321 7.9647,58.2321 C6.1447,58.2321 4.6257,59.7451 4.5727,61.6121 M147.7747,68.8891 L2.5697,68.8891 C1.4717,68.8891 0.6097,67.9741 0.6437,66.8461 L2.5997,2.1401 C2.6317,1.0721 3.5237,0.2061 4.5907,0.2061 L145.7537,0.2061 C146.8207,0.2061 147.7117,1.0721 147.7437,2.1401 L149.7007,66.8461 C149.7347,67.9741 148.8717,68.8891 147.7747,68.8891" id="Fill-181" fill="#FFCF44"></path>
                <path d="M16.123,82.877 C16.322,82.54 16.522,82.34 16.522,82.34 C16.522,82.34 16.675,81.511 16.783,81.281 C16.89,81.051 17.013,80.805 17.182,80.683 C17.351,80.56 18.164,80.253 18.993,80.191 C19.821,80.13 20.312,80.099 20.742,80.007 C21.172,79.915 22.231,79.7 22.891,79.47 C23.551,79.24 26.942,78.12 28.416,77.767 C29.478,77.512 30.722,77.235 31.88,77.054 C31.92,76.893 31.985,76.646 32.03,76.569 C32.099,76.454 32.253,76.201 32.253,76.201 L33.596,76.201 C33.596,76.201 33.849,76.286 34.002,76.362 C34.156,76.439 34.363,76.615 34.363,76.615 L34.363,76.789 C35.022,76.732 35.437,76.697 35.921,76.677 C36.642,76.646 44.162,76.569 44.162,76.569 C44.162,76.569 45.988,76.662 47.231,77.106 C48.475,77.552 51.406,78.826 52.695,79.409 C53.984,79.992 55.688,80.79 56.01,81.005 C56.332,81.22 56.486,81.312 56.486,81.312 C56.486,81.312 59.414,81.369 61.121,81.557 C63.346,81.803 65.418,82.202 67.812,83.046 C68.802,83.395 70.866,84.397 71.081,84.673 C71.296,84.949 71.265,85.123 71.265,85.123 L71.265,87.128 C71.265,87.128 71.787,87.451 71.787,88.356 C71.787,89.262 71.634,89.737 71.634,89.737 C71.634,89.737 70.958,89.95 70.068,90.014 C69.001,90.09 67.825,90.252 67.206,90.303 C66.058,90.399 65.133,90.448 65.133,90.448 L65.08,90.341 C65.08,90.341 65.146,90.224 65.271,89.935 C65.375,89.693 65.403,89.538 65.403,89.538 L64.743,89.538 C64.743,89.538 64.114,91.303 62.333,91.993 C60.553,92.684 58.742,92.04 58.113,91.425 C57.483,90.812 56.686,89.538 56.686,89.538 L56.118,89.538 C56.118,89.538 56.225,89.921 56.348,90.136 C56.471,90.351 56.624,90.535 56.624,90.535 L56.573,90.627 L30.442,90.627 L30.396,90.528 C30.396,90.528 30.493,90.43 30.626,90.206 C30.748,89.999 30.783,89.898 30.783,89.898 L30.135,89.898 C30.135,89.898 29.378,91.364 28.17,91.855 C26.963,92.346 24.794,92.633 23.546,91.344 C22.297,90.055 22.134,89.154 22.134,89.154 L21.52,89.154 C21.52,89.154 21.571,89.438 21.648,89.615 C21.725,89.791 21.84,89.86 21.84,89.86 L21.763,89.952 C21.763,89.952 20.789,89.691 20.481,89.523 C20.174,89.354 19.63,88.955 19.63,88.955 L17.934,88.955 C17.934,88.955 17.412,88.924 17.059,88.602 C16.706,88.279 16.399,87.098 16.261,85.67 C16.123,84.243 15.923,83.215 16.123,82.877 Z" id="Stroke-273" stroke="#000000" stroke-linecap="round" stroke-linejoin="round"></path>
                <path d="M16.123,82.877 C16.322,82.54 16.522,82.34 16.522,82.34 C16.522,82.34 16.675,81.511 16.783,81.281 C16.89,81.051 17.013,80.805 17.182,80.683 C17.351,80.56 18.164,80.253 18.993,80.191 C19.821,80.13 20.312,80.099 20.742,80.007 C21.172,79.915 22.231,79.7 22.891,79.47 C23.551,79.24 26.942,78.12 28.416,77.767 C29.478,77.512 30.722,77.235 31.88,77.054 C31.92,76.893 31.985,76.646 32.03,76.569 C32.099,76.454 32.253,76.201 32.253,76.201 L33.596,76.201 C33.596,76.201 33.849,76.286 34.002,76.362 C34.156,76.439 34.363,76.615 34.363,76.615 L34.363,76.789 C35.022,76.732 35.437,76.697 35.921,76.677 C36.642,76.646 44.162,76.569 44.162,76.569 C44.162,76.569 45.988,76.662 47.231,77.106 C48.475,77.552 51.406,78.826 52.695,79.409 C53.984,79.992 55.688,80.79 56.01,81.005 C56.332,81.22 56.486,81.312 56.486,81.312 C56.486,81.312 59.414,81.369 61.121,81.557 C63.346,81.803 65.418,82.202 67.812,83.046 C68.802,83.395 70.866,84.397 71.081,84.673 C71.296,84.949 71.265,85.123 71.265,85.123 L71.265,87.128 C71.265,87.128 71.787,87.451 71.787,88.356 C71.787,89.262 71.634,89.737 71.634,89.737 C71.634,89.737 70.958,89.95 70.068,90.014 C69.001,90.09 67.825,90.252 67.206,90.303 C66.058,90.399 65.133,90.448 65.133,90.448 L65.08,90.341 C65.08,90.341 65.146,90.224 65.271,89.935 C65.375,89.693 65.403,89.538 65.403,89.538 L64.743,89.538 C64.743,89.538 64.114,91.303 62.333,91.993 C60.553,92.684 58.742,92.04 58.113,91.425 C57.483,90.812 56.686,89.538 56.686,89.538 L56.118,89.538 C56.118,89.538 56.225,89.921 56.348,90.136 C56.471,90.351 56.624,90.535 56.624,90.535 L56.573,90.627 L30.442,90.627 L30.396,90.528 C30.396,90.528 30.493,90.43 30.626,90.206 C30.748,89.999 30.783,89.898 30.783,89.898 L30.135,89.898 C30.135,89.898 29.378,91.364 28.17,91.855 C26.963,92.346 24.794,92.633 23.546,91.344 C22.297,90.055 22.134,89.154 22.134,89.154 L21.52,89.154 C21.52,89.154 21.571,89.438 21.648,89.615 C21.725,89.791 21.84,89.86 21.84,89.86 L21.763,89.952 C21.763,89.952 20.789,89.691 20.481,89.523 C20.174,89.354 19.63,88.955 19.63,88.955 L17.934,88.955 C17.934,88.955 17.412,88.924 17.059,88.602 C16.706,88.279 16.399,87.098 16.261,85.67 C16.123,84.243 15.923,83.215 16.123,82.877" id="Fill-276" fill="#FFFFFF"></path>
            </g>
        </g>
    </g>
</svg>