<?xml version="1.0" encoding="UTF-8" standalone="no"?>
<svg width="180px" height="120px" viewBox="0 0 180 120" version="1.1" xmlns="http://www.w3.org/2000/svg" xmlns:xlink="http://www.w3.org/1999/xlink">
    <!-- Generator: Sketch 43.2 (39069) - http://www.bohemiancoding.com/sketch -->
    <title>imagewall-system-icon-wall--blue</title>
    <desc>Created with Sketch.</desc>
    <defs></defs>
    <g id="Page-1" stroke="none" stroke-width="1" fill="none" fill-rule="evenodd">
        <g id="imagewall-system-icon-wall--blue">
            <polygon id="Stroke-41" stroke="#9DA8A8" stroke-width="0.5" stroke-linejoin="round" stroke-dasharray="4,3" points="14.3911 19.2109 14.3911 88.2449 14.3911 94.2461 17.3911 94.2461 158.6203 94.2461 164.5024 94.2461 164.5024 91.2461 164.5024 16.2092 164.5024 10.208 161.5024 10.208 20.2733 10.208 14.3911 10.208 14.3911 13.208"></polygon>
            <path d="M30.7109,79.8745 L148.1829,79.8745 C149.2869,79.8745 150.1829,78.9785 150.1829,77.8745 L150.1829,26.4765 C150.1829,25.3725 149.2869,24.4765 148.1829,24.4765 L30.7109,24.4765 C29.6069,24.4765 28.7109,25.3725 28.7109,26.4765 L28.7109,77.8745 C28.7109,78.9785 29.6069,79.8745 30.7109,79.8745" id="Fill-101" fill="#FFFFFF"></path>
            <path d="M32.5166,72.7881 C32.5166,74.6271 34.0076,76.1181 35.8466,76.1181 C37.6856,76.1181 39.1766,74.6271 39.1766,72.7881 C39.1766,70.9491 37.6856,69.4581 35.8466,69.4581 C34.0076,69.4581 32.5166,70.9491 32.5166,72.7881 Z M32.6486,65.9341 C32.6486,67.7001 34.0806,69.1321 35.8466,69.1321 C37.6126,69.1321 39.0446,67.7001 39.0446,65.9341 C39.0446,64.1671 37.6126,62.7361 35.8466,62.7361 C34.0806,62.7361 32.6486,64.1671 32.6486,65.9341 Z M32.7806,59.0801 C32.7806,60.7731 34.1536,62.1461 35.8466,62.1461 C37.5396,62.1461 38.9126,60.7731 38.9126,59.0801 C38.9126,57.3871 37.5396,56.0141 35.8466,56.0141 C34.1536,56.0141 32.7806,57.3871 32.7806,59.0801 Z M32.9126,52.2261 C32.9126,53.8461 34.2256,55.1601 35.8466,55.1601 C37.4666,55.1601 38.7806,53.8461 38.7806,52.2261 C38.7806,50.6051 37.4666,49.2911 35.8466,49.2911 C34.2256,49.2911 32.9126,50.6051 32.9126,52.2261 Z M33.0446,45.3711 C33.0446,46.9191 34.2986,48.1741 35.8466,48.1741 C37.3936,48.1741 38.6486,46.9191 38.6486,45.3711 C38.6486,43.8241 37.3936,42.5691 35.8466,42.5691 C34.2986,42.5691 33.0446,43.8241 33.0446,45.3711 Z M33.1766,38.5171 C33.1766,39.9931 34.3716,41.1881 35.8466,41.1881 C37.3216,41.1881 38.5166,39.9931 38.5166,38.5171 C38.5166,37.0431 37.3216,35.8471 35.8466,35.8471 C34.3716,35.8471 33.1766,37.0431 33.1766,38.5171 Z M33.3086,31.6631 C33.3086,33.0651 34.4446,34.2021 35.8466,34.2021 C37.2486,34.2021 38.3846,33.0651 38.3846,31.6631 C38.3846,30.2621 37.2486,29.1251 35.8466,29.1251 C34.4446,29.1251 33.3086,30.2621 33.3086,31.6631 Z M40.9206,72.7881 C40.9206,74.5391 42.3406,75.9591 44.0926,75.9591 C45.8436,75.9591 47.2636,74.5391 47.2636,72.7881 C47.2636,71.0371 45.8436,69.6171 44.0926,69.6171 C42.3406,69.6171 40.9206,71.0371 40.9206,72.7881 Z M41.0526,65.9341 C41.0526,67.6121 42.4136,68.9731 44.0926,68.9731 C45.7706,68.9731 47.1316,67.6121 47.1316,65.9341 C47.1316,64.2551 45.7706,62.8941 44.0926,62.8941 C42.4136,62.8941 41.0526,64.2551 41.0526,65.9341 Z M41.1846,59.0801 C41.1846,60.6851 42.4866,61.9871 44.0926,61.9871 C45.6976,61.9871 46.9996,60.6851 46.9996,59.0801 C46.9996,57.4741 45.6976,56.1721 44.0926,56.1721 C42.4866,56.1721 41.1846,57.4741 41.1846,59.0801 Z M41.3166,52.2261 C41.3166,53.7591 42.5596,55.0011 44.0926,55.0011 C45.6246,55.0011 46.8676,53.7591 46.8676,52.2261 C46.8676,50.6931 45.6246,49.4501 44.0926,49.4501 C42.5596,49.4501 41.3166,50.6931 41.3166,52.2261 Z M41.4486,45.3711 C41.4486,46.8311 42.6326,48.0151 44.0926,48.0151 C45.5526,48.0151 46.7356,46.8311 46.7356,45.3711 C46.7356,43.9121 45.5526,42.7281 44.0926,42.7281 C42.6326,42.7281 41.4486,43.9121 41.4486,45.3711 Z M41.5806,38.5171 C41.5806,39.9051 42.7046,41.0291 44.0926,41.0291 C45.4796,41.0291 46.6036,39.9051 46.6036,38.5171 C46.6036,37.1301 45.4796,36.0061 44.0926,36.0061 C42.7046,36.0061 41.5806,37.1301 41.5806,38.5171 Z M41.7126,31.6631 C41.7126,32.9781 42.7776,34.0431 44.0926,34.0431 C45.4066,34.0431 46.4726,32.9781 46.4726,31.6631 C46.4726,30.3501 45.4066,29.2841 44.0926,29.2841 C42.7776,29.2841 41.7126,30.3501 41.7126,31.6631 Z M49.3256,72.7881 C49.3256,74.4521 50.6746,75.8001 52.3376,75.8001 C54.0016,75.8001 55.3506,74.4521 55.3506,72.7881 C55.3506,71.1241 54.0016,69.7751 52.3376,69.7751 C50.6746,69.7751 49.3256,71.1241 49.3256,72.7881 Z M49.4576,65.9341 C49.4576,67.5251 50.7466,68.8141 52.3376,68.8141 C53.9286,68.8141 55.2186,67.5251 55.2186,65.9341 C55.2186,64.3431 53.9286,63.0531 52.3376,63.0531 C50.7466,63.0531 49.4576,64.3431 49.4576,65.9341 Z M49.5896,59.0801 C49.5896,60.5981 50.8196,61.8291 52.3376,61.8291 C53.8556,61.8291 55.0866,60.5981 55.0866,59.0801 C55.0866,57.5621 53.8556,56.3311 52.3376,56.3311 C50.8196,56.3311 49.5896,57.5621 49.5896,59.0801 Z M49.7216,52.2261 C49.7216,53.6711 50.8926,54.8431 52.3376,54.8431 C53.7836,54.8431 54.9546,53.6711 54.9546,52.2261 C54.9546,50.7811 53.7836,49.6091 52.3376,49.6091 C50.8926,49.6091 49.7216,50.7811 49.7216,52.2261 Z M49.8526,45.3711 C49.8526,46.7441 50.9656,47.8561 52.3376,47.8561 C53.7106,47.8561 54.8226,46.7441 54.8226,45.3711 C54.8226,43.9991 53.7106,42.8871 52.3376,42.8871 C50.9656,42.8871 49.8526,43.9991 49.8526,45.3711 Z M49.9846,38.5171 C49.9846,39.8171 51.0386,40.8711 52.3376,40.8711 C53.6376,40.8711 54.6906,39.8171 54.6906,38.5171 C54.6906,37.2181 53.6376,36.1641 52.3376,36.1641 C51.0386,36.1641 49.9846,37.2181 49.9846,38.5171 Z M50.1166,31.6631 C50.1166,32.8901 51.1116,33.8851 52.3376,33.8851 C53.5646,33.8851 54.5586,32.8901 54.5586,31.6631 C54.5586,30.4371 53.5646,29.4421 52.3376,29.4421 C51.1116,29.4421 50.1166,30.4371 50.1166,31.6631 Z M57.7296,72.7881 C57.7296,74.3641 59.0076,75.6421 60.5836,75.6421 C62.1596,75.6421 63.4376,74.3641 63.4376,72.7881 C63.4376,71.2121 62.1596,69.9341 60.5836,69.9341 C59.0076,69.9341 57.7296,71.2121 57.7296,72.7881 Z M57.8616,65.9341 C57.8616,67.4371 59.0806,68.6561 60.5836,68.6561 C62.0866,68.6561 63.3056,67.4371 63.3056,65.9341 C63.3056,64.4311 62.0866,63.2121 60.5836,63.2121 C59.0806,63.2121 57.8616,64.4311 57.8616,65.9341 Z M57.9936,59.0801 C57.9936,60.5101 59.1536,61.6701 60.5836,61.6701 C62.0146,61.6701 63.1736,60.5101 63.1736,59.0801 C63.1736,57.6491 62.0146,56.4901 60.5836,56.4901 C59.1536,56.4901 57.9936,57.6491 57.9936,59.0801 Z M58.1256,52.2261 C58.1256,53.5831 59.2256,54.6841 60.5836,54.6841 C61.9416,54.6841 63.0416,53.5831 63.0416,52.2261 C63.0416,50.8681 61.9416,49.7671 60.5836,49.7671 C59.2256,49.7671 58.1256,50.8681 58.1256,52.2261 Z M58.2576,45.3711 C58.2576,46.6571 59.2986,47.6981 60.5836,47.6981 C61.8686,47.6981 62.9096,46.6571 62.9096,45.3711 C62.9096,44.0871 61.8686,43.0451 60.5836,43.0451 C59.2986,43.0451 58.2576,44.0871 58.2576,45.3711 Z M58.3896,38.5171 C58.3896,39.7291 59.3716,40.7121 60.5836,40.7121 C61.7956,40.7121 62.7776,39.7291 62.7776,38.5171 C62.7776,37.3061 61.7956,36.3231 60.5836,36.3231 C59.3716,36.3231 58.3896,37.3061 58.3896,38.5171 Z M58.5206,31.6631 C58.5206,32.8031 59.4446,33.7261 60.5836,33.7261 C61.7226,33.7261 62.6456,32.8031 62.6456,31.6631 C62.6456,30.5241 61.7226,29.6011 60.5836,29.6011 C59.4446,29.6011 58.5206,30.5241 58.5206,31.6631 Z M66.1346,72.7881 C66.1346,74.2761 67.3406,75.4831 68.8296,75.4831 C70.3176,75.4831 71.5246,74.2761 71.5246,72.7881 C71.5246,71.2991 70.3176,70.0931 68.8296,70.0931 C67.3406,70.0931 66.1346,71.2991 66.1346,72.7881 Z M66.2666,65.9341 C66.2666,67.3501 67.4136,68.4971 68.8296,68.4971 C70.2456,68.4971 71.3926,67.3501 71.3926,65.9341 C71.3926,64.5181 70.2456,63.3711 68.8296,63.3711 C67.4136,63.3711 66.2666,64.5181 66.2666,65.9341 Z M66.3976,59.0801 C66.3976,60.4231 67.4866,61.5111 68.8296,61.5111 C70.1726,61.5111 71.2606,60.4231 71.2606,59.0801 C71.2606,57.7371 70.1726,56.6481 68.8296,56.6481 C67.4866,56.6481 66.3976,57.7371 66.3976,59.0801 Z M66.5296,52.2261 C66.5296,53.4961 67.5596,54.5251 68.8296,54.5251 C70.0996,54.5251 71.1286,53.4961 71.1286,52.2261 C71.1286,50.9561 70.0996,49.9261 68.8296,49.9261 C67.5596,49.9261 66.5296,50.9561 66.5296,52.2261 Z M66.6616,45.3711 C66.6616,46.5691 67.6326,47.5391 68.8296,47.5391 C70.0266,47.5391 70.9966,46.5691 70.9966,45.3711 C70.9966,44.1751 70.0266,43.2041 68.8296,43.2041 C67.6326,43.2041 66.6616,44.1751 66.6616,45.3711 Z M66.7936,38.5171 C66.7936,39.6421 67.7046,40.5531 68.8296,40.5531 C69.9536,40.5531 70.8656,39.6421 70.8656,38.5171 C70.8656,37.3931 69.9536,36.4821 68.8296,36.4821 C67.7046,36.4821 66.7936,37.3931 66.7936,38.5171 Z M66.9256,31.6631 C66.9256,32.7151 67.7776,33.5671 68.8296,33.5671 C69.8806,33.5671 70.7326,32.7151 70.7326,31.6631 C70.7326,30.6121 69.8806,29.7601 68.8296,29.7601 C67.7776,29.7601 66.9256,30.6121 66.9256,31.6631 Z M74.5386,72.7881 C74.5386,74.1891 75.6746,75.3241 77.0756,75.3241 C78.4756,75.3241 79.6116,74.1891 79.6116,72.7881 C79.6116,71.3871 78.4756,70.2511 77.0756,70.2511 C75.6746,70.2511 74.5386,71.3871 74.5386,72.7881 Z M74.6706,65.9341 C74.6706,67.2621 75.7466,68.3381 77.0756,68.3381 C78.4036,68.3381 79.4796,67.2621 79.4796,65.9341 C79.4796,64.6061 78.4036,63.5291 77.0756,63.5291 C75.7466,63.5291 74.6706,64.6061 74.6706,65.9341 Z M74.8026,59.0801 C74.8026,60.3351 75.8196,61.3521 77.0756,61.3521 C78.3296,61.3521 79.3476,60.3351 79.3476,59.0801 C79.3476,57.8251 78.3296,56.8071 77.0756,56.8071 C75.8196,56.8071 74.8026,57.8251 74.8026,59.0801 Z M74.9346,52.2261 C74.9346,53.4081 75.8926,54.3671 77.0756,54.3671 C78.2576,54.3671 79.2156,53.4081 79.2156,52.2261 C79.2156,51.0431 78.2576,50.0851 77.0756,50.0851 C75.8926,50.0851 74.9346,51.0431 74.9346,52.2261 Z M75.0666,45.3711 C75.0666,46.4811 75.9656,47.3811 77.0756,47.3811 C78.1846,47.3811 79.0836,46.4811 79.0836,45.3711 C79.0836,44.2621 78.1846,43.3631 77.0756,43.3631 C75.9656,43.3631 75.0666,44.2621 75.0666,45.3711 Z M75.1986,38.5171 C75.1986,39.5541 76.0386,40.3941 77.0756,40.3941 C78.1116,40.3941 78.9526,39.5541 78.9526,38.5171 C78.9526,37.4811 78.1116,36.6411 77.0756,36.6411 C76.0386,36.6411 75.1986,37.4811 75.1986,38.5171 Z M75.3296,31.6631 C75.3296,32.6271 76.1116,33.4091 77.0756,33.4091 C78.0386,33.4091 78.8206,32.6271 78.8206,31.6631 C78.8206,30.7001 78.0386,29.9181 77.0756,29.9181 C76.1116,29.9181 75.3296,30.7001 75.3296,31.6631 Z M82.9426,72.7881 C82.9426,74.1011 84.0076,75.1651 85.3206,75.1651 C86.6336,75.1651 87.6986,74.1011 87.6986,72.7881 C87.6986,71.4751 86.6336,70.4101 85.3206,70.4101 C84.0076,70.4101 82.9426,71.4751 82.9426,72.7881 Z M83.0746,65.9341 C83.0746,67.1741 84.0806,68.1801 85.3206,68.1801 C86.5606,68.1801 87.5666,67.1741 87.5666,65.9341 C87.5666,64.6931 86.5606,63.6881 85.3206,63.6881 C84.0806,63.6881 83.0746,64.6931 83.0746,65.9341 Z M83.2066,59.0801 C83.2066,60.2471 84.1536,61.1941 85.3206,61.1941 C86.4886,61.1941 87.4346,60.2471 87.4346,59.0801 C87.4346,57.9121 86.4886,56.9661 85.3206,56.9661 C84.1536,56.9661 83.2066,57.9121 83.2066,59.0801 Z M83.3386,52.2261 C83.3386,53.3201 84.2256,54.2081 85.3206,54.2081 C86.4156,54.2081 87.3026,53.3201 87.3026,52.2261 C87.3026,51.1311 86.4156,50.2441 85.3206,50.2441 C84.2256,50.2441 83.3386,51.1311 83.3386,52.2261 Z M83.4706,45.3711 C83.4706,46.3931 84.2986,47.2221 85.3206,47.2221 C86.3426,47.2221 87.1706,46.3931 87.1706,45.3711 C87.1706,44.3501 86.3426,43.5211 85.3206,43.5211 C84.2986,43.5211 83.4706,44.3501 83.4706,45.3711 Z M83.6026,38.5171 C83.6026,39.4671 84.3716,40.2361 85.3206,40.2361 C86.2696,40.2361 87.0386,39.4671 87.0386,38.5171 C87.0386,37.5691 86.2696,36.7991 85.3206,36.7991 C84.3716,36.7991 83.6026,37.5691 83.6026,38.5171 Z M83.7346,31.6631 C83.7346,32.5401 84.4446,33.2501 85.3206,33.2501 C86.1966,33.2501 86.9076,32.5401 86.9076,31.6631 C86.9076,30.7881 86.1966,30.0771 85.3206,30.0771 C84.4446,30.0771 83.7346,30.7881 83.7346,31.6631 Z M91.3476,72.7881 C91.3476,74.0141 92.3406,75.0071 93.5666,75.0071 C94.7916,75.0071 95.7856,74.0141 95.7856,72.7881 C95.7856,71.5621 94.7916,70.5691 93.5666,70.5691 C92.3406,70.5691 91.3476,71.5621 91.3476,72.7881 Z M91.4796,65.9341 C91.4796,67.0861 92.4136,68.0211 93.5666,68.0211 C94.7196,68.0211 95.6536,67.0861 95.6536,65.9341 C95.6536,64.7811 94.7196,63.8471 93.5666,63.8471 C92.4136,63.8471 91.4796,64.7811 91.4796,65.9341 Z M91.6116,59.0801 C91.6116,60.1601 92.4866,61.0351 93.5666,61.0351 C94.6466,61.0351 95.5216,60.1601 95.5216,59.0801 C95.5216,58.0001 94.6466,57.1241 93.5666,57.1241 C92.4866,57.1241 91.6116,58.0001 91.6116,59.0801 Z M91.7436,52.2261 C91.7436,53.2331 92.5596,54.0491 93.5666,54.0491 C94.5736,54.0491 95.3906,53.2331 95.3906,52.2261 C95.3906,51.2191 94.5736,50.4021 93.5666,50.4021 C92.5596,50.4021 91.7436,51.2191 91.7436,52.2261 Z M91.8746,45.3711 C91.8746,46.3061 92.6326,47.0631 93.5666,47.0631 C94.5006,47.0631 95.2576,46.3061 95.2576,45.3711 C95.2576,44.4371 94.5006,43.6801 93.5666,43.6801 C92.6326,43.6801 91.8746,44.4371 91.8746,45.3711 Z M92.0066,38.5171 C92.0066,39.3791 92.7046,40.0771 93.5666,40.0771 C94.4276,40.0771 95.1256,39.3791 95.1256,38.5171 C95.1256,37.6561 94.4276,36.9581 93.5666,36.9581 C92.7046,36.9581 92.0066,37.6561 92.0066,38.5171 Z M92.1386,31.6631 C92.1386,32.4521 92.7776,33.0911 93.5666,33.0911 C94.3546,33.0911 94.9946,32.4521 94.9946,31.6631 C94.9946,30.8751 94.3546,30.2361 93.5666,30.2361 C92.7776,30.2361 92.1386,30.8751 92.1386,31.6631 Z M99.7516,72.7881 C99.7516,73.9261 100.6746,74.8481 101.8116,74.8481 C102.9506,74.8481 103.8726,73.9261 103.8726,72.7881 C103.8726,71.6501 102.9506,70.7271 101.8116,70.7271 C100.6746,70.7271 99.7516,71.6501 99.7516,72.7881 Z M99.8836,65.9341 C99.8836,66.9991 100.7466,67.8621 101.8116,67.8621 C102.8776,67.8621 103.7406,66.9991 103.7406,65.9341 C103.7406,64.8691 102.8776,64.0051 101.8116,64.0051 C100.7466,64.0051 99.8836,64.8691 99.8836,65.9341 Z M100.0156,59.0801 C100.0156,60.0721 100.8196,60.8761 101.8116,60.8761 C102.8046,60.8761 103.6086,60.0721 103.6086,59.0801 C103.6086,58.0871 102.8046,57.2831 101.8116,57.2831 C100.8196,57.2831 100.0156,58.0871 100.0156,59.0801 Z M100.1476,52.2261 C100.1476,53.1451 100.8926,53.8911 101.8116,53.8911 C102.7316,53.8911 103.4766,53.1451 103.4766,52.2261 C103.4766,51.3061 102.7316,50.5611 101.8116,50.5611 C100.8926,50.5611 100.1476,51.3061 100.1476,52.2261 Z M100.2796,45.3711 C100.2796,46.2181 100.9656,46.9051 101.8116,46.9051 C102.6586,46.9051 103.3456,46.2181 103.3456,45.3711 C103.3456,44.5251 102.6586,43.8391 101.8116,43.8391 C100.9656,43.8391 100.2796,44.5251 100.2796,45.3711 Z M100.4116,38.5171 C100.4116,39.2911 101.0386,39.9181 101.8116,39.9181 C102.5856,39.9181 103.2136,39.2911 103.2136,38.5171 C103.2136,37.7441 102.5856,37.1171 101.8116,37.1171 C101.0386,37.1171 100.4116,37.7441 100.4116,38.5171 Z M100.5426,31.6631 C100.5426,32.3651 101.1116,32.9331 101.8116,32.9331 C102.5136,32.9331 103.0816,32.3651 103.0816,31.6631 C103.0816,30.9631 102.5136,30.3941 101.8116,30.3941 C101.1116,30.3941 100.5426,30.9631 100.5426,31.6631 Z M108.1566,72.7881 C108.1566,73.8381 109.0076,74.6891 110.0586,74.6891 C111.1086,74.6891 111.9596,73.8381 111.9596,72.7881 C111.9596,71.7381 111.1086,70.8861 110.0586,70.8861 C109.0076,70.8861 108.1566,71.7381 108.1566,72.7881 Z M108.2876,65.9341 C108.2876,66.9111 109.0806,67.7041 110.0586,67.7041 C111.0356,67.7041 111.8276,66.9111 111.8276,65.9341 C111.8276,64.9561 111.0356,64.1641 110.0586,64.1641 C109.0806,64.1641 108.2876,64.9561 108.2876,65.9341 Z M108.4196,59.0801 C108.4196,59.9841 109.1536,60.7181 110.0586,60.7181 C110.9626,60.7181 111.6956,59.9841 111.6956,59.0801 C111.6956,58.1751 110.9626,57.4421 110.0586,57.4421 C109.1536,57.4421 108.4196,58.1751 108.4196,59.0801 Z M108.5516,52.2261 C108.5516,53.0581 109.2256,53.7321 110.0586,53.7321 C110.8896,53.7321 111.5636,53.0581 111.5636,52.2261 C111.5636,51.3941 110.8896,50.7201 110.0586,50.7201 C109.2256,50.7201 108.5516,51.3941 108.5516,52.2261 Z M108.6836,45.3711 C108.6836,46.1311 109.2986,46.7461 110.0586,46.7461 C110.8166,46.7461 111.4326,46.1311 111.4326,45.3711 C111.4326,44.6131 110.8166,43.9971 110.0586,43.9971 C109.2986,43.9971 108.6836,44.6131 108.6836,45.3711 Z M108.8156,38.5171 C108.8156,39.2041 109.3716,39.7601 110.0586,39.7601 C110.7446,39.7601 111.3006,39.2041 111.3006,38.5171 C111.3006,37.8311 110.7446,37.2751 110.0586,37.2751 C109.3716,37.2751 108.8156,37.8311 108.8156,38.5171 Z M108.9476,31.6631 C108.9476,32.2771 109.4446,32.7741 110.0586,32.7741 C110.6716,32.7741 111.1686,32.2771 111.1686,31.6631 C111.1686,31.0501 110.6716,30.5531 110.0586,30.5531 C109.4446,30.5531 108.9476,31.0501 108.9476,31.6631 Z M116.5606,72.7881 C116.5606,73.7501 117.3406,74.5311 118.3036,74.5311 C119.2666,74.5311 120.0466,73.7501 120.0466,72.7881 C120.0466,71.8251 119.2666,71.0451 118.3036,71.0451 C117.3406,71.0451 116.5606,71.8251 116.5606,72.7881 Z M116.6926,65.9341 C116.6926,66.8241 117.4136,67.5451 118.3036,67.5451 C119.1936,67.5451 119.9146,66.8241 119.9146,65.9341 C119.9146,65.0441 119.1936,64.3231 118.3036,64.3231 C117.4136,64.3231 116.6926,65.0441 116.6926,65.9341 Z M116.8246,59.0801 C116.8246,59.8971 117.4866,60.5591 118.3036,60.5591 C119.1206,60.5591 119.7836,59.8971 119.7836,59.0801 C119.7836,58.2631 119.1206,57.6001 118.3036,57.6001 C117.4866,57.6001 116.8246,58.2631 116.8246,59.0801 Z M116.9556,52.2261 C116.9556,52.9701 117.5596,53.5731 118.3036,53.5731 C119.0476,53.5731 119.6506,52.9701 119.6506,52.2261 C119.6506,51.4811 119.0476,50.8781 118.3036,50.8781 C117.5596,50.8781 116.9556,51.4811 116.9556,52.2261 Z M117.0886,45.3711 C117.0886,46.0431 117.6326,46.5871 118.3036,46.5871 C118.9746,46.5871 119.5186,46.0431 119.5186,45.3711 C119.5186,44.7011 118.9746,44.1561 118.3036,44.1561 C117.6326,44.1561 117.0886,44.7011 117.0886,45.3711 Z M117.2206,38.5171 C117.2206,39.1161 117.7046,39.6011 118.3036,39.6011 C118.9026,39.6011 119.3876,39.1161 119.3876,38.5171 C119.3876,37.9191 118.9026,37.4341 118.3036,37.4341 C117.7046,37.4341 117.2206,37.9191 117.2206,38.5171 Z M117.3516,31.6631 C117.3516,32.1891 117.7776,32.6151 118.3036,32.6151 C118.8296,32.6151 119.2556,32.1891 119.2556,31.6631 C119.2556,31.1381 118.8296,30.7121 118.3036,30.7121 C117.7776,30.7121 117.3516,31.1381 117.3516,31.6631 Z M124.9646,72.7881 C124.9646,73.6631 125.6746,74.3721 126.5496,74.3721 C127.4246,74.3721 128.1336,73.6631 128.1336,72.7881 C128.1336,71.9131 127.4246,71.2041 126.5496,71.2041 C125.6746,71.2041 124.9646,71.9131 124.9646,72.7881 Z M125.0966,65.9341 C125.0966,66.7361 125.7466,67.3861 126.5496,67.3861 C127.3516,67.3861 128.0016,66.7361 128.0016,65.9341 C128.0016,65.1321 127.3516,64.4811 126.5496,64.4811 C125.7466,64.4811 125.0966,65.1321 125.0966,65.9341 Z M125.2286,59.0801 C125.2286,59.8091 125.8196,60.4001 126.5496,60.4001 C127.2786,60.4001 127.8706,59.8091 127.8706,59.0801 C127.8706,58.3501 127.2786,57.7591 126.5496,57.7591 C125.8196,57.7591 125.2286,58.3501 125.2286,59.0801 Z M125.3606,52.2261 C125.3606,52.8821 125.8926,53.4141 126.5496,53.4141 C127.2056,53.4141 127.7386,52.8821 127.7386,52.2261 C127.7386,51.5691 127.2056,51.0371 126.5496,51.0371 C125.8926,51.0371 125.3606,51.5691 125.3606,52.2261 Z M125.4926,45.3711 C125.4926,45.9551 125.9656,46.4291 126.5496,46.4291 C127.1336,46.4291 127.6066,45.9551 127.6066,45.3711 C127.6066,44.7881 127.1336,44.3151 126.5496,44.3151 C125.9656,44.3151 125.4926,44.7881 125.4926,45.3711 Z M125.6246,38.5171 C125.6246,39.0281 126.0386,39.4431 126.5496,39.4431 C127.0596,39.4431 127.4746,39.0281 127.4746,38.5171 C127.4746,38.0071 127.0596,37.5931 126.5496,37.5931 C126.0386,37.5931 125.6246,38.0071 125.6246,38.5171 Z M125.7566,31.6631 C125.7566,32.1011 126.1116,32.4561 126.5496,32.4561 C126.9876,32.4561 127.3426,32.1011 127.3426,31.6631 C127.3426,31.2251 126.9876,30.8711 126.5496,30.8711 C126.1116,30.8711 125.7566,31.2251 125.7566,31.6631 Z M133.3696,72.7881 C133.3696,73.5751 134.0076,74.2141 134.7946,74.2141 C135.5826,74.2141 136.2206,73.5751 136.2206,72.7881 C136.2206,72.0001 135.5826,71.3621 134.7946,71.3621 C134.0076,71.3621 133.3696,72.0001 133.3696,72.7881 Z M133.5016,65.9341 C133.5016,66.6481 134.0806,67.2271 134.7946,67.2271 C135.5096,67.2271 136.0886,66.6481 136.0886,65.9341 C136.0886,65.2191 135.5096,64.6401 134.7946,64.6401 C134.0806,64.6401 133.5016,65.2191 133.5016,65.9341 Z M133.6336,59.0801 C133.6336,59.7221 134.1536,60.2421 134.7946,60.2421 C135.4366,60.2421 135.9566,59.7221 135.9566,59.0801 C135.9566,58.4381 135.4366,57.9181 134.7946,57.9181 C134.1536,57.9181 133.6336,58.4381 133.6336,59.0801 Z M133.7656,52.2261 C133.7656,52.7951 134.2256,53.2561 134.7946,53.2561 C135.3636,53.2561 135.8256,52.7951 135.8256,52.2261 C135.8256,51.6571 135.3636,51.1961 134.7946,51.1961 C134.2256,51.1961 133.7656,51.6571 133.7656,52.2261 Z M133.8966,45.3711 C133.8966,45.8681 134.2996,46.2701 134.7946,46.2701 C135.2906,46.2701 135.6936,45.8681 135.6936,45.3711 C135.6936,44.8751 135.2906,44.4741 134.7946,44.4741 C134.2996,44.4741 133.8966,44.8751 133.8966,45.3711 Z M134.0286,38.5171 C134.0286,38.9411 134.3716,39.2841 134.7946,39.2841 C135.2186,39.2841 135.5616,38.9411 135.5616,38.5171 C135.5616,38.0951 135.2186,37.7511 134.7946,37.7511 C134.3716,37.7511 134.0286,38.0951 134.0286,38.5171 Z M134.1606,31.6631 C134.1606,32.0141 134.4446,32.2981 134.7946,32.2981 C135.1456,32.2981 135.4296,32.0141 135.4296,31.6631 C135.4296,31.3131 135.1456,31.0291 134.7946,31.0291 C134.4446,31.0291 134.1606,31.3131 134.1606,31.6631 Z M141.7736,72.7881 C141.7736,73.4881 142.3416,74.0551 143.0406,74.0551 C143.7406,74.0551 144.3086,73.4881 144.3086,72.7881 C144.3086,72.0881 143.7406,71.5211 143.0406,71.5211 C142.3416,71.5211 141.7736,72.0881 141.7736,72.7881 Z M141.9056,65.9341 C141.9056,66.5611 142.4136,67.0691 143.0406,67.0691 C143.6676,67.0691 144.1756,66.5611 144.1756,65.9341 C144.1756,65.3071 143.6676,64.7991 143.0406,64.7991 C142.4136,64.7991 141.9056,65.3071 141.9056,65.9341 Z M142.0376,59.0801 C142.0376,59.6341 142.4866,60.0831 143.0406,60.0831 C143.5946,60.0831 144.0436,59.6341 144.0436,59.0801 C144.0436,58.5261 143.5946,58.0771 143.0406,58.0771 C142.4866,58.0771 142.0376,58.5261 142.0376,59.0801 Z M142.1696,52.2261 C142.1696,52.7071 142.5596,53.0971 143.0406,53.0971 C143.5216,53.0971 143.9126,52.7071 143.9126,52.2261 C143.9126,51.7451 143.5216,51.3541 143.0406,51.3541 C142.5596,51.3541 142.1696,51.7451 142.1696,52.2261 Z M142.3016,45.3711 C142.3016,45.7801 142.6326,46.1111 143.0406,46.1111 C143.4496,46.1111 143.7806,45.7801 143.7806,45.3711 C143.7806,44.9631 143.4496,44.6321 143.0406,44.6321 C142.6326,44.6321 142.3016,44.9631 142.3016,45.3711 Z M142.4336,38.5171 C142.4336,38.8531 142.7046,39.1251 143.0406,39.1251 C143.3766,39.1251 143.6486,38.8531 143.6486,38.5171 C143.6486,38.1821 143.3766,37.9101 143.0406,37.9101 C142.7046,37.9101 142.4336,38.1821 142.4336,38.5171 Z M142.5646,31.6631 C142.5646,31.9261 142.7786,32.1391 143.0406,32.1391 C143.3036,32.1391 143.5166,31.9261 143.5166,31.6631 C143.5166,31.4011 143.3036,31.1881 143.0406,31.1881 C142.7786,31.1881 142.5646,31.4011 142.5646,31.6631 Z M28.7106,77.9261 L28.7106,26.5281 C28.7106,25.4241 29.6066,24.5281 30.7106,24.5281 L148.1826,24.5281 C149.2876,24.5281 150.1826,25.4241 150.1826,26.5281 L150.1826,77.9261 C150.1826,79.0311 149.2876,79.9261 148.1826,79.9261 L30.7106,79.9261 C29.6066,79.9261 28.7106,79.0311 28.7106,77.9261 Z" id="Stroke-183" stroke="#000000" stroke-linecap="round" stroke-linejoin="round"></path>
            <path d="M32.5166,72.7881 C32.5166,74.6271 34.0076,76.1181 35.8466,76.1181 C37.6856,76.1181 39.1766,74.6271 39.1766,72.7881 C39.1766,70.9491 37.6856,69.4581 35.8466,69.4581 C34.0076,69.4581 32.5166,70.9491 32.5166,72.7881 M32.6486,65.9341 C32.6486,67.7001 34.0806,69.1321 35.8466,69.1321 C37.6126,69.1321 39.0446,67.7001 39.0446,65.9341 C39.0446,64.1671 37.6126,62.7361 35.8466,62.7361 C34.0806,62.7361 32.6486,64.1671 32.6486,65.9341 M32.7806,59.0801 C32.7806,60.7731 34.1536,62.1461 35.8466,62.1461 C37.5396,62.1461 38.9126,60.7731 38.9126,59.0801 C38.9126,57.3871 37.5396,56.0141 35.8466,56.0141 C34.1536,56.0141 32.7806,57.3871 32.7806,59.0801 M32.9126,52.2261 C32.9126,53.8461 34.2256,55.1601 35.8466,55.1601 C37.4666,55.1601 38.7806,53.8461 38.7806,52.2261 C38.7806,50.6051 37.4666,49.2911 35.8466,49.2911 C34.2256,49.2911 32.9126,50.6051 32.9126,52.2261 M33.0446,45.3711 C33.0446,46.9191 34.2986,48.1741 35.8466,48.1741 C37.3936,48.1741 38.6486,46.9191 38.6486,45.3711 C38.6486,43.8241 37.3936,42.5691 35.8466,42.5691 C34.2986,42.5691 33.0446,43.8241 33.0446,45.3711 M33.1766,38.5171 C33.1766,39.9931 34.3716,41.1881 35.8466,41.1881 C37.3216,41.1881 38.5166,39.9931 38.5166,38.5171 C38.5166,37.0431 37.3216,35.8471 35.8466,35.8471 C34.3716,35.8471 33.1766,37.0431 33.1766,38.5171 M33.3086,31.6631 C33.3086,33.0651 34.4446,34.2021 35.8466,34.2021 C37.2486,34.2021 38.3846,33.0651 38.3846,31.6631 C38.3846,30.2621 37.2486,29.1251 35.8466,29.1251 C34.4446,29.1251 33.3086,30.2621 33.3086,31.6631 M40.9206,72.7881 C40.9206,74.5391 42.3406,75.9591 44.0926,75.9591 C45.8436,75.9591 47.2636,74.5391 47.2636,72.7881 C47.2636,71.0371 45.8436,69.6171 44.0926,69.6171 C42.3406,69.6171 40.9206,71.0371 40.9206,72.7881 M41.0526,65.9341 C41.0526,67.6121 42.4136,68.9731 44.0926,68.9731 C45.7706,68.9731 47.1316,67.6121 47.1316,65.9341 C47.1316,64.2551 45.7706,62.8941 44.0926,62.8941 C42.4136,62.8941 41.0526,64.2551 41.0526,65.9341 M41.1846,59.0801 C41.1846,60.6851 42.4866,61.9871 44.0926,61.9871 C45.6976,61.9871 46.9996,60.6851 46.9996,59.0801 C46.9996,57.4741 45.6976,56.1721 44.0926,56.1721 C42.4866,56.1721 41.1846,57.4741 41.1846,59.0801 M41.3166,52.2261 C41.3166,53.7591 42.5596,55.0011 44.0926,55.0011 C45.6246,55.0011 46.8676,53.7591 46.8676,52.2261 C46.8676,50.6931 45.6246,49.4501 44.0926,49.4501 C42.5596,49.4501 41.3166,50.6931 41.3166,52.2261 M41.4486,45.3711 C41.4486,46.8311 42.6326,48.0151 44.0926,48.0151 C45.5526,48.0151 46.7356,46.8311 46.7356,45.3711 C46.7356,43.9121 45.5526,42.7281 44.0926,42.7281 C42.6326,42.7281 41.4486,43.9121 41.4486,45.3711 M41.5806,38.5171 C41.5806,39.9051 42.7046,41.0291 44.0926,41.0291 C45.4796,41.0291 46.6036,39.9051 46.6036,38.5171 C46.6036,37.1301 45.4796,36.0061 44.0926,36.0061 C42.7046,36.0061 41.5806,37.1301 41.5806,38.5171 M41.7126,31.6631 C41.7126,32.9781 42.7776,34.0431 44.0926,34.0431 C45.4066,34.0431 46.4726,32.9781 46.4726,31.6631 C46.4726,30.3501 45.4066,29.2841 44.0926,29.2841 C42.7776,29.2841 41.7126,30.3501 41.7126,31.6631 M49.3256,72.7881 C49.3256,74.4521 50.6746,75.8001 52.3376,75.8001 C54.0016,75.8001 55.3506,74.4521 55.3506,72.7881 C55.3506,71.1241 54.0016,69.7751 52.3376,69.7751 C50.6746,69.7751 49.3256,71.1241 49.3256,72.7881 M49.4576,65.9341 C49.4576,67.5251 50.7466,68.8141 52.3376,68.8141 C53.9286,68.8141 55.2186,67.5251 55.2186,65.9341 C55.2186,64.3431 53.9286,63.0531 52.3376,63.0531 C50.7466,63.0531 49.4576,64.3431 49.4576,65.9341 M49.5896,59.0801 C49.5896,60.5981 50.8196,61.8291 52.3376,61.8291 C53.8556,61.8291 55.0866,60.5981 55.0866,59.0801 C55.0866,57.5621 53.8556,56.3311 52.3376,56.3311 C50.8196,56.3311 49.5896,57.5621 49.5896,59.0801 M49.7216,52.2261 C49.7216,53.6711 50.8926,54.8431 52.3376,54.8431 C53.7836,54.8431 54.9546,53.6711 54.9546,52.2261 C54.9546,50.7811 53.7836,49.6091 52.3376,49.6091 C50.8926,49.6091 49.7216,50.7811 49.7216,52.2261 M49.8526,45.3711 C49.8526,46.7441 50.9656,47.8561 52.3376,47.8561 C53.7106,47.8561 54.8226,46.7441 54.8226,45.3711 C54.8226,43.9991 53.7106,42.8871 52.3376,42.8871 C50.9656,42.8871 49.8526,43.9991 49.8526,45.3711 M49.9846,38.5171 C49.9846,39.8171 51.0386,40.8711 52.3376,40.8711 C53.6376,40.8711 54.6906,39.8171 54.6906,38.5171 C54.6906,37.2181 53.6376,36.1641 52.3376,36.1641 C51.0386,36.1641 49.9846,37.2181 49.9846,38.5171 M50.1166,31.6631 C50.1166,32.8901 51.1116,33.8851 52.3376,33.8851 C53.5646,33.8851 54.5586,32.8901 54.5586,31.6631 C54.5586,30.4371 53.5646,29.4421 52.3376,29.4421 C51.1116,29.4421 50.1166,30.4371 50.1166,31.6631 M57.7296,72.7881 C57.7296,74.3641 59.0076,75.6421 60.5836,75.6421 C62.1596,75.6421 63.4376,74.3641 63.4376,72.7881 C63.4376,71.2121 62.1596,69.9341 60.5836,69.9341 C59.0076,69.9341 57.7296,71.2121 57.7296,72.7881 M57.8616,65.9341 C57.8616,67.4371 59.0806,68.6561 60.5836,68.6561 C62.0866,68.6561 63.3056,67.4371 63.3056,65.9341 C63.3056,64.4311 62.0866,63.2121 60.5836,63.2121 C59.0806,63.2121 57.8616,64.4311 57.8616,65.9341 M57.9936,59.0801 C57.9936,60.5101 59.1536,61.6701 60.5836,61.6701 C62.0146,61.6701 63.1736,60.5101 63.1736,59.0801 C63.1736,57.6491 62.0146,56.4901 60.5836,56.4901 C59.1536,56.4901 57.9936,57.6491 57.9936,59.0801 M58.1256,52.2261 C58.1256,53.5831 59.2256,54.6841 60.5836,54.6841 C61.9416,54.6841 63.0416,53.5831 63.0416,52.2261 C63.0416,50.8681 61.9416,49.7671 60.5836,49.7671 C59.2256,49.7671 58.1256,50.8681 58.1256,52.2261 M58.2576,45.3711 C58.2576,46.6571 59.2986,47.6981 60.5836,47.6981 C61.8686,47.6981 62.9096,46.6571 62.9096,45.3711 C62.9096,44.0871 61.8686,43.0451 60.5836,43.0451 C59.2986,43.0451 58.2576,44.0871 58.2576,45.3711 M58.3896,38.5171 C58.3896,39.7291 59.3716,40.7121 60.5836,40.7121 C61.7956,40.7121 62.7776,39.7291 62.7776,38.5171 C62.7776,37.3061 61.7956,36.3231 60.5836,36.3231 C59.3716,36.3231 58.3896,37.3061 58.3896,38.5171 M58.5206,31.6631 C58.5206,32.8031 59.4446,33.7261 60.5836,33.7261 C61.7226,33.7261 62.6456,32.8031 62.6456,31.6631 C62.6456,30.5241 61.7226,29.6011 60.5836,29.6011 C59.4446,29.6011 58.5206,30.5241 58.5206,31.6631 M66.1346,72.7881 C66.1346,74.2761 67.3406,75.4831 68.8296,75.4831 C70.3176,75.4831 71.5246,74.2761 71.5246,72.7881 C71.5246,71.2991 70.3176,70.0931 68.8296,70.0931 C67.3406,70.0931 66.1346,71.2991 66.1346,72.7881 M66.2666,65.9341 C66.2666,67.3501 67.4136,68.4971 68.8296,68.4971 C70.2456,68.4971 71.3926,67.3501 71.3926,65.9341 C71.3926,64.5181 70.2456,63.3711 68.8296,63.3711 C67.4136,63.3711 66.2666,64.5181 66.2666,65.9341 M66.3976,59.0801 C66.3976,60.4231 67.4866,61.5111 68.8296,61.5111 C70.1726,61.5111 71.2606,60.4231 71.2606,59.0801 C71.2606,57.7371 70.1726,56.6481 68.8296,56.6481 C67.4866,56.6481 66.3976,57.7371 66.3976,59.0801 M66.5296,52.2261 C66.5296,53.4961 67.5596,54.5251 68.8296,54.5251 C70.0996,54.5251 71.1286,53.4961 71.1286,52.2261 C71.1286,50.9561 70.0996,49.9261 68.8296,49.9261 C67.5596,49.9261 66.5296,50.9561 66.5296,52.2261 M66.6616,45.3711 C66.6616,46.5691 67.6326,47.5391 68.8296,47.5391 C70.0266,47.5391 70.9966,46.5691 70.9966,45.3711 C70.9966,44.1751 70.0266,43.2041 68.8296,43.2041 C67.6326,43.2041 66.6616,44.1751 66.6616,45.3711 M66.7936,38.5171 C66.7936,39.6421 67.7046,40.5531 68.8296,40.5531 C69.9536,40.5531 70.8656,39.6421 70.8656,38.5171 C70.8656,37.3931 69.9536,36.4821 68.8296,36.4821 C67.7046,36.4821 66.7936,37.3931 66.7936,38.5171 M66.9256,31.6631 C66.9256,32.7151 67.7776,33.5671 68.8296,33.5671 C69.8806,33.5671 70.7326,32.7151 70.7326,31.6631 C70.7326,30.6121 69.8806,29.7601 68.8296,29.7601 C67.7776,29.7601 66.9256,30.6121 66.9256,31.6631 M74.5386,72.7881 C74.5386,74.1891 75.6746,75.3241 77.0756,75.3241 C78.4756,75.3241 79.6116,74.1891 79.6116,72.7881 C79.6116,71.3871 78.4756,70.2511 77.0756,70.2511 C75.6746,70.2511 74.5386,71.3871 74.5386,72.7881 M74.6706,65.9341 C74.6706,67.2621 75.7466,68.3381 77.0756,68.3381 C78.4036,68.3381 79.4796,67.2621 79.4796,65.9341 C79.4796,64.6061 78.4036,63.5291 77.0756,63.5291 C75.7466,63.5291 74.6706,64.6061 74.6706,65.9341 M74.8026,59.0801 C74.8026,60.3351 75.8196,61.3521 77.0756,61.3521 C78.3296,61.3521 79.3476,60.3351 79.3476,59.0801 C79.3476,57.8251 78.3296,56.8071 77.0756,56.8071 C75.8196,56.8071 74.8026,57.8251 74.8026,59.0801 M74.9346,52.2261 C74.9346,53.4081 75.8926,54.3671 77.0756,54.3671 C78.2576,54.3671 79.2156,53.4081 79.2156,52.2261 C79.2156,51.0431 78.2576,50.0851 77.0756,50.0851 C75.8926,50.0851 74.9346,51.0431 74.9346,52.2261 M75.0666,45.3711 C75.0666,46.4811 75.9656,47.3811 77.0756,47.3811 C78.1846,47.3811 79.0836,46.4811 79.0836,45.3711 C79.0836,44.2621 78.1846,43.3631 77.0756,43.3631 C75.9656,43.3631 75.0666,44.2621 75.0666,45.3711 M75.1986,38.5171 C75.1986,39.5541 76.0386,40.3941 77.0756,40.3941 C78.1116,40.3941 78.9526,39.5541 78.9526,38.5171 C78.9526,37.4811 78.1116,36.6411 77.0756,36.6411 C76.0386,36.6411 75.1986,37.4811 75.1986,38.5171 M75.3296,31.6631 C75.3296,32.6271 76.1116,33.4091 77.0756,33.4091 C78.0386,33.4091 78.8206,32.6271 78.8206,31.6631 C78.8206,30.7001 78.0386,29.9181 77.0756,29.9181 C76.1116,29.9181 75.3296,30.7001 75.3296,31.6631 M82.9426,72.7881 C82.9426,74.1011 84.0076,75.1651 85.3206,75.1651 C86.6336,75.1651 87.6986,74.1011 87.6986,72.7881 C87.6986,71.4751 86.6336,70.4101 85.3206,70.4101 C84.0076,70.4101 82.9426,71.4751 82.9426,72.7881 M83.0746,65.9341 C83.0746,67.1741 84.0806,68.1801 85.3206,68.1801 C86.5606,68.1801 87.5666,67.1741 87.5666,65.9341 C87.5666,64.6931 86.5606,63.6881 85.3206,63.6881 C84.0806,63.6881 83.0746,64.6931 83.0746,65.9341 M83.2066,59.0801 C83.2066,60.2471 84.1536,61.1941 85.3206,61.1941 C86.4886,61.1941 87.4346,60.2471 87.4346,59.0801 C87.4346,57.9121 86.4886,56.9661 85.3206,56.9661 C84.1536,56.9661 83.2066,57.9121 83.2066,59.0801 M83.3386,52.2261 C83.3386,53.3201 84.2256,54.2081 85.3206,54.2081 C86.4156,54.2081 87.3026,53.3201 87.3026,52.2261 C87.3026,51.1311 86.4156,50.2441 85.3206,50.2441 C84.2256,50.2441 83.3386,51.1311 83.3386,52.2261 M83.4706,45.3711 C83.4706,46.3931 84.2986,47.2221 85.3206,47.2221 C86.3426,47.2221 87.1706,46.3931 87.1706,45.3711 C87.1706,44.3501 86.3426,43.5211 85.3206,43.5211 C84.2986,43.5211 83.4706,44.3501 83.4706,45.3711 M83.6026,38.5171 C83.6026,39.4671 84.3716,40.2361 85.3206,40.2361 C86.2696,40.2361 87.0386,39.4671 87.0386,38.5171 C87.0386,37.5691 86.2696,36.7991 85.3206,36.7991 C84.3716,36.7991 83.6026,37.5691 83.6026,38.5171 M83.7346,31.6631 C83.7346,32.5401 84.4446,33.2501 85.3206,33.2501 C86.1966,33.2501 86.9076,32.5401 86.9076,31.6631 C86.9076,30.7881 86.1966,30.0771 85.3206,30.0771 C84.4446,30.0771 83.7346,30.7881 83.7346,31.6631 M91.3476,72.7881 C91.3476,74.0141 92.3406,75.0071 93.5666,75.0071 C94.7916,75.0071 95.7856,74.0141 95.7856,72.7881 C95.7856,71.5621 94.7916,70.5691 93.5666,70.5691 C92.3406,70.5691 91.3476,71.5621 91.3476,72.7881 M91.4796,65.9341 C91.4796,67.0861 92.4136,68.0211 93.5666,68.0211 C94.7196,68.0211 95.6536,67.0861 95.6536,65.9341 C95.6536,64.7811 94.7196,63.8471 93.5666,63.8471 C92.4136,63.8471 91.4796,64.7811 91.4796,65.9341 M91.6116,59.0801 C91.6116,60.1601 92.4866,61.0351 93.5666,61.0351 C94.6466,61.0351 95.5216,60.1601 95.5216,59.0801 C95.5216,58.0001 94.6466,57.1241 93.5666,57.1241 C92.4866,57.1241 91.6116,58.0001 91.6116,59.0801 M91.7436,52.2261 C91.7436,53.2331 92.5596,54.0491 93.5666,54.0491 C94.5736,54.0491 95.3906,53.2331 95.3906,52.2261 C95.3906,51.2191 94.5736,50.4021 93.5666,50.4021 C92.5596,50.4021 91.7436,51.2191 91.7436,52.2261 M91.8746,45.3711 C91.8746,46.3061 92.6326,47.0631 93.5666,47.0631 C94.5006,47.0631 95.2576,46.3061 95.2576,45.3711 C95.2576,44.4371 94.5006,43.6801 93.5666,43.6801 C92.6326,43.6801 91.8746,44.4371 91.8746,45.3711 M92.0066,38.5171 C92.0066,39.3791 92.7046,40.0771 93.5666,40.0771 C94.4276,40.0771 95.1256,39.3791 95.1256,38.5171 C95.1256,37.6561 94.4276,36.9581 93.5666,36.9581 C92.7046,36.9581 92.0066,37.6561 92.0066,38.5171 M92.1386,31.6631 C92.1386,32.4521 92.7776,33.0911 93.5666,33.0911 C94.3546,33.0911 94.9946,32.4521 94.9946,31.6631 C94.9946,30.8751 94.3546,30.2361 93.5666,30.2361 C92.7776,30.2361 92.1386,30.8751 92.1386,31.6631 M99.7516,72.7881 C99.7516,73.9261 100.6746,74.8481 101.8116,74.8481 C102.9506,74.8481 103.8726,73.9261 103.8726,72.7881 C103.8726,71.6501 102.9506,70.7271 101.8116,70.7271 C100.6746,70.7271 99.7516,71.6501 99.7516,72.7881 M99.8836,65.9341 C99.8836,66.9991 100.7466,67.8621 101.8116,67.8621 C102.8776,67.8621 103.7406,66.9991 103.7406,65.9341 C103.7406,64.8691 102.8776,64.0051 101.8116,64.0051 C100.7466,64.0051 99.8836,64.8691 99.8836,65.9341 M100.0156,59.0801 C100.0156,60.0721 100.8196,60.8761 101.8116,60.8761 C102.8046,60.8761 103.6086,60.0721 103.6086,59.0801 C103.6086,58.0871 102.8046,57.2831 101.8116,57.2831 C100.8196,57.2831 100.0156,58.0871 100.0156,59.0801 M100.1476,52.2261 C100.1476,53.1451 100.8926,53.8911 101.8116,53.8911 C102.7316,53.8911 103.4766,53.1451 103.4766,52.2261 C103.4766,51.3061 102.7316,50.5611 101.8116,50.5611 C100.8926,50.5611 100.1476,51.3061 100.1476,52.2261 M100.2796,45.3711 C100.2796,46.2181 100.9656,46.9051 101.8116,46.9051 C102.6586,46.9051 103.3456,46.2181 103.3456,45.3711 C103.3456,44.5251 102.6586,43.8391 101.8116,43.8391 C100.9656,43.8391 100.2796,44.5251 100.2796,45.3711 M100.4116,38.5171 C100.4116,39.2911 101.0386,39.9181 101.8116,39.9181 C102.5856,39.9181 103.2136,39.2911 103.2136,38.5171 C103.2136,37.7441 102.5856,37.1171 101.8116,37.1171 C101.0386,37.1171 100.4116,37.7441 100.4116,38.5171 M100.5426,31.6631 C100.5426,32.3651 101.1116,32.9331 101.8116,32.9331 C102.5136,32.9331 103.0816,32.3651 103.0816,31.6631 C103.0816,30.9631 102.5136,30.3941 101.8116,30.3941 C101.1116,30.3941 100.5426,30.9631 100.5426,31.6631 M108.1566,72.7881 C108.1566,73.8381 109.0076,74.6891 110.0586,74.6891 C111.1086,74.6891 111.9596,73.8381 111.9596,72.7881 C111.9596,71.7381 111.1086,70.8861 110.0586,70.8861 C109.0076,70.8861 108.1566,71.7381 108.1566,72.7881 M108.2876,65.9341 C108.2876,66.9111 109.0806,67.7041 110.0586,67.7041 C111.0356,67.7041 111.8276,66.9111 111.8276,65.9341 C111.8276,64.9561 111.0356,64.1641 110.0586,64.1641 C109.0806,64.1641 108.2876,64.9561 108.2876,65.9341 M108.4196,59.0801 C108.4196,59.9841 109.1536,60.7181 110.0586,60.7181 C110.9626,60.7181 111.6956,59.9841 111.6956,59.0801 C111.6956,58.1751 110.9626,57.4421 110.0586,57.4421 C109.1536,57.4421 108.4196,58.1751 108.4196,59.0801 M108.5516,52.2261 C108.5516,53.0581 109.2256,53.7321 110.0586,53.7321 C110.8896,53.7321 111.5636,53.0581 111.5636,52.2261 C111.5636,51.3941 110.8896,50.7201 110.0586,50.7201 C109.2256,50.7201 108.5516,51.3941 108.5516,52.2261 M108.6836,45.3711 C108.6836,46.1311 109.2986,46.7461 110.0586,46.7461 C110.8166,46.7461 111.4326,46.1311 111.4326,45.3711 C111.4326,44.6131 110.8166,43.9971 110.0586,43.9971 C109.2986,43.9971 108.6836,44.6131 108.6836,45.3711 M108.8156,38.5171 C108.8156,39.2041 109.3716,39.7601 110.0586,39.7601 C110.7446,39.7601 111.3006,39.2041 111.3006,38.5171 C111.3006,37.8311 110.7446,37.2751 110.0586,37.2751 C109.3716,37.2751 108.8156,37.8311 108.8156,38.5171 M108.9476,31.6631 C108.9476,32.2771 109.4446,32.7741 110.0586,32.7741 C110.6716,32.7741 111.1686,32.2771 111.1686,31.6631 C111.1686,31.0501 110.6716,30.5531 110.0586,30.5531 C109.4446,30.5531 108.9476,31.0501 108.9476,31.6631 M116.5606,72.7881 C116.5606,73.7501 117.3406,74.5311 118.3036,74.5311 C119.2666,74.5311 120.0466,73.7501 120.0466,72.7881 C120.0466,71.8251 119.2666,71.0451 118.3036,71.0451 C117.3406,71.0451 116.5606,71.8251 116.5606,72.7881 M116.6926,65.9341 C116.6926,66.8241 117.4136,67.5451 118.3036,67.5451 C119.1936,67.5451 119.9146,66.8241 119.9146,65.9341 C119.9146,65.0441 119.1936,64.3231 118.3036,64.3231 C117.4136,64.3231 116.6926,65.0441 116.6926,65.9341 M116.8246,59.0801 C116.8246,59.8971 117.4866,60.5591 118.3036,60.5591 C119.1206,60.5591 119.7836,59.8971 119.7836,59.0801 C119.7836,58.2631 119.1206,57.6001 118.3036,57.6001 C117.4866,57.6001 116.8246,58.2631 116.8246,59.0801 M116.9556,52.2261 C116.9556,52.9701 117.5596,53.5731 118.3036,53.5731 C119.0476,53.5731 119.6506,52.9701 119.6506,52.2261 C119.6506,51.4811 119.0476,50.8781 118.3036,50.8781 C117.5596,50.8781 116.9556,51.4811 116.9556,52.2261 M117.0886,45.3711 C117.0886,46.0431 117.6326,46.5871 118.3036,46.5871 C118.9746,46.5871 119.5186,46.0431 119.5186,45.3711 C119.5186,44.7011 118.9746,44.1561 118.3036,44.1561 C117.6326,44.1561 117.0886,44.7011 117.0886,45.3711 M117.2206,38.5171 C117.2206,39.1161 117.7046,39.6011 118.3036,39.6011 C118.9026,39.6011 119.3876,39.1161 119.3876,38.5171 C119.3876,37.9191 118.9026,37.4341 118.3036,37.4341 C117.7046,37.4341 117.2206,37.9191 117.2206,38.5171 M117.3516,31.6631 C117.3516,32.1891 117.7776,32.6151 118.3036,32.6151 C118.8296,32.6151 119.2556,32.1891 119.2556,31.6631 C119.2556,31.1381 118.8296,30.7121 118.3036,30.7121 C117.7776,30.7121 117.3516,31.1381 117.3516,31.6631 M124.9646,72.7881 C124.9646,73.6631 125.6746,74.3721 126.5496,74.3721 C127.4246,74.3721 128.1336,73.6631 128.1336,72.7881 C128.1336,71.9131 127.4246,71.2041 126.5496,71.2041 C125.6746,71.2041 124.9646,71.9131 124.9646,72.7881 M125.0966,65.9341 C125.0966,66.7361 125.7466,67.3861 126.5496,67.3861 C127.3516,67.3861 128.0016,66.7361 128.0016,65.9341 C128.0016,65.1321 127.3516,64.4811 126.5496,64.4811 C125.7466,64.4811 125.0966,65.1321 125.0966,65.9341 M125.2286,59.0801 C125.2286,59.8091 125.8196,60.4001 126.5496,60.4001 C127.2786,60.4001 127.8706,59.8091 127.8706,59.0801 C127.8706,58.3501 127.2786,57.7591 126.5496,57.7591 C125.8196,57.7591 125.2286,58.3501 125.2286,59.0801 M125.3606,52.2261 C125.3606,52.8821 125.8926,53.4141 126.5496,53.4141 C127.2056,53.4141 127.7386,52.8821 127.7386,52.2261 C127.7386,51.5691 127.2056,51.0371 126.5496,51.0371 C125.8926,51.0371 125.3606,51.5691 125.3606,52.2261 M125.4926,45.3711 C125.4926,45.9551 125.9656,46.4291 126.5496,46.4291 C127.1336,46.4291 127.6066,45.9551 127.6066,45.3711 C127.6066,44.7881 127.1336,44.3151 126.5496,44.3151 C125.9656,44.3151 125.4926,44.7881 125.4926,45.3711 M125.6246,38.5171 C125.6246,39.0281 126.0386,39.4431 126.5496,39.4431 C127.0596,39.4431 127.4746,39.0281 127.4746,38.5171 C127.4746,38.0071 127.0596,37.5931 126.5496,37.5931 C126.0386,37.5931 125.6246,38.0071 125.6246,38.5171 M125.7566,31.6631 C125.7566,32.1011 126.1116,32.4561 126.5496,32.4561 C126.9876,32.4561 127.3426,32.1011 127.3426,31.6631 C127.3426,31.2251 126.9876,30.8711 126.5496,30.8711 C126.1116,30.8711 125.7566,31.2251 125.7566,31.6631 M133.3696,72.7881 C133.3696,73.5751 134.0076,74.2141 134.7946,74.2141 C135.5826,74.2141 136.2206,73.5751 136.2206,72.7881 C136.2206,72.0001 135.5826,71.3621 134.7946,71.3621 C134.0076,71.3621 133.3696,72.0001 133.3696,72.7881 M133.5016,65.9341 C133.5016,66.6481 134.0806,67.2271 134.7946,67.2271 C135.5096,67.2271 136.0886,66.6481 136.0886,65.9341 C136.0886,65.2191 135.5096,64.6401 134.7946,64.6401 C134.0806,64.6401 133.5016,65.2191 133.5016,65.9341 M133.6336,59.0801 C133.6336,59.7221 134.1536,60.2421 134.7946,60.2421 C135.4366,60.2421 135.9566,59.7221 135.9566,59.0801 C135.9566,58.4381 135.4366,57.9181 134.7946,57.9181 C134.1536,57.9181 133.6336,58.4381 133.6336,59.0801 M133.7656,52.2261 C133.7656,52.7951 134.2256,53.2561 134.7946,53.2561 C135.3636,53.2561 135.8256,52.7951 135.8256,52.2261 C135.8256,51.6571 135.3636,51.1961 134.7946,51.1961 C134.2256,51.1961 133.7656,51.6571 133.7656,52.2261 M133.8966,45.3711 C133.8966,45.8681 134.2996,46.2701 134.7946,46.2701 C135.2906,46.2701 135.6936,45.8681 135.6936,45.3711 C135.6936,44.8751 135.2906,44.4741 134.7946,44.4741 C134.2996,44.4741 133.8966,44.8751 133.8966,45.3711 M134.0286,38.5171 C134.0286,38.9411 134.3716,39.2841 134.7946,39.2841 C135.2186,39.2841 135.5616,38.9411 135.5616,38.5171 C135.5616,38.0951 135.2186,37.7511 134.7946,37.7511 C134.3716,37.7511 134.0286,38.0951 134.0286,38.5171 M134.1606,31.6631 C134.1606,32.0141 134.4446,32.2981 134.7946,32.2981 C135.1456,32.2981 135.4296,32.0141 135.4296,31.6631 C135.4296,31.3131 135.1456,31.0291 134.7946,31.0291 C134.4446,31.0291 134.1606,31.3131 134.1606,31.6631 M141.7736,72.7881 C141.7736,73.4881 142.3416,74.0551 143.0406,74.0551 C143.7406,74.0551 144.3086,73.4881 144.3086,72.7881 C144.3086,72.0881 143.7406,71.5211 143.0406,71.5211 C142.3416,71.5211 141.7736,72.0881 141.7736,72.7881 M141.9056,65.9341 C141.9056,66.5611 142.4136,67.0691 143.0406,67.0691 C143.6676,67.0691 144.1756,66.5611 144.1756,65.9341 C144.1756,65.3071 143.6676,64.7991 143.0406,64.7991 C142.4136,64.7991 141.9056,65.3071 141.9056,65.9341 M142.0376,59.0801 C142.0376,59.6341 142.4866,60.0831 143.0406,60.0831 C143.5946,60.0831 144.0436,59.6341 144.0436,59.0801 C144.0436,58.5261 143.5946,58.0771 143.0406,58.0771 C142.4866,58.0771 142.0376,58.5261 142.0376,59.0801 M142.1696,52.2261 C142.1696,52.7071 142.5596,53.0971 143.0406,53.0971 C143.5216,53.0971 143.9126,52.7071 143.9126,52.2261 C143.9126,51.7451 143.5216,51.3541 143.0406,51.3541 C142.5596,51.3541 142.1696,51.7451 142.1696,52.2261 M142.3016,45.3711 C142.3016,45.7801 142.6326,46.1111 143.0406,46.1111 C143.4496,46.1111 143.7806,45.7801 143.7806,45.3711 C143.7806,44.9631 143.4496,44.6321 143.0406,44.6321 C142.6326,44.6321 142.3016,44.9631 142.3016,45.3711 M142.4336,38.5171 C142.4336,38.8531 142.7046,39.1251 143.0406,39.1251 C143.3766,39.1251 143.6486,38.8531 143.6486,38.5171 C143.6486,38.1821 143.3766,37.9101 143.0406,37.9101 C142.7046,37.9101 142.4336,38.1821 142.4336,38.5171 M142.5646,31.6631 C142.5646,31.9261 142.7786,32.1391 143.0406,32.1391 C143.3036,32.1391 143.5166,31.9261 143.5166,31.6631 C143.5166,31.4011 143.3036,31.1881 143.0406,31.1881 C142.7786,31.1881 142.5646,31.4011 142.5646,31.6631 M28.7106,77.9261 L28.7106,26.5281 C28.7106,25.4241 29.6066,24.5281 30.7106,24.5281 L148.1826,24.5281 C149.2876,24.5281 150.1826,25.4241 150.1826,26.5281 L150.1826,77.9261 C150.1826,79.0311 149.2876,79.9261 148.1826,79.9261 L30.7106,79.9261 C29.6066,79.9261 28.7106,79.0311 28.7106,77.9261" id="Fill-185" fill="#5001E9"></path>
            <path d="M60.5508,65.1943 C60.3518,65.3233 60.4148,65.8273 60.2338,66.0103 C60.1138,66.1323 59.7218,66.3423 60.0198,66.4463 C60.2418,66.5233 60.7348,67.1483 60.9688,67.0653 C61.0678,67.0313 60.9058,66.7663 61.2768,66.9333 C61.3628,66.9433 61.4048,67.0293 61.5348,67.0393 C61.9818,67.0723 62.5488,66.8423 62.9468,67.0213 C63.1848,67.1283 63.3498,67.2513 63.5508,67.3763 C63.9078,67.6003 64.1328,67.8533 64.3548,68.2533 C64.4608,68.4393 64.3268,68.6273 64.5378,68.7363 C64.7308,68.8393 64.9428,68.9193 65.1398,69.0133 C65.5408,69.2073 65.9958,69.4103 66.2808,69.7863 C66.3258,69.8463 66.4558,70.1943 66.5688,70.1283 C66.6138,70.1373 66.8018,70.0293 66.8718,70.0323 C66.9978,70.0373 67.0928,70.1113 67.1958,70.1743 C67.5688,70.4063 67.6058,70.8493 67.9108,71.1283 C68.1398,71.4263 68.4458,71.7623 68.5488,72.1363 C68.8078,73.0793 67.9788,74.3963 67.2328,74.9113 C66.7608,75.2363 66.4108,75.6953 65.9988,76.0903 C65.9448,76.1413 65.1028,76.8163 65.1318,76.8983 C64.8098,77.1733 64.4228,77.3873 64.0728,77.6253 C64.0208,77.6603 63.7038,77.9513 63.6588,77.8003 C63.6128,77.7793 63.5098,77.5033 63.4318,77.5403 C63.3348,77.5873 63.4948,78.0743 63.5318,78.1393 C63.6318,78.3133 63.4718,78.2773 63.5098,78.4113 C63.5898,78.8323 63.8518,79.2573 63.9618,79.6783 C64.0148,79.8793 64.4528,80.8833 64.3418,81.0523 C64.2548,81.1853 63.9048,81.1883 63.7828,81.3183 C63.7008,81.4413 63.7658,81.5673 63.7588,81.7083 C63.7538,81.8123 63.1308,81.6963 63.1728,81.9163 C63.1518,81.9533 63.1798,82.0923 63.1798,82.1313 C63.1888,82.6713 63.1728,83.2113 63.1518,83.7503 C63.1168,84.6513 63.0898,85.5483 63.0688,86.4503 C63.0428,87.4983 62.7878,88.5113 62.7428,89.5543 C62.7328,89.8003 62.8288,90.3723 62.6778,90.5783 C62.5798,90.7143 61.8308,90.8043 61.6568,90.7823 C61.4048,90.8143 61.1398,90.9033 60.8848,90.9033 C60.7958,90.9723 60.8258,91.1893 60.8218,91.3113 C60.8098,91.7753 60.7928,92.2373 60.7718,92.7023 C60.7328,93.5273 60.5918,94.3773 60.3848,95.1743 C60.1968,95.9063 60.0128,96.6393 59.8138,97.3683 C59.7478,97.6133 59.7398,97.8313 59.7898,98.0803 C59.8498,98.3773 59.8948,98.2013 59.9928,98.3763 C60.0788,98.4493 61.0618,98.7373 60.8278,99.0413 C60.7138,99.1193 60.4688,98.9573 60.4468,98.9833 C60.2568,99.2043 61.2918,99.9933 61.4258,100.1173 C61.7558,100.4223 62.4748,101.7103 61.5718,101.7513 C61.1658,101.8603 60.1548,101.9123 59.8158,101.5733 C59.6858,101.4433 59.4658,101.4403 59.3328,101.2763 C59.1098,101.0033 59.2228,100.5503 58.7468,100.5373 C58.4878,100.5293 57.8688,100.4443 57.9048,100.0793 C57.8158,99.7883 57.9368,99.5193 58.0178,99.2733 C58.0588,99.1503 58.0058,98.9673 58.0288,98.8363 C58.0648,98.6243 58.1558,98.4293 58.2388,98.2333 C58.3428,97.9913 58.5828,97.8183 58.6338,97.5833 C58.9458,96.1393 58.3458,94.5973 58.4278,93.1463 C58.4618,92.5113 58.6638,91.9183 58.7388,91.2933 C58.8028,90.7823 58.1018,91.0313 57.7328,91.0353 C57.3168,91.0393 57.3968,91.2273 57.4168,91.6173 C57.4258,91.8283 57.4598,92.0373 57.4828,92.2463 C57.5388,92.7673 57.5428,93.2773 57.4768,93.7983 C57.3378,94.8713 57.0238,95.9243 56.8708,97.0003 C56.8188,97.3683 56.7338,98.0833 56.9828,98.4073 C57.0898,98.7963 57.2918,99.2033 57.2488,99.6223 C57.2298,99.8053 57.3498,99.8813 57.3078,100.0893 C57.3198,100.2563 57.2818,100.4523 57.2768,100.6203 C57.2658,100.9983 56.7338,100.8153 56.6478,100.9313 C56.4488,101.1343 56.8168,101.6143 56.6408,101.8803 C56.5138,102.0693 56.2998,102.1783 56.1008,102.2843 C55.6688,102.5113 54.0528,102.6703 54.0488,101.9383 C54.0458,101.5603 54.1918,100.9823 54.4088,100.6683 C54.5398,100.4813 54.6678,100.2873 54.8038,100.1043 C54.8148,100.0913 55.0238,99.7953 54.9318,99.8593 C54.8508,99.9403 54.7748,100.0243 54.7008,100.1133 C54.6138,99.9573 55.4658,99.1893 55.5088,98.9333 C55.5208,98.8623 55.1768,98.9263 55.1958,98.8193 C55.7178,98.8323 55.5238,98.7723 55.6128,98.3023 C55.6968,97.8663 55.7228,97.5483 55.6508,97.1073 C55.5378,96.4253 55.4578,95.7413 55.3728,95.0553 C55.3088,94.5183 55.2328,93.9783 55.1998,93.4373 C55.1878,93.2083 55.2798,90.9423 55.2998,90.9413 C55.2258,90.8633 54.8818,90.8873 54.7618,90.8343 C54.6248,90.7733 54.6638,90.5533 54.6618,90.4323 C54.6588,90.0773 54.6378,89.7223 54.6498,89.3673 C54.6728,88.6493 54.7038,87.9433 54.6938,87.2233 C54.6748,85.8703 54.6468,84.5173 54.6308,83.1643 C54.6278,82.8173 54.8108,82.2963 54.3968,82.2473 C54.2178,82.2253 54.2748,82.0873 54.1228,82.0583 C53.9158,82.0203 53.6648,81.9973 53.4778,81.8953 C53.2538,81.7713 53.9508,79.8603 54.0348,79.5523 C54.0718,79.4233 54.1678,79.2333 54.0668,79.1173 C53.9648,79.0033 54.1708,78.7673 54.2238,78.6633 C54.3018,78.5073 54.4138,78.3753 54.5058,78.2283 C54.6638,77.9793 54.4998,78.0673 54.3628,77.8413 C53.7328,77.1883 53.1478,76.3303 53.2098,75.3963 C53.2228,75.1713 53.2228,74.9353 53.2468,74.7103 C53.2748,74.4663 53.5218,74.2593 53.4868,74.0283 C53.4478,73.7813 53.4148,73.5253 53.3408,73.2853 C53.3328,73.1813 53.4028,72.8733 53.3568,72.8073 C53.3588,72.5573 53.2818,72.4113 53.4148,72.1573 C53.4978,71.9923 53.8168,71.8583 53.7848,71.6713 C53.7568,71.5023 53.6978,71.3163 53.7148,71.1433 C53.7328,70.9333 53.6688,70.6893 53.6968,70.4983 C53.6358,70.1303 53.4478,69.3973 53.8058,69.1223 C54.0698,68.9223 54.2798,68.6103 54.5968,68.4093 C55.0028,68.1573 55.5358,68.1663 55.9168,67.8823 C55.9758,67.8513 56.5108,67.4763 56.5548,67.6353 C56.5548,67.6473 56.5578,67.7563 56.5728,67.7593 C56.8288,67.8083 56.9678,67.1033 57.0718,67.0003 C57.0598,66.9023 57.0108,66.9163 56.9308,66.8333 C56.7688,66.6673 56.8378,66.4223 56.7178,66.2643 C56.5488,66.0523 56.4978,65.6963 56.3758,65.4553 C56.2408,65.1933 56.2928,64.8633 56.0738,64.6843 C55.4938,64.2113 54.6048,63.3503 54.7588,62.5133 C54.8868,61.7983 55.7098,61.7523 55.9898,61.1793 C56.3428,60.4543 56.8878,60.4063 57.5598,60.3073 C58.4198,60.1793 59.3178,60.5123 59.9378,61.1113 C60.2768,61.4383 60.5518,61.8913 60.5958,62.3683 C60.6318,62.7373 60.9728,62.9013 61.1768,63.2013 C61.5928,63.8093 61.1458,64.8343 60.5508,65.1943" id="Stroke-245" stroke="#000000" stroke-linecap="round" stroke-linejoin="round"></path>
            <path d="M60.5508,65.1943 C60.3518,65.3233 60.4148,65.8273 60.2338,66.0103 C60.1138,66.1323 59.7218,66.3423 60.0198,66.4463 C60.2418,66.5233 60.7348,67.1483 60.9688,67.0653 C61.0678,67.0313 60.9058,66.7663 61.2768,66.9333 C61.3628,66.9433 61.4048,67.0293 61.5348,67.0393 C61.9818,67.0723 62.5488,66.8423 62.9468,67.0213 C63.1848,67.1283 63.3498,67.2513 63.5508,67.3763 C63.9078,67.6003 64.1328,67.8533 64.3548,68.2533 C64.4608,68.4393 64.3268,68.6273 64.5378,68.7363 C64.7308,68.8393 64.9428,68.9193 65.1398,69.0133 C65.5408,69.2073 65.9958,69.4103 66.2808,69.7863 C66.3258,69.8463 66.4558,70.1943 66.5688,70.1283 C66.6138,70.1373 66.8018,70.0293 66.8718,70.0323 C66.9978,70.0373 67.0928,70.1113 67.1958,70.1743 C67.5688,70.4063 67.6058,70.8493 67.9108,71.1283 C68.1398,71.4263 68.4458,71.7623 68.5488,72.1363 C68.8078,73.0793 67.9788,74.3963 67.2328,74.9113 C66.7608,75.2363 66.4108,75.6953 65.9988,76.0903 C65.9448,76.1413 65.1028,76.8163 65.1318,76.8983 C64.8098,77.1733 64.4228,77.3873 64.0728,77.6253 C64.0208,77.6603 63.7038,77.9513 63.6588,77.8003 C63.6128,77.7793 63.5098,77.5033 63.4318,77.5403 C63.3348,77.5873 63.4948,78.0743 63.5318,78.1393 C63.6318,78.3133 63.4718,78.2773 63.5098,78.4113 C63.5898,78.8323 63.8518,79.2573 63.9618,79.6783 C64.0148,79.8793 64.4528,80.8833 64.3418,81.0523 C64.2548,81.1853 63.9048,81.1883 63.7828,81.3183 C63.7008,81.4413 63.7658,81.5673 63.7588,81.7083 C63.7538,81.8123 63.1308,81.6963 63.1728,81.9163 C63.1518,81.9533 63.1798,82.0923 63.1798,82.1313 C63.1888,82.6713 63.1728,83.2113 63.1518,83.7503 C63.1168,84.6513 63.0898,85.5483 63.0688,86.4503 C63.0428,87.4983 62.7878,88.5113 62.7428,89.5543 C62.7328,89.8003 62.8288,90.3723 62.6778,90.5783 C62.5798,90.7143 61.8308,90.8043 61.6568,90.7823 C61.4048,90.8143 61.1398,90.9033 60.8848,90.9033 C60.7958,90.9723 60.8258,91.1893 60.8218,91.3113 C60.8098,91.7753 60.7928,92.2373 60.7718,92.7023 C60.7328,93.5273 60.5918,94.3773 60.3848,95.1743 C60.1968,95.9063 60.0128,96.6393 59.8138,97.3683 C59.7478,97.6133 59.7398,97.8313 59.7898,98.0803 C59.8498,98.3773 59.8948,98.2013 59.9928,98.3763 C60.0788,98.4493 61.0618,98.7373 60.8278,99.0413 C60.7138,99.1193 60.4688,98.9573 60.4468,98.9833 C60.2568,99.2043 61.2918,99.9933 61.4258,100.1173 C61.7558,100.4223 62.4748,101.7103 61.5718,101.7513 C61.1658,101.8603 60.1548,101.9123 59.8158,101.5733 C59.6858,101.4433 59.4658,101.4403 59.3328,101.2763 C59.1098,101.0033 59.2228,100.5503 58.7468,100.5373 C58.4878,100.5293 57.8688,100.4443 57.9048,100.0793 C57.8158,99.7883 57.9368,99.5193 58.0178,99.2733 C58.0588,99.1503 58.0058,98.9673 58.0288,98.8363 C58.0648,98.6243 58.1558,98.4293 58.2388,98.2333 C58.3428,97.9913 58.5828,97.8183 58.6338,97.5833 C58.9458,96.1393 58.3458,94.5973 58.4278,93.1463 C58.4618,92.5113 58.6638,91.9183 58.7388,91.2933 C58.8028,90.7823 58.1018,91.0313 57.7328,91.0353 C57.3168,91.0393 57.3968,91.2273 57.4168,91.6173 C57.4258,91.8283 57.4598,92.0373 57.4828,92.2463 C57.5388,92.7673 57.5428,93.2773 57.4768,93.7983 C57.3378,94.8713 57.0238,95.9243 56.8708,97.0003 C56.8188,97.3683 56.7338,98.0833 56.9828,98.4073 C57.0898,98.7963 57.2918,99.2033 57.2488,99.6223 C57.2298,99.8053 57.3498,99.8813 57.3078,100.0893 C57.3198,100.2563 57.2818,100.4523 57.2768,100.6203 C57.2658,100.9983 56.7338,100.8153 56.6478,100.9313 C56.4488,101.1343 56.8168,101.6143 56.6408,101.8803 C56.5138,102.0693 56.2998,102.1783 56.1008,102.2843 C55.6688,102.5113 54.0528,102.6703 54.0488,101.9383 C54.0458,101.5603 54.1918,100.9823 54.4088,100.6683 C54.5398,100.4813 54.6678,100.2873 54.8038,100.1043 C54.8148,100.0913 55.0238,99.7953 54.9318,99.8593 C54.8508,99.9403 54.7748,100.0243 54.7008,100.1133 C54.6138,99.9573 55.4658,99.1893 55.5088,98.9333 C55.5208,98.8623 55.1768,98.9263 55.1958,98.8193 C55.7178,98.8323 55.5238,98.7723 55.6128,98.3023 C55.6968,97.8663 55.7228,97.5483 55.6508,97.1073 C55.5378,96.4253 55.4578,95.7413 55.3728,95.0553 C55.3088,94.5183 55.2328,93.9783 55.1998,93.4373 C55.1878,93.2083 55.2798,90.9423 55.2998,90.9413 C55.2258,90.8633 54.8818,90.8873 54.7618,90.8343 C54.6248,90.7733 54.6638,90.5533 54.6618,90.4323 C54.6588,90.0773 54.6378,89.7223 54.6498,89.3673 C54.6728,88.6493 54.7038,87.9433 54.6938,87.2233 C54.6748,85.8703 54.6468,84.5173 54.6308,83.1643 C54.6278,82.8173 54.8108,82.2963 54.3968,82.2473 C54.2178,82.2253 54.2748,82.0873 54.1228,82.0583 C53.9158,82.0203 53.6648,81.9973 53.4778,81.8953 C53.2538,81.7713 53.9508,79.8603 54.0348,79.5523 C54.0718,79.4233 54.1678,79.2333 54.0668,79.1173 C53.9648,79.0033 54.1708,78.7673 54.2238,78.6633 C54.3018,78.5073 54.4138,78.3753 54.5058,78.2283 C54.6638,77.9793 54.4998,78.0673 54.3628,77.8413 C53.7328,77.1883 53.1478,76.3303 53.2098,75.3963 C53.2228,75.1713 53.2228,74.9353 53.2468,74.7103 C53.2748,74.4663 53.5218,74.2593 53.4868,74.0283 C53.4478,73.7813 53.4148,73.5253 53.3408,73.2853 C53.3328,73.1813 53.4028,72.8733 53.3568,72.8073 C53.3588,72.5573 53.2818,72.4113 53.4148,72.1573 C53.4978,71.9923 53.8168,71.8583 53.7848,71.6713 C53.7568,71.5023 53.6978,71.3163 53.7148,71.1433 C53.7328,70.9333 53.6688,70.6893 53.6968,70.4983 C53.6358,70.1303 53.4478,69.3973 53.8058,69.1223 C54.0698,68.9223 54.2798,68.6103 54.5968,68.4093 C55.0028,68.1573 55.5358,68.1663 55.9168,67.8823 C55.9758,67.8513 56.5108,67.4763 56.5548,67.6353 C56.5548,67.6473 56.5578,67.7563 56.5728,67.7593 C56.8288,67.8083 56.9678,67.1033 57.0718,67.0003 C57.0598,66.9023 57.0108,66.9163 56.9308,66.8333 C56.7688,66.6673 56.8378,66.4223 56.7178,66.2643 C56.5488,66.0523 56.4978,65.6963 56.3758,65.4553 C56.2408,65.1933 56.2928,64.8633 56.0738,64.6843 C55.4938,64.2113 54.6048,63.3503 54.7588,62.5133 C54.8868,61.7983 55.7098,61.7523 55.9898,61.1793 C56.3428,60.4543 56.8878,60.4063 57.5598,60.3073 C58.4198,60.1793 59.3178,60.5123 59.9378,61.1113 C60.2768,61.4383 60.5518,61.8913 60.5958,62.3683 C60.6318,62.7373 60.9728,62.9013 61.1768,63.2013 C61.5928,63.8093 61.1458,64.8343 60.5508,65.1943" id="Fill-249" fill="#FFFFFF"></path>
            <path d="M32.5913,70.999 C32.6023,70.733 32.6893,70.483 32.6943,70.221 C32.6983,69.999 32.9593,69.929 33.1153,69.812 C33.4353,69.575 34.6453,68.777 33.7843,68.401 C33.4713,68.264 33.0663,68.269 32.7303,68.228 C32.4103,68.188 32.2693,67.984 32.0283,67.776 C31.7223,67.514 31.4393,67.237 31.1453,66.964 C30.8363,66.677 30.9473,66.31 30.7373,66.014 C30.3613,65.49 28.8633,66.765 28.6403,67.023 C28.2213,67.504 27.9473,68.112 27.9913,68.758 C28.0003,68.878 27.3643,69.27 27.2453,69.377 C26.9863,69.608 26.8023,69.946 26.9333,70.285 C27.0453,70.574 27.4303,70.645 27.6913,70.721 C27.8453,70.765 28.0303,71.169 28.1063,71.32 C28.1173,71.609 28.4163,71.793 28.4163,72.027 C28.4163,72.268 28.7473,72.181 28.7133,72.336 C28.4403,72.387 27.9463,73 27.7533,73.218 C26.9953,73.64 26.0233,73.683 25.2263,74.022 C24.6413,74.269 24.3843,74.436 24.2663,75.125 C24.1653,75.717 24.0403,76.204 23.8443,76.782 C23.5933,77.518 23.5423,78.302 23.2913,79.049 C23.1483,79.481 22.9493,79.917 22.8793,80.368 C22.8513,80.541 22.9613,80.721 22.9333,80.878 C22.8843,81.135 22.6893,81.337 22.6213,81.586 C22.5713,81.768 22.8743,82.234 22.9673,82.379 C23.2123,82.757 23.2593,83.012 23.7663,83.027 C24.1073,83.035 24.2933,83.117 24.6083,83.174 C24.9173,83.229 25.1973,83.117 25.1643,83.475 C25.1353,83.78 25.0923,84.08 25.0913,84.387 C25.0893,84.809 24.8463,85.133 24.7703,85.545 C24.7423,85.683 24.9853,85.667 24.9823,85.89 C24.9703,86.677 24.9793,87.462 24.8843,88.245 C24.7913,89 24.8663,89.782 24.8783,90.541 C24.8903,91.271 25.0213,91.245 25.8033,91.382 C26.1773,91.447 26.1203,91.411 26.1623,91.797 C26.2093,92.214 26.3083,92.628 26.3953,93.039 C26.5323,93.682 26.5143,94.307 26.5693,94.961 C26.6753,96.276 26.6113,97.603 26.9413,98.906 C27.0293,99.258 26.8703,99.668 26.8683,100.033 C26.8673,100.36 26.9323,100.687 26.9503,101.012 C26.9973,101.852 27.0033,102.691 27.0693,103.528 C27.1793,104.901 27.1203,106.307 27.2793,107.666 C27.3493,108.287 27.1853,109.138 27.8573,109.407 C28.3363,109.596 28.6283,109.313 29.0353,109.666 C30.0043,110.506 32.3863,111.028 33.4863,110.176 C33.9503,109.816 33.0553,109.119 32.6533,108.963 C32.4103,108.867 31.9013,108.49 31.7573,108.289 C31.7013,108.213 31.7433,107.984 31.7053,107.839 C32.2373,107.921 32.7853,107.935 33.3193,107.877 C33.4643,107.862 34.4993,107.451 34.2563,107.392 C34.2283,107.384 34.0983,107.041 34.0033,106.958 C33.8283,106.807 33.6113,106.756 33.4053,106.66 C33.0273,106.482 32.4983,106.459 32.1993,106.163 C32.2983,105.953 31.9703,105.343 31.8903,105.057 C31.8213,104.81 32.0173,104.734 32.1713,104.538 C32.4633,104.166 32.4413,103.712 32.4673,103.265 C32.5103,102.457 32.5553,101.641 32.5173,100.833 C32.5053,100.569 32.3453,100.141 32.4333,99.887 C32.5373,99.585 32.7183,99.311 32.8163,99.001 C33.3343,97.358 33.3363,95.502 33.5983,93.804 C33.6873,93.215 33.7323,92.582 33.8933,92.008 C33.9873,91.673 34.0953,91.342 34.1813,91.004 C34.2433,90.761 34.1553,90.485 34.2283,90.261 C34.8063,90.289 34.7723,90.787 35.3123,90.922 C35.6083,90.995 35.3833,89.961 35.3653,89.78 C35.2553,88.681 35.2573,87.621 35.2403,86.516 C35.2333,85.998 35.3143,85.391 35.1873,84.89 C35.1623,84.787 35.1683,84.564 35.0473,84.564 C34.9253,84.564 34.9333,84.512 34.9083,84.389 C34.7293,83.462 34.4083,82.332 34.5753,81.36 C35.0263,81.575 35.4573,81.84 35.9143,82.038 C36.2843,82.198 36.5033,82.642 36.8983,82.642 C37.4523,82.812 38.0153,82.944 38.5743,83.094 C38.7603,83.144 39.1713,83.274 39.3233,83.062 C39.4293,82.914 39.3813,82.783 39.6493,82.901 C39.6623,82.541 39.3433,81.918 39.4953,81.583 C39.5543,81.455 40.0633,81.164 40.2063,81.092 C40.3873,81 40.3483,81.182 40.5253,81.124 C41.0653,80.945 40.3033,80.53 40.2743,80.456 C40.2413,80.365 40.5173,80.187 40.3503,79.962 C40.2863,79.875 40.1303,79.875 40.0333,79.903 C40.0833,79.455 39.5213,79.583 39.5013,79.266 C39.4823,78.931 40.2593,78.465 40.4073,78.182 C40.6043,77.804 39.8463,78.14 39.8073,78.173 C39.5843,78.354 39.3323,78.566 39.1473,78.783 C38.8103,79.177 38.4123,79.31 38.0473,79.662 C38.0123,79.45 37.8033,79.126 37.5463,79.186 C37.2503,79.253 37.4813,79.668 37.4663,79.849 C37.0913,79.603 37.1793,79.21 36.9533,78.896 C36.7413,78.601 36.6253,78.192 36.2503,78.098 C35.9893,78.032 36.0273,77.803 35.8913,77.586 C35.6753,77.24 35.8923,76.948 35.5873,76.585 C35.4523,76.428 35.4813,76.171 35.3893,75.978 C35.2933,75.776 35.1323,75.71 35.0973,75.489 C35.0673,75.304 34.8543,74.901 34.6463,74.854 C33.7023,74.644 32.8553,73.945 31.9153,73.701 C31.7723,73.665 31.6833,73.117 31.7613,73.017 C31.9453,72.773 32.2223,72.661 32.3793,72.371 C32.5883,71.985 32.6923,71.428 32.5913,70.999" id="Stroke-257" stroke="#000000" stroke-linecap="round" stroke-linejoin="round"></path>
            <path d="M32.5913,70.999 C32.6023,70.733 32.6893,70.483 32.6943,70.221 C32.6983,69.999 32.9593,69.929 33.1153,69.812 C33.4353,69.575 34.6453,68.777 33.7843,68.401 C33.4713,68.264 33.0663,68.269 32.7303,68.228 C32.4103,68.188 32.2693,67.984 32.0283,67.776 C31.7223,67.514 31.4393,67.237 31.1453,66.964 C30.8363,66.677 30.9473,66.31 30.7373,66.014 C30.3613,65.49 28.8633,66.765 28.6403,67.023 C28.2213,67.504 27.9473,68.112 27.9913,68.758 C28.0003,68.878 27.3643,69.27 27.2453,69.377 C26.9863,69.608 26.8023,69.946 26.9333,70.285 C27.0453,70.574 27.4303,70.645 27.6913,70.721 C27.8453,70.765 28.0303,71.169 28.1063,71.32 C28.1173,71.609 28.4163,71.793 28.4163,72.027 C28.4163,72.268 28.7473,72.181 28.7133,72.336 C28.4403,72.387 27.9463,73 27.7533,73.218 C26.9953,73.64 26.0233,73.683 25.2263,74.022 C24.6413,74.269 24.3843,74.436 24.2663,75.125 C24.1653,75.717 24.0403,76.204 23.8443,76.782 C23.5933,77.518 23.5423,78.302 23.2913,79.049 C23.1483,79.481 22.9493,79.917 22.8793,80.368 C22.8513,80.541 22.9613,80.721 22.9333,80.878 C22.8843,81.135 22.6893,81.337 22.6213,81.586 C22.5713,81.768 22.8743,82.234 22.9673,82.379 C23.2123,82.757 23.2593,83.012 23.7663,83.027 C24.1073,83.035 24.2933,83.117 24.6083,83.174 C24.9173,83.229 25.1973,83.117 25.1643,83.475 C25.1353,83.78 25.0923,84.08 25.0913,84.387 C25.0893,84.809 24.8463,85.133 24.7703,85.545 C24.7423,85.683 24.9853,85.667 24.9823,85.89 C24.9703,86.677 24.9793,87.462 24.8843,88.245 C24.7913,89 24.8663,89.782 24.8783,90.541 C24.8903,91.271 25.0213,91.245 25.8033,91.382 C26.1773,91.447 26.1203,91.411 26.1623,91.797 C26.2093,92.214 26.3083,92.628 26.3953,93.039 C26.5323,93.682 26.5143,94.307 26.5693,94.961 C26.6753,96.276 26.6113,97.603 26.9413,98.906 C27.0293,99.258 26.8703,99.668 26.8683,100.033 C26.8673,100.36 26.9323,100.687 26.9503,101.012 C26.9973,101.852 27.0033,102.691 27.0693,103.528 C27.1793,104.901 27.1203,106.307 27.2793,107.666 C27.3493,108.287 27.1853,109.138 27.8573,109.407 C28.3363,109.596 28.6283,109.313 29.0353,109.666 C30.0043,110.506 32.3863,111.028 33.4863,110.176 C33.9503,109.816 33.0553,109.119 32.6533,108.963 C32.4103,108.867 31.9013,108.49 31.7573,108.289 C31.7013,108.213 31.7433,107.984 31.7053,107.839 C32.2373,107.921 32.7853,107.935 33.3193,107.877 C33.4643,107.862 34.4993,107.451 34.2563,107.392 C34.2283,107.384 34.0983,107.041 34.0033,106.958 C33.8283,106.807 33.6113,106.756 33.4053,106.66 C33.0273,106.482 32.4983,106.459 32.1993,106.163 C32.2983,105.953 31.9703,105.343 31.8903,105.057 C31.8213,104.81 32.0173,104.734 32.1713,104.538 C32.4633,104.166 32.4413,103.712 32.4673,103.265 C32.5103,102.457 32.5553,101.641 32.5173,100.833 C32.5053,100.569 32.3453,100.141 32.4333,99.887 C32.5373,99.585 32.7183,99.311 32.8163,99.001 C33.3343,97.358 33.3363,95.502 33.5983,93.804 C33.6873,93.215 33.7323,92.582 33.8933,92.008 C33.9873,91.673 34.0953,91.342 34.1813,91.004 C34.2433,90.761 34.1553,90.485 34.2283,90.261 C34.8063,90.289 34.7723,90.787 35.3123,90.922 C35.6083,90.995 35.3833,89.961 35.3653,89.78 C35.2553,88.681 35.2573,87.621 35.2403,86.516 C35.2333,85.998 35.3143,85.391 35.1873,84.89 C35.1623,84.787 35.1683,84.564 35.0473,84.564 C34.9253,84.564 34.9333,84.512 34.9083,84.389 C34.7293,83.462 34.4083,82.332 34.5753,81.36 C35.0263,81.575 35.4573,81.84 35.9143,82.038 C36.2843,82.198 36.5033,82.642 36.8983,82.642 C37.4523,82.812 38.0153,82.944 38.5743,83.094 C38.7603,83.144 39.1713,83.274 39.3233,83.062 C39.4293,82.914 39.3813,82.783 39.6493,82.901 C39.6623,82.541 39.3433,81.918 39.4953,81.583 C39.5543,81.455 40.0633,81.164 40.2063,81.092 C40.3873,81 40.3483,81.182 40.5253,81.124 C41.0653,80.945 40.3033,80.53 40.2743,80.456 C40.2413,80.365 40.5173,80.187 40.3503,79.962 C40.2863,79.875 40.1303,79.875 40.0333,79.903 C40.0833,79.455 39.5213,79.583 39.5013,79.266 C39.4823,78.931 40.2593,78.465 40.4073,78.182 C40.6043,77.804 39.8463,78.14 39.8073,78.173 C39.5843,78.354 39.3323,78.566 39.1473,78.783 C38.8103,79.177 38.4123,79.31 38.0473,79.662 C38.0123,79.45 37.8033,79.126 37.5463,79.186 C37.2503,79.253 37.4813,79.668 37.4663,79.849 C37.0913,79.603 37.1793,79.21 36.9533,78.896 C36.7413,78.601 36.6253,78.192 36.2503,78.098 C35.9893,78.032 36.0273,77.803 35.8913,77.586 C35.6753,77.24 35.8923,76.948 35.5873,76.585 C35.4523,76.428 35.4813,76.171 35.3893,75.978 C35.2933,75.776 35.1323,75.71 35.0973,75.489 C35.0673,75.304 34.8543,74.901 34.6463,74.854 C33.7023,74.644 32.8553,73.945 31.9153,73.701 C31.7723,73.665 31.6833,73.117 31.7613,73.017 C31.9453,72.773 32.2223,72.661 32.3793,72.371 C32.5883,71.985 32.6923,71.428 32.5913,70.999" id="Fill-261" fill="#FFFFFF"></path>
        </g>
    </g>
</svg>